MyNerve.ufo
<glyph name="exclam" format="2">
	<advance width="278"/>
	<unicode hex="0021"/>
	<note>
		exclam
	</note>
	<outline>
		<contour>
			<point x="123" y="108" type="curve" smooth="yes"/>
			<point x="114" y="111"/>
			<point x="108" y="126"/>
			<point x="102" y="136" type="curve" smooth="yes"/>
			<point x="101" y="138"/>
			<point x="102" y="143"/>
			<point x="102" y="146" type="curve"/>
			<point x="134" y="338"/>
			<point x="111" y="529"/>
			<point x="98" y="720" type="curve" smooth="yes"/>
			<point x="98" y="727"/>
			<point x="95" y="735"/>
			<point x="97" y="742" type="curve"/>
			<point x="102" y="752"/>
			<point x="107" y="767"/>
			<point x="116" y="770" type="curve" smooth="yes"/>
			<point x="125" y="774"/>
			<point x="143" y="769"/>
			<point x="149" y="762" type="curve" smooth="yes"/>
			<point x="160" y="748"/>
			<point x="169" y="731"/>
			<point x="171" y="714" type="curve" smooth="yes"/>
			<point x="178" y="612"/>
			<point x="183" y="510"/>
			<point x="188" y="414" type="curve"/>
			<point x="182" y="339"/>
			<point x="178" y="271"/>
			<point x="171" y="204" type="curve" smooth="yes"/>
			<point x="168" y="177"/>
			<point x="160" y="151"/>
			<point x="150" y="126" type="curve" smooth="yes"/>
			<point x="147" y="117"/>
			<point x="130" y="106"/>
		</contour>
		<contour>
			<point x="123" y="-98" type="curve" smooth="yes"/>
			<point x="146" y="-97"/>
			<point x="166" y="-71"/>
			<point x="165" y="-45" type="curve" smooth="yes"/>
			<point x="164" y="-13"/>
			<point x="145" y="5"/>
			<point x="114" y="4" type="curve" smooth="yes"/>
			<point x="86" y="4"/>
			<point x="68" y="-16"/>
			<point x="70" y="-45" type="curve" smooth="yes"/>
			<point x="71" y="-68"/>
			<point x="102" y="-99"/>
		</contour>
		<contour>
			<point x="123" y="-98" type="curve" smooth="yes"/>
			<point x="146" y="-97"/>
			<point x="166" y="-71"/>
			<point x="165" y="-45" type="curve" smooth="yes"/>
			<point x="164" y="-13"/>
			<point x="145" y="5"/>
			<point x="114" y="4" type="curve" smooth="yes"/>
			<point x="86" y="4"/>
			<point x="68" y="-16"/>
			<point x="70" y="-45" type="curve" smooth="yes"/>
			<point x="71" y="-68"/>
			<point x="102" y="-99"/>
		</contour>
	</outline>
</glyph>
<glyph name="quotedbl" format="2">
	<advance width="331"/>
	<unicode hex="0022"/>
	<note>
		quotedbl
	</note>
	<outline>
		<contour>
			<point x="87" y="387" type="curve"/>
			<point x="117" y="406"/>
			<point x="119" y="410"/>
			<point x="118" y="435" type="curve" smooth="yes"/>
			<point x="113" y="537"/>
			<point x="116" y="589"/>
			<point x="140" y="689" type="curve" smooth="yes"/>
			<point x="146" y="714"/>
			<point x="139" y="730"/>
			<point x="117" y="739" type="curve" smooth="yes"/>
			<point x="103" y="744"/>
			<point x="87" y="744"/>
			<point x="70" y="746" type="curve"/>
			<point x="63" y="633" type="line" smooth="yes"/>
			<point x="58" y="563"/>
			<point x="53" y="543"/>
			<point x="50" y="473" type="curve" smooth="yes"/>
			<point x="48" y="439"/>
			<point x="53" y="406"/>
		</contour>
		<contour>
			<point x="244" y="404" type="curve" smooth="yes"/>
			<point x="252" y="404"/>
			<point x="263" y="415"/>
			<point x="266" y="424" type="curve" smooth="yes"/>
			<point x="269" y="435"/>
			<point x="268" y="449"/>
			<point x="267" y="462" type="curve" smooth="yes"/>
			<point x="265" y="523"/>
			<point x="262" y="585"/>
			<point x="279" y="646" type="curve" smooth="yes"/>
			<point x="280" y="650"/>
			<point x="281" y="655"/>
			<point x="281" y="660" type="curve" smooth="yes"/>
			<point x="282" y="688"/>
			<point x="266" y="709"/>
			<point x="238" y="714" type="curve" smooth="yes"/>
			<point x="217" y="718"/>
			<point x="206" y="708"/>
			<point x="208" y="685" type="curve" smooth="yes"/>
			<point x="210" y="669"/>
			<point x="212" y="654"/>
			<point x="211" y="638" type="curve" smooth="yes"/>
			<point x="208" y="599"/>
			<point x="201" y="559"/>
			<point x="198" y="520" type="curve"/>
			<point x="203" y="472"/>
			<point x="204" y="429"/>
			<point x="214" y="417" type="curve" smooth="yes"/>
			<point x="220" y="409"/>
			<point x="234" y="403"/>
		</contour>
	</outline>
</glyph>
<glyph name="numbersign" format="2">
	<advance width="740"/>
	<unicode hex="0023"/>
	<note>
		numbersign
	</note>
	<outline>
		<contour>
			<point x="540" y="97" type="curve"/>
			<point x="540" y="178"/>
			<point x="543" y="258"/>
			<point x="538" y="339" type="curve" smooth="yes"/>
			<point x="537" y="369"/>
			<point x="544" y="382"/>
			<point x="572" y="385" type="curve"/>
			<point x="599" y="392"/>
			<point x="619" y="394"/>
			<point x="683" y="403" type="curve" smooth="yes"/>
			<point x="699" y="406"/>
			<point x="714" y="420"/>
			<point x="730" y="428" type="curve"/>
			<point x="714" y="440"/>
			<point x="699" y="454"/>
			<point x="682" y="464" type="curve" smooth="yes"/>
			<point x="676" y="468"/>
			<point x="664" y="464"/>
			<point x="656" y="463" type="curve" smooth="yes"/>
			<point x="590" y="456"/>
			<point x="570" y="454"/>
			<point x="537" y="448" type="curve"/>
			<point x="528" y="565" type="line" smooth="yes"/>
			<point x="526" y="593"/>
			<point x="537" y="608"/>
			<point x="569" y="605" type="curve" smooth="yes"/>
			<point x="589" y="604"/>
			<point x="611" y="610"/>
			<point x="638" y="613" type="curve"/>
			<point x="619" y="656"/>
			<point x="589" y="659"/>
			<point x="560" y="667" type="curve" smooth="yes"/>
			<point x="546" y="672"/>
			<point x="527" y="689"/>
			<point x="525" y="702" type="curve" smooth="yes"/>
			<point x="516" y="742"/>
			<point x="516" y="784"/>
			<point x="509" y="825" type="curve"/>
			<point x="508" y="838"/>
			<point x="495" y="849"/>
			<point x="486" y="861" type="curve"/>
			<point x="479" y="846"/>
			<point x="466" y="833"/>
			<point x="465" y="817" type="curve" smooth="yes"/>
			<point x="462" y="775"/>
			<point x="466" y="732"/>
			<point x="464" y="689" type="curve" smooth="yes"/>
			<point x="463" y="678"/>
			<point x="456" y="660"/>
			<point x="447" y="658" type="curve"/>
			<point x="408" y="644"/>
			<point x="368" y="634"/>
			<point x="324" y="622" type="curve"/>
			<point x="319" y="655"/>
			<point x="318" y="683"/>
			<point x="312" y="710" type="curve" smooth="yes"/>
			<point x="309" y="723"/>
			<point x="298" y="734"/>
			<point x="290" y="746" type="curve"/>
			<point x="281" y="734"/>
			<point x="266" y="723"/>
			<point x="263" y="710" type="curve" smooth="yes"/>
			<point x="259" y="686"/>
			<point x="261" y="661"/>
			<point x="261" y="637" type="curve" smooth="yes"/>
			<point x="261" y="616"/>
			<point x="260" y="599"/>
			<point x="232" y="593" type="curve" smooth="yes"/>
			<point x="170" y="579"/>
			<point x="110" y="561"/>
			<point x="48" y="542" type="curve" smooth="yes"/>
			<point x="36" y="539"/>
			<point x="27" y="527"/>
			<point x="17" y="519" type="curve"/>
			<point x="31" y="512"/>
			<point x="43" y="502"/>
			<point x="58" y="501" type="curve" smooth="yes"/>
			<point x="72" y="499"/>
			<point x="88" y="507"/>
			<point x="102" y="510" type="curve" smooth="yes"/>
			<point x="157" y="521"/>
			<point x="211" y="531"/>
			<point x="267" y="541" type="curve"/>
			<point x="271" y="491"/>
			<point x="276" y="450"/>
			<point x="276" y="408" type="curve" smooth="yes"/>
			<point x="276" y="393"/>
			<point x="270" y="370"/>
			<point x="258" y="362" type="curve" smooth="yes"/>
			<point x="234" y="347"/>
			<point x="204" y="342"/>
			<point x="178" y="330" type="curve" smooth="yes"/>
			<point x="165" y="325"/>
			<point x="155" y="315"/>
			<point x="143" y="307" type="curve"/>
			<point x="157" y="302"/>
			<point x="171" y="290"/>
			<point x="185" y="292" type="curve" smooth="yes"/>
			<point x="215" y="295"/>
			<point x="243" y="304"/>
			<point x="278" y="313" type="curve"/>
			<point x="282" y="274"/>
			<point x="283" y="239"/>
			<point x="289" y="205" type="curve" smooth="yes"/>
			<point x="293" y="189"/>
			<point x="305" y="161"/>
			<point x="313" y="160" type="curve" smooth="yes"/>
			<point x="340" y="159"/>
			<point x="353" y="178"/>
			<point x="351" y="206" type="curve" smooth="yes"/>
			<point x="349" y="236"/>
			<point x="347" y="268"/>
			<point x="350" y="298" type="curve" smooth="yes"/>
			<point x="352" y="312"/>
			<point x="364" y="332"/>
			<point x="376" y="338" type="curve" smooth="yes"/>
			<point x="405" y="350"/>
			<point x="437" y="355"/>
			<point x="477" y="365" type="curve"/>
			<point x="480" y="286"/>
			<point x="485" y="212"/>
			<point x="486" y="139" type="curve" smooth="yes"/>
			<point x="487" y="89"/>
			<point x="489" y="86"/>
		</contour>
		<contour>
			<point x="343" y="385" type="curve"/>
			<point x="338" y="443"/>
			<point x="332" y="491"/>
			<point x="329" y="540" type="curve" smooth="yes"/>
			<point x="329" y="548"/>
			<point x="336" y="563"/>
			<point x="343" y="565" type="curve" smooth="yes"/>
			<point x="383" y="577"/>
			<point x="424" y="586"/>
			<point x="474" y="599" type="curve"/>
			<point x="474" y="543"/>
			<point x="476" y="496"/>
			<point x="474" y="449" type="curve" smooth="yes"/>
			<point x="473" y="439"/>
			<point x="461" y="425"/>
			<point x="451" y="421" type="curve" smooth="yes"/>
			<point x="418" y="407"/>
			<point x="384" y="399"/>
		</contour>
	</outline>
</glyph>
<glyph name="ampersand" format="2">
	<advance width="573"/>
	<unicode hex="0026"/>
	<note>
		ampersand
	</note>
	<outline>
		<contour>
			<point x="197" y="-18" type="curve" smooth="yes"/>
			<point x="282" y="-24"/>
			<point x="347" y="14"/>
			<point x="393" y="88" type="curve" smooth="yes"/>
			<point x="405" y="108"/>
			<point x="399" y="138"/>
			<point x="457" y="103" type="curve" smooth="yes"/>
			<point x="482" y="88"/>
			<point x="510" y="88"/>
			<point x="522" y="124" type="curve" smooth="yes"/>
			<point x="531" y="154"/>
			<point x="495" y="183"/>
			<point x="449" y="194" type="curve"/>
			<point x="463" y="250"/>
			<point x="503" y="320"/>
			<point x="465" y="351" type="curve"/>
			<point x="397" y="336"/>
			<point x="416" y="263"/>
			<point x="383" y="222" type="curve"/>
			<point x="348" y="246"/>
			<point x="297" y="272"/>
			<point x="255" y="299" type="curve"/>
			<point x="267" y="330"/>
			<point x="281" y="358"/>
			<point x="291" y="387" type="curve" smooth="yes"/>
			<point x="315" y="457"/>
			<point x="344" y="525"/>
			<point x="359" y="598" type="curve" smooth="yes"/>
			<point x="372" y="658"/>
			<point x="332" y="702"/>
			<point x="279" y="701" type="curve" smooth="yes"/>
			<point x="202" y="700"/>
			<point x="82" y="602"/>
			<point x="58" y="528" type="curve" smooth="yes"/>
			<point x="28" y="435"/>
			<point x="84" y="374"/>
			<point x="136" y="318" type="curve" smooth="yes"/>
			<point x="163" y="289"/>
			<point x="158" y="270"/>
			<point x="146" y="244" type="curve" smooth="yes"/>
			<point x="124" y="201"/>
			<point x="103" y="160"/>
			<point x="92" y="114" type="curve" smooth="yes"/>
			<point x="75" y="49"/>
			<point x="130" y="-16"/>
		</contour>
		<contour>
			<point x="226" y="39" type="curve" smooth="yes"/>
			<point x="171" y="23"/>
			<point x="143" y="55"/>
			<point x="159" y="110" type="curve" smooth="yes"/>
			<point x="167" y="131"/>
			<point x="173" y="151"/>
			<point x="182" y="170" type="curve" smooth="yes"/>
			<point x="214" y="248"/>
			<point x="214" y="248"/>
			<point x="284" y="201" type="curve" smooth="yes"/>
			<point x="306" y="186"/>
			<point x="327" y="174"/>
			<point x="354" y="157" type="curve"/>
			<point x="328" y="94"/>
			<point x="286" y="54"/>
		</contour>
		<contour>
			<point x="193" y="341" type="curve"/>
			<point x="145" y="389"/>
			<point x="96" y="432"/>
			<point x="120" y="501" type="curve" smooth="yes"/>
			<point x="145" y="573"/>
			<point x="210" y="610"/>
			<point x="277" y="637" type="curve"/>
			<point x="284" y="634"/>
			<point x="295" y="630"/>
			<point x="303" y="626" type="curve"/>
			<point x="265" y="532"/>
			<point x="229" y="438"/>
		</contour>
	</outline>
</glyph>
<glyph name="parenleft" format="2">
	<advance width="429"/>
	<unicode hex="0028"/>
	<note>
		parenleft
	</note>
	<outline>
		<contour>
			<point x="331" y="-63" type="curve" smooth="yes"/>
			<point x="342" y="-68"/>
			<point x="359" y="-62"/>
			<point x="386" y="-59" type="curve"/>
			<point x="367" y="-39"/>
			<point x="358" y="-27"/>
			<point x="346" y="-18" type="curve" smooth="yes"/>
			<point x="322" y="2"/>
			<point x="294" y="19"/>
			<point x="270" y="39" type="curve" smooth="yes"/>
			<point x="147" y="145"/>
			<point x="104" y="291"/>
			<point x="156" y="425" type="curve" smooth="yes"/>
			<point x="183" y="495"/>
			<point x="238" y="540"/>
			<point x="295" y="584" type="curve" smooth="yes"/>
			<point x="308" y="594"/>
			<point x="315" y="613"/>
			<point x="325" y="627" type="curve"/>
			<point x="312" y="636"/>
			<point x="298" y="651"/>
			<point x="285" y="652" type="curve" smooth="yes"/>
			<point x="268" y="652"/>
			<point x="250" y="642"/>
			<point x="234" y="634" type="curve" smooth="yes"/>
			<point x="224" y="628"/>
			<point x="217" y="616"/>
			<point x="208" y="608" type="curve" smooth="yes"/>
			<point x="135" y="548"/>
			<point x="78" y="476"/>
			<point x="61" y="380" type="curve" smooth="yes"/>
			<point x="25" y="174"/>
			<point x="154" y="12"/>
		</contour>
	</outline>
</glyph>
<glyph name="asterisk" format="2">
	<advance width="622"/>
	<unicode hex="002A"/>
	<note>
		asterisk
	</note>
	<outline>
		<contour>
			<point x="51" y="83" type="curve"/>
			<point x="119" y="63"/>
			<point x="136" y="115"/>
			<point x="165" y="139" type="curve" smooth="yes"/>
			<point x="199" y="167"/>
			<point x="229" y="200"/>
			<point x="261" y="232" type="curve"/>
			<point x="280" y="193"/>
			<point x="237" y="145"/>
			<point x="296" y="114" type="curve"/>
			<point x="306" y="173"/>
			<point x="316" y="225"/>
			<point x="327" y="286" type="curve"/>
			<point x="393" y="248"/>
			<point x="452" y="212"/>
			<point x="511" y="177" type="curve"/>
			<point x="524" y="211"/>
			<point x="511" y="238"/>
			<point x="469" y="262" type="curve" smooth="yes"/>
			<point x="435" y="282"/>
			<point x="401" y="304"/>
			<point x="357" y="329" type="curve"/>
			<point x="384" y="344"/>
			<point x="399" y="353"/>
			<point x="414" y="360" type="curve" smooth="yes"/>
			<point x="448" y="375"/>
			<point x="482" y="387"/>
			<point x="514" y="404" type="curve" smooth="yes"/>
			<point x="524" y="410"/>
			<point x="529" y="427"/>
			<point x="535" y="439" type="curve"/>
			<point x="523" y="441"/>
			<point x="511" y="446"/>
			<point x="499" y="445" type="curve" smooth="yes"/>
			<point x="487" y="444"/>
			<point x="475" y="438"/>
			<point x="463" y="435" type="curve"/>
			<point x="461" y="438"/>
			<point x="459" y="443"/>
			<point x="456" y="446" type="curve"/>
			<point x="483" y="467"/>
			<point x="511" y="487"/>
			<point x="536" y="510" type="curve" smooth="yes"/>
			<point x="546" y="519"/>
			<point x="548" y="536"/>
			<point x="554" y="550" type="curve"/>
			<point x="538" y="552"/>
			<point x="518" y="559"/>
			<point x="505" y="554" type="curve" smooth="yes"/>
			<point x="488" y="547"/>
			<point x="475" y="530"/>
			<point x="462" y="517" type="curve" smooth="yes"/>
			<point x="420" y="477"/>
			<point x="379" y="437"/>
			<point x="329" y="389" type="curve"/>
			<point x="335" y="450"/>
			<point x="341" y="501"/>
			<point x="345" y="551" type="curve" smooth="yes"/>
			<point x="347" y="576"/>
			<point x="350" y="607"/>
			<point x="315" y="606" type="curve" smooth="yes"/>
			<point x="305" y="606"/>
			<point x="292" y="575"/>
			<point x="289" y="557" type="curve" smooth="yes"/>
			<point x="282" y="507"/>
			<point x="280" y="457"/>
			<point x="277" y="407" type="curve"/>
			<point x="273" y="406"/>
			<point x="268" y="404"/>
			<point x="263" y="402" type="curve"/>
			<point x="253" y="421"/>
			<point x="241" y="438"/>
			<point x="231" y="457" type="curve" smooth="yes"/>
			<point x="220" y="478"/>
			<point x="209" y="502"/>
			<point x="183" y="489" type="curve" smooth="yes"/>
			<point x="155" y="475"/>
			<point x="172" y="450"/>
			<point x="182" y="432" type="curve" smooth="yes"/>
			<point x="194" y="409"/>
			<point x="208" y="388"/>
			<point x="225" y="359" type="curve"/>
			<point x="174" y="359"/>
			<point x="132" y="359"/>
			<point x="90" y="358" type="curve" smooth="yes"/>
			<point x="81" y="357"/>
			<point x="68" y="345"/>
			<point x="67" y="336" type="curve" smooth="yes"/>
			<point x="66" y="328"/>
			<point x="74" y="314"/>
			<point x="83" y="309" type="curve" smooth="yes"/>
			<point x="92" y="303"/>
			<point x="106" y="303"/>
			<point x="118" y="303" type="curve" smooth="yes"/>
			<point x="158" y="302"/>
			<point x="199" y="303"/>
			<point x="249" y="303" type="curve"/>
			<point x="182" y="228"/>
			<point x="121" y="159"/>
		</contour>
	</outline>
</glyph>
<glyph name="comma" format="2">
	<advance width="216"/>
	<unicode hex="002C"/>
	<note>
		comma
	</note>
	<outline>
		<contour>
			<point x="49" y="-193" type="curve"/>
			<point x="59" y="-184"/>
			<point x="72" y="-177"/>
			<point x="77" y="-167" type="curve" smooth="yes"/>
			<point x="93" y="-135"/>
			<point x="105" y="-101"/>
			<point x="119" y="-68" type="curve" smooth="yes"/>
			<point x="140" y="-22"/>
			<point x="162" y="23"/>
			<point x="186" y="76" type="curve"/>
			<point x="176" y="83"/>
			<point x="163" y="98"/>
			<point x="154" y="96" type="curve" smooth="yes"/>
			<point x="135" y="92"/>
			<point x="110" y="84"/>
			<point x="103" y="70" type="curve" smooth="yes"/>
			<point x="81" y="25"/>
			<point x="64" y="-22"/>
			<point x="48" y="-70" type="curve" smooth="yes"/>
			<point x="26" y="-132"/>
			<point x="10" y="-144"/>
		</contour>
	</outline>
</glyph>
<glyph name="period" format="2">
	<advance width="215"/>
	<unicode hex="002E"/>
	<note>
		period
	</note>
	<outline>
		<contour>
			<point x="108" y="-8" type="curve" smooth="yes"/>
			<point x="120" y="-2"/>
			<point x="131" y="2"/>
			<point x="142" y="11" type="curve" smooth="yes"/>
			<point x="157" y="22"/>
			<point x="171" y="45"/>
			<point x="162" y="66" type="curve" smooth="yes"/>
			<point x="154" y="81"/>
			<point x="136" y="88"/>
			<point x="127" y="95" type="curve"/>
			<point x="107" y="90"/>
			<point x="94" y="86"/>
			<point x="82" y="82" type="curve" smooth="yes"/>
			<point x="52" y="70"/>
			<point x="44" y="52"/>
			<point x="54" y="20" type="curve" smooth="yes"/>
			<point x="62" y="-10"/>
			<point x="83" y="-21"/>
		</contour>
	</outline>
</glyph>
<glyph name="slash" format="2">
	<advance width="436"/>
	<unicode hex="002F"/>
	<note>
		slash
	</note>
	<outline>
		<contour>
			<point x="96" y="-126" type="curve" smooth="yes"/>
			<point x="118" y="-133"/>
			<point x="134" y="-124"/>
			<point x="144" y="-100" type="curve"/>
			<point x="149" y="-91"/>
			<point x="149" y="-79"/>
			<point x="151" y="-69" type="curve" smooth="yes"/>
			<point x="161" y="-29"/>
			<point x="170" y="11"/>
			<point x="182" y="50" type="curve" smooth="yes"/>
			<point x="200" y="110"/>
			<point x="221" y="169"/>
			<point x="239" y="229" type="curve" smooth="yes"/>
			<point x="272" y="332"/>
			<point x="304" y="436"/>
			<point x="335" y="541" type="curve" smooth="yes"/>
			<point x="348" y="583"/>
			<point x="359" y="626"/>
			<point x="370" y="669" type="curve" smooth="yes"/>
			<point x="376" y="693"/>
			<point x="365" y="706"/>
			<point x="338" y="710" type="curve"/>
			<point x="334" y="705"/>
			<point x="329" y="701"/>
			<point x="327" y="695" type="curve" smooth="yes"/>
			<point x="243" y="457" type="line" smooth="yes"/>
			<point x="213" y="371"/>
			<point x="183" y="286"/>
			<point x="155" y="200" type="curve" smooth="yes"/>
			<point x="125" y="108"/>
			<point x="96" y="17"/>
			<point x="68" y="-76" type="curve" smooth="yes"/>
			<point x="61" y="-101"/>
			<point x="72" y="-119"/>
		</contour>
	</outline>
</glyph>
<glyph name="zero" format="2">
	<advance width="559"/>
	<unicode hex="0030"/>
	<note>
		zero
	</note>
	<outline>
		<contour>
			<point x="311" y="36" type="curve" smooth="yes"/>
			<point x="405" y="100"/>
			<point x="464" y="188"/>
			<point x="488" y="300" type="curve" smooth="yes"/>
			<point x="516" y="434"/>
			<point x="491" y="510"/>
			<point x="384" y="594" type="curve" smooth="yes"/>
			<point x="365" y="609"/>
			<point x="335" y="620"/>
			<point x="311" y="618" type="curve" smooth="yes"/>
			<point x="220" y="612"/>
			<point x="142" y="575"/>
			<point x="108" y="486" type="curve" smooth="yes"/>
			<point x="80" y="416"/>
			<point x="68" y="341"/>
			<point x="54" y="283" type="curve"/>
			<point x="62" y="222"/>
			<point x="63" y="179"/>
			<point x="73" y="137" type="curve" smooth="yes"/>
			<point x="102" y="18"/>
			<point x="201" y="-38"/>
		</contour>
		<contour>
			<point x="275" y="85" type="curve" smooth="yes"/>
			<point x="223" y="44"/>
			<point x="173" y="55"/>
			<point x="156" y="113" type="curve" smooth="yes"/>
			<point x="123" y="229"/>
			<point x="116" y="346"/>
			<point x="183" y="456" type="curve" smooth="yes"/>
			<point x="206" y="495"/>
			<point x="231" y="516"/>
			<point x="286" y="500" type="curve" smooth="yes"/>
			<point x="338" y="483"/>
			<point x="316" y="532"/>
			<point x="314" y="561" type="curve"/>
			<point x="367" y="558"/>
			<point x="413" y="516"/>
			<point x="427" y="456" type="curve" smooth="yes"/>
			<point x="449" y="365"/>
			<point x="435" y="277"/>
			<point x="381" y="201" type="curve" smooth="yes"/>
			<point x="350" y="159"/>
			<point x="315" y="118"/>
		</contour>
	</outline>
</glyph>
<glyph name="one" format="2">
	<advance width="447"/>
	<unicode hex="0031"/>
	<note>
		one
	</note>
	<outline>
		<contour>
			<point x="308" y="-84" type="curve"/>
			<point x="319" y="-71"/>
			<point x="337" y="-63"/>
			<point x="339" y="-48" type="curve" smooth="yes"/>
			<point x="346" y="-22"/>
			<point x="343" y="6"/>
			<point x="344" y="34" type="curve" smooth="yes"/>
			<point x="353" y="211"/>
			<point x="361" y="386"/>
			<point x="367" y="560" type="curve" smooth="yes"/>
			<point x="368" y="593"/>
			<point x="364" y="627"/>
			<point x="354" y="657" type="curve" smooth="yes"/>
			<point x="339" y="697"/>
			<point x="310" y="706"/>
			<point x="278" y="679" type="curve" smooth="yes"/>
			<point x="206" y="619"/>
			<point x="137" y="557"/>
			<point x="68" y="494" type="curve" smooth="yes"/>
			<point x="46" y="474"/>
			<point x="50" y="447"/>
			<point x="80" y="444" type="curve" smooth="yes"/>
			<point x="103" y="442"/>
			<point x="132" y="448"/>
			<point x="148" y="463" type="curve" smooth="yes"/>
			<point x="195" y="505"/>
			<point x="250" y="554"/>
			<point x="293" y="600" type="curve"/>
			<point x="293" y="592" type="line"/>
			<point x="295" y="579"/>
			<point x="296" y="567"/>
			<point x="296" y="555" type="curve" smooth="yes"/>
			<point x="295" y="354"/>
			<point x="291" y="154"/>
			<point x="290" y="-46" type="curve" smooth="yes"/>
			<point x="290" y="-58"/>
			<point x="301" y="-71"/>
		</contour>
	</outline>
</glyph>
<glyph name="three" format="2">
	<advance width="452"/>
	<unicode hex="0033"/>
	<note>
		three
	</note>
	<outline>
		<contour>
			<point x="105" y="-81" type="curve" smooth="yes"/>
			<point x="248" y="-39"/>
			<point x="345" y="56"/>
			<point x="402" y="190" type="curve" smooth="yes"/>
			<point x="433" y="267"/>
			<point x="376" y="373"/>
			<point x="308" y="387" type="curve" smooth="yes"/>
			<point x="287" y="394"/>
			<point x="267" y="400"/>
			<point x="245" y="405" type="curve"/>
			<point x="241" y="410"/>
			<point x="239" y="416"/>
			<point x="235" y="420" type="curve"/>
			<point x="260" y="439"/>
			<point x="287" y="456"/>
			<point x="308" y="478" type="curve" smooth="yes"/>
			<point x="341" y="516"/>
			<point x="379" y="552"/>
			<point x="408" y="594" type="curve" smooth="yes"/>
			<point x="436" y="639"/>
			<point x="420" y="673"/>
			<point x="367" y="680" type="curve" smooth="yes"/>
			<point x="324" y="684"/>
			<point x="279" y="682"/>
			<point x="238" y="680" type="curve" smooth="yes"/>
			<point x="200" y="677"/>
			<point x="162" y="667"/>
			<point x="126" y="663" type="curve" smooth="yes"/>
			<point x="110" y="661"/>
			<point x="85" y="668"/>
			<point x="88" y="640" type="curve" smooth="yes"/>
			<point x="89" y="614"/>
			<point x="102" y="595"/>
			<point x="134" y="601" type="curve" smooth="yes"/>
			<point x="165" y="606"/>
			<point x="196" y="613"/>
			<point x="229" y="618" type="curve" smooth="yes"/>
			<point x="268" y="623"/>
			<point x="309" y="628"/>
			<point x="357" y="634" type="curve"/>
			<point x="347" y="615"/>
			<point x="345" y="609"/>
			<point x="340" y="605" type="curve" smooth="yes"/>
			<point x="275" y="538"/>
			<point x="210" y="470"/>
			<point x="142" y="405" type="curve" smooth="yes"/>
			<point x="122" y="386"/>
			<point x="116" y="372"/>
			<point x="129" y="348" type="curve" smooth="yes"/>
			<point x="140" y="327"/>
			<point x="158" y="321"/>
			<point x="182" y="328" type="curve" smooth="yes"/>
			<point x="211" y="338"/>
			<point x="241" y="343"/>
			<point x="271" y="343" type="curve" smooth="yes"/>
			<point x="324" y="340"/>
			<point x="360" y="305"/>
			<point x="350" y="252" type="curve" smooth="yes"/>
			<point x="341" y="210"/>
			<point x="321" y="168"/>
			<point x="298" y="135" type="curve" smooth="yes"/>
			<point x="238" y="48"/>
			<point x="162" y="-21"/>
			<point x="53" y="-38" type="curve" smooth="yes"/>
			<point x="48" y="-39"/>
			<point x="38" y="-57"/>
			<point x="40" y="-64" type="curve" smooth="yes"/>
			<point x="53" y="-98"/>
			<point x="83" y="-91"/>
		</contour>
	</outline>
</glyph>
<glyph name="four" format="2">
	<advance width="582"/>
	<unicode hex="0034"/>
	<note>
		four
	</note>
	<outline>
		<contour>
			<point x="335" y="-82" type="curve"/>
			<point x="364" y="-71"/>
			<point x="351" y="-31"/>
			<point x="350" y="-6" type="curve" smooth="yes"/>
			<point x="348" y="51"/>
			<point x="342" y="107"/>
			<point x="342" y="164" type="curve" smooth="yes"/>
			<point x="342" y="178"/>
			<point x="335" y="201"/>
			<point x="347" y="204" type="curve" smooth="yes"/>
			<point x="397" y="215"/>
			<point x="470" y="220"/>
			<point x="520" y="230" type="curve" smooth="yes"/>
			<point x="532" y="232"/>
			<point x="541" y="243"/>
			<point x="552" y="250" type="curve"/>
			<point x="545" y="259"/>
			<point x="539" y="275"/>
			<point x="531" y="276" type="curve" smooth="yes"/>
			<point x="510" y="280"/>
			<point x="488" y="279"/>
			<point x="467" y="276" type="curve" smooth="yes"/>
			<point x="425" y="270"/>
			<point x="384" y="260"/>
			<point x="336" y="251" type="curve"/>
			<point x="336" y="469" type="line" smooth="yes"/>
			<point x="336" y="540"/>
			<point x="336" y="610"/>
			<point x="336" y="674" type="curve"/>
			<point x="380" y="720" type="line"/>
			<point x="346" y="769"/>
			<point x="325" y="772"/>
			<point x="298" y="740" type="curve" smooth="yes"/>
			<point x="261" y="696"/>
			<point x="225" y="652"/>
			<point x="192" y="605" type="curve" smooth="yes"/>
			<point x="114" y="497"/>
			<point x="51" y="381"/>
			<point x="31" y="246" type="curve" smooth="yes"/>
			<point x="28" y="226"/>
			<point x="34" y="199"/>
			<point x="46" y="183" type="curve" smooth="yes"/>
			<point x="86" y="129"/>
			<point x="142" y="148"/>
			<point x="194" y="158" type="curve" smooth="yes"/>
			<point x="221" y="163"/>
			<point x="246" y="174"/>
			<point x="273" y="183" type="curve"/>
			<point x="300" y="89"/>
			<point x="281" y="-17"/>
		</contour>
		<contour>
			<point x="148" y="197" type="curve" smooth="yes"/>
			<point x="117" y="190"/>
			<point x="87" y="197"/>
			<point x="91" y="241" type="curve" smooth="yes"/>
			<point x="106" y="377"/>
			<point x="179" y="486"/>
			<point x="256" y="593" type="curve"/>
			<point x="261" y="591"/>
			<point x="266" y="606"/>
			<point x="271" y="605" type="curve"/>
			<point x="271" y="351"/>
			<point x="271" y="341"/>
			<point x="271" y="331" type="curve" smooth="yes"/>
			<point x="271" y="299"/>
			<point x="283" y="251"/>
			<point x="268" y="239" type="curve" smooth="yes"/>
			<point x="236" y="214"/>
			<point x="190" y="206"/>
		</contour>
	</outline>
</glyph>
<glyph name="six" format="2">
	<advance width="512"/>
	<unicode hex="0036"/>
	<note>
		six
	</note>
	<outline>
		<contour>
			<point x="166" y="53" type="curve" smooth="yes"/>
			<point x="242" y="11"/>
			<point x="340" y="28"/>
			<point x="413" y="95" type="curve" smooth="yes"/>
			<point x="463" y="142"/>
			<point x="476" y="203"/>
			<point x="445" y="244" type="curve" smooth="yes"/>
			<point x="408" y="293"/>
			<point x="331" y="311"/>
			<point x="279" y="273" type="curve" smooth="yes"/>
			<point x="232" y="239"/>
			<point x="195" y="191"/>
			<point x="147" y="143" type="curve"/>
			<point x="142" y="158"/>
			<point x="131" y="177"/>
			<point x="131" y="196" type="curve" smooth="yes"/>
			<point x="126" y="351"/>
			<point x="197" y="475"/>
			<point x="299" y="583" type="curve" smooth="yes"/>
			<point x="319" y="604"/>
			<point x="332" y="620"/>
			<point x="311" y="638" type="curve" smooth="yes"/>
			<point x="293" y="654"/>
			<point x="269" y="660"/>
			<point x="243" y="634" type="curve" smooth="yes"/>
			<point x="149" y="538"/>
			<point x="98" y="420"/>
			<point x="66" y="293" type="curve" smooth="yes"/>
			<point x="43" y="199"/>
			<point x="88" y="97"/>
		</contour>
		<contour>
			<point x="187" y="102" type="curve"/>
			<point x="214" y="134"/>
			<point x="237" y="164"/>
			<point x="263" y="190" type="curve" smooth="yes"/>
			<point x="283" y="209"/>
			<point x="306" y="226"/>
			<point x="331" y="235" type="curve" smooth="yes"/>
			<point x="346" y="241"/>
			<point x="376" y="235"/>
			<point x="384" y="224" type="curve" smooth="yes"/>
			<point x="393" y="212"/>
			<point x="391" y="184"/>
			<point x="383" y="168" type="curve" smooth="yes"/>
			<point x="352" y="106"/>
			<point x="253" y="74"/>
		</contour>
	</outline>
</glyph>
<glyph name="seven" format="2">
	<advance width="607"/>
	<unicode hex="0037"/>
	<note>
		seven
	</note>
	<outline>
		<contour>
			<point x="479" y="621" type="curve"/>
			<point x="395" y="624"/>
			<point x="324" y="629"/>
			<point x="253" y="629" type="curve"/>
			<point x="199" y="629"/>
			<point x="145" y="623"/>
			<point x="91" y="619" type="curve"/>
			<point x="55" y="617"/>
			<point x="54" y="647"/>
			<point x="50" y="669" type="curve"/>
			<point x="49" y="677"/>
			<point x="71" y="696"/>
			<point x="82" y="696" type="curve"/>
			<point x="220" y="693"/>
			<point x="359" y="688"/>
			<point x="497" y="681" type="curve"/>
			<point x="570" y="677"/>
			<point x="584" y="653"/>
			<point x="548" y="591" type="curve"/>
			<point x="493" y="495"/>
			<point x="431" y="403"/>
			<point x="375" y="308" type="curve"/>
			<point x="313" y="203"/>
			<point x="253" y="97"/>
			<point x="195" y="-9" type="curve"/>
			<point x="182" y="-34"/>
			<point x="170" y="-66"/>
			<point x="173" y="-92" type="curve"/>
			<point x="177" y="-122"/>
			<point x="165" y="-139"/>
			<point x="144" y="-136" type="curve"/>
			<point x="128" y="-134"/>
			<point x="101" y="-107"/>
			<point x="103" y="-94" type="curve"/>
			<point x="107" y="-53"/>
			<point x="115" y="-10"/>
			<point x="135" y="25" type="curve"/>
			<point x="205" y="155"/>
			<point x="281" y="282"/>
			<point x="355" y="410" type="curve"/>
			<point x="393" y="476"/>
			<point x="432" y="541"/>
		</contour>
	</outline>
</glyph>
<glyph name="semicolon" format="2">
	<advance width="230"/>
	<unicode hex="003B"/>
	<note>
		semicolon
	</note>
	<outline>
		<contour>
			<point x="37" y="-178" type="curve" smooth="yes"/>
			<point x="81" y="-200"/>
			<point x="88" y="-150"/>
			<point x="107" y="-111" type="curve" smooth="yes"/>
			<point x="132" y="-54"/>
			<point x="159" y="3"/>
			<point x="185" y="60" type="curve" smooth="yes"/>
			<point x="213" y="117" type="line"/>
			<point x="196" y="132"/>
			<point x="183" y="150"/>
			<point x="167" y="154" type="curve" smooth="yes"/>
			<point x="152" y="158"/>
			<point x="124" y="149"/>
			<point x="119" y="138" type="curve" smooth="yes"/>
			<point x="85" y="49"/>
			<point x="53" y="-43"/>
			<point x="23" y="-135" type="curve" smooth="yes"/>
			<point x="20" y="-147"/>
			<point x="27" y="-173"/>
		</contour>
		<contour>
			<point x="137" y="363" type="curve" smooth="yes"/>
			<point x="149" y="361"/>
			<point x="163" y="379"/>
			<point x="172" y="384" type="curve"/>
			<point x="169" y="431"/>
			<point x="146" y="442"/>
			<point x="119" y="438" type="curve" smooth="yes"/>
			<point x="103" y="435"/>
			<point x="78" y="419"/>
			<point x="77" y="408" type="curve" smooth="yes"/>
			<point x="75" y="371"/>
			<point x="110" y="366"/>
		</contour>
	</outline>
</glyph>
<glyph name="less" format="2">
	<advance width="668"/>
	<unicode hex="003C"/>
	<note>
		less
	</note>
	<outline>
		<contour>
			<point x="551" y="80" type="curve" smooth="yes"/>
			<point x="568" y="79"/>
			<point x="584" y="83"/>
			<point x="601" y="101" type="curve"/>
			<point x="601" y="127"/>
			<point x="562" y="133"/>
			<point x="542" y="140" type="curve" smooth="yes"/>
			<point x="477" y="164"/>
			<point x="285" y="249"/>
			<point x="247" y="271" type="curve" smooth="yes"/>
			<point x="224" y="284"/>
			<point x="443" y="415"/>
			<point x="509" y="454" type="curve" smooth="yes"/>
			<point x="528" y="467"/>
			<point x="554" y="477"/>
			<point x="570" y="493" type="curve" smooth="yes"/>
			<point x="578" y="500"/>
			<point x="610" y="559"/>
			<point x="524" y="541" type="curve" smooth="yes"/>
			<point x="480" y="531"/>
			<point x="465" y="515"/>
			<point x="439" y="496" type="curve" smooth="yes"/>
			<point x="333" y="426"/>
			<point x="228" y="356"/>
			<point x="119" y="284" type="curve"/>
			<point x="174" y="239"/>
			<point x="247" y="185"/>
			<point x="302" y="154" type="curve" smooth="yes"/>
			<point x="336" y="134"/>
			<point x="487" y="82"/>
		</contour>
	</outline>
</glyph>
<glyph name="greater" format="2">
	<advance width="564"/>
	<unicode hex="003E"/>
	<note>
		greater
	</note>
	<outline>
		<contour>
			<point x="405" y="279" type="curve"/>
			<point x="336" y="350"/>
			<point x="216" y="442"/>
			<point x="108" y="465" type="curve"/>
			<point x="91" y="469"/>
			<point x="53" y="480"/>
			<point x="62" y="501" type="curve"/>
			<point x="80" y="520"/>
			<point x="98" y="525"/>
			<point x="119" y="524" type="curve"/>
			<point x="145" y="524"/>
			<point x="207" y="508"/>
			<point x="228" y="495" type="curve"/>
			<point x="321" y="435"/>
			<point x="414" y="372"/>
			<point x="503" y="307" type="curve"/>
			<point x="543" y="277"/>
			<point x="521" y="258"/>
			<point x="482" y="240" type="curve"/>
			<point x="362" y="176"/>
			<point x="243" y="111"/>
			<point x="128" y="40" type="curve"/>
			<point x="90" y="18"/>
			<point x="62" y="31"/>
			<point x="36" y="51" type="curve"/>
			<point x="3" y="76"/>
			<point x="55" y="85"/>
			<point x="84" y="103" type="curve"/>
			<point x="173" y="152"/>
			<point x="261" y="200"/>
			<point x="349" y="249" type="curve"/>
			<point x="365" y="258"/>
			<point x="381" y="267"/>
		</contour>
	</outline>
</glyph>
<glyph name="question" format="2">
	<advance width="463"/>
	<unicode hex="003F"/>
	<note>
		question
	</note>
	<outline>
		<contour>
			<point x="234" y="159" type="curve" smooth="yes"/>
			<point x="252" y="163"/>
			<point x="255" y="177"/>
			<point x="257" y="196" type="curve" smooth="yes"/>
			<point x="260" y="221"/>
			<point x="265" y="248"/>
			<point x="275" y="271" type="curve" smooth="yes"/>
			<point x="290" y="308"/>
			<point x="309" y="341"/>
			<point x="331" y="375" type="curve" smooth="yes"/>
			<point x="365" y="433"/>
			<point x="396" y="493"/>
			<point x="409" y="559" type="curve" smooth="yes"/>
			<point x="430" y="663"/>
			<point x="360" y="751"/>
			<point x="253" y="749" type="curve"/>
			<point x="249" y="748"/>
			<point x="242" y="748"/>
			<point x="233" y="745" type="curve" smooth="yes"/>
			<point x="167" y="727"/>
			<point x="112" y="691"/>
			<point x="63" y="643" type="curve" smooth="yes"/>
			<point x="47" y="626"/>
			<point x="46" y="582"/>
			<point x="61" y="563" type="curve" smooth="yes"/>
			<point x="69" y="554"/>
			<point x="84" y="547"/>
			<point x="96" y="547" type="curve" smooth="yes"/>
			<point x="104" y="547"/>
			<point x="113" y="560"/>
			<point x="121" y="570" type="curve" smooth="yes"/>
			<point x="130" y="582"/>
			<point x="132" y="601"/>
			<point x="144" y="609" type="curve" smooth="yes"/>
			<point x="175" y="630"/>
			<point x="208" y="652"/>
			<point x="244" y="668" type="curve" smooth="yes"/>
			<point x="298" y="690"/>
			<point x="339" y="659"/>
			<point x="338" y="602" type="curve" smooth="yes"/>
			<point x="337" y="573"/>
			<point x="330" y="542"/>
			<point x="319" y="516" type="curve" smooth="yes"/>
			<point x="302" y="478"/>
			<point x="280" y="443"/>
			<point x="262" y="407" type="curve" smooth="yes"/>
			<point x="239" y="361"/>
			<point x="216" y="314"/>
			<point x="195" y="267" type="curve" smooth="yes"/>
			<point x="184" y="241"/>
			<point x="183" y="213"/>
			<point x="195" y="185" type="curve" smooth="yes"/>
			<point x="203" y="167"/>
			<point x="213" y="155"/>
		</contour>
		<contour>
			<point x="216" y="-8" type="curve" smooth="yes"/>
			<point x="237" y="-17"/>
			<point x="267" y="1"/>
			<point x="272" y="22" type="curve" smooth="yes"/>
			<point x="276" y="44"/>
			<point x="263" y="57"/>
			<point x="245" y="66" type="curve" smooth="yes"/>
			<point x="207" y="84"/>
			<point x="186" y="71"/>
			<point x="173" y="16" type="curve"/>
			<point x="187" y="7"/>
			<point x="201" y="-4"/>
		</contour>
	</outline>
</glyph>
<glyph name="A" format="2">
	<advance width="654"/>
	<unicode hex="0041"/>
	<note>
		A
	</note>
	<outline>
		<contour>
			<point x="562" y="-22" type="curve"/>
			<point x="593" y="13"/>
			<point x="584" y="49"/>
			<point x="575" y="84" type="curve" smooth="yes"/>
			<point x="564" y="134"/>
			<point x="549" y="184"/>
			<point x="536" y="236" type="curve" smooth="yes"/>
			<point x="532" y="256"/>
			<point x="526" y="276"/>
			<point x="541" y="298" type="curve" smooth="yes"/>
			<point x="557" y="325"/>
			<point x="547" y="347"/>
			<point x="519" y="354" type="curve" smooth="yes"/>
			<point x="490" y="361"/>
			<point x="481" y="381"/>
			<point x="471" y="403" type="curve" smooth="yes"/>
			<point x="442" y="459"/>
			<point x="416" y="515"/>
			<point x="387" y="570" type="curve" smooth="yes"/>
			<point x="374" y="595"/>
			<point x="357" y="619"/>
			<point x="338" y="638" type="curve" smooth="yes"/>
			<point x="307" y="669"/>
			<point x="285" y="662"/>
			<point x="266" y="624" type="curve" smooth="yes"/>
			<point x="258" y="608"/>
			<point x="252" y="590"/>
			<point x="246" y="574" type="curve" smooth="yes"/>
			<point x="213" y="481"/>
			<point x="182" y="387"/>
			<point x="147" y="296" type="curve" smooth="yes"/>
			<point x="122" y="229"/>
			<point x="92" y="164"/>
			<point x="61" y="91" type="curve"/>
			<point x="30" y="29" type="line"/>
			<point x="46" y="18"/>
			<point x="51" y="15"/>
			<point x="71" y="11" type="curve" smooth="yes"/>
			<point x="105" y="5"/>
			<point x="117" y="16"/>
			<point x="131" y="59" type="curve" smooth="yes"/>
			<point x="143" y="99"/>
			<point x="168" y="140"/>
			<point x="182" y="179" type="curve"/>
			<point x="271" y="203"/>
			<point x="370" y="244"/>
			<point x="462" y="258" type="curve"/>
			<point x="472" y="236"/>
			<point x="474" y="215"/>
			<point x="481" y="192" type="curve" smooth="yes"/>
			<point x="495" y="137"/>
			<point x="509" y="83"/>
			<point x="519" y="28" type="curve" smooth="yes"/>
			<point x="524" y="-2"/>
			<point x="537" y="-20"/>
		</contour>
		<contour>
			<point x="205" y="248" type="curve"/>
			<point x="205" y="306"/>
			<point x="276" y="467"/>
			<point x="320" y="544" type="curve"/>
			<point x="370" y="483"/>
			<point x="404" y="405"/>
			<point x="430" y="332" type="curve"/>
			<point x="369" y="310"/>
			<point x="264" y="269"/>
		</contour>
	</outline>
</glyph>
<glyph name="B" format="2">
	<advance width="633"/>
	<unicode hex="0042"/>
	<note>
		B
	</note>
	<outline>
		<contour>
			<point x="189" y="-4" type="curve" smooth="yes"/>
			<point x="229" y="-11" type="line"/>
			<point x="279" y="7"/>
			<point x="329" y="23"/>
			<point x="377" y="42" type="curve" smooth="yes"/>
			<point x="406" y="52"/>
			<point x="434" y="65"/>
			<point x="462" y="80" type="curve" smooth="yes"/>
			<point x="503" y="100"/>
			<point x="536" y="131"/>
			<point x="562" y="168" type="curve" smooth="yes"/>
			<point x="581" y="194"/>
			<point x="591" y="223"/>
			<point x="593" y="255" type="curve" smooth="yes"/>
			<point x="595" y="302"/>
			<point x="581" y="316"/>
			<point x="543" y="347" type="curve" smooth="yes"/>
			<point x="513" y="372"/>
			<point x="479" y="388"/>
			<point x="442" y="400" type="curve" smooth="yes"/>
			<point x="429" y="405"/>
			<point x="397" y="405"/>
			<point x="396" y="422" type="curve"/>
			<point x="407" y="446"/>
			<point x="443" y="479"/>
			<point x="453" y="505" type="curve" smooth="yes"/>
			<point x="488" y="593"/>
			<point x="441" y="645"/>
			<point x="346" y="667" type="curve" smooth="yes"/>
			<point x="265" y="686"/>
			<point x="183" y="692"/>
			<point x="100" y="677" type="curve"/>
			<point x="59" y="657"/>
			<point x="55" y="628"/>
			<point x="50" y="592" type="curve"/>
			<point x="78" y="493"/>
			<point x="81" y="405"/>
			<point x="89" y="305" type="curve" smooth="yes"/>
			<point x="95" y="226"/>
			<point x="98" y="118"/>
			<point x="112" y="12" type="curve" smooth="yes"/>
			<point x="113" y="6"/>
			<point x="118" y="0"/>
			<point x="122" y="-6" type="curve"/>
			<point x="145" y="-26"/>
			<point x="167" y="0"/>
		</contour>
		<contour>
			<point x="182" y="53" type="curve"/>
			<point x="178" y="62"/>
			<point x="170" y="77"/>
			<point x="170" y="83" type="curve" smooth="yes"/>
			<point x="163" y="172"/>
			<point x="156" y="262"/>
			<point x="151" y="324" type="curve" smooth="yes"/>
			<point x="147" y="384"/>
			<point x="145" y="455"/>
			<point x="134" y="500" type="curve" smooth="yes"/>
			<point x="128" y="524"/>
			<point x="120" y="562"/>
			<point x="127" y="600" type="curve"/>
			<point x="138" y="604"/>
			<point x="148" y="610"/>
			<point x="157" y="612" type="curve" smooth="yes"/>
			<point x="205" y="619"/>
			<point x="260" y="616"/>
			<point x="308" y="612" type="curve" smooth="yes"/>
			<point x="322" y="611"/>
			<point x="343" y="606"/>
			<point x="355" y="601" type="curve" smooth="yes"/>
			<point x="364" y="597"/>
			<point x="372" y="590"/>
			<point x="379" y="584" type="curve"/>
			<point x="401" y="549"/>
			<point x="396" y="530"/>
			<point x="376" y="498" type="curve" smooth="yes"/>
			<point x="354" y="462"/>
			<point x="320" y="431"/>
			<point x="280" y="414" type="curve" smooth="yes"/>
			<point x="265" y="407"/>
			<point x="249" y="398"/>
			<point x="236" y="388" type="curve" smooth="yes"/>
			<point x="224" y="381"/>
			<point x="217" y="369"/>
			<point x="209" y="361" type="curve"/>
			<point x="208" y="327"/>
			<point x="210" y="328"/>
			<point x="236" y="320" type="curve"/>
			<point x="342" y="359" type="line"/>
			<point x="406" y="376"/>
			<point x="462" y="332"/>
			<point x="479" y="319" type="curve" smooth="yes"/>
			<point x="545" y="269"/>
			<point x="510" y="198"/>
			<point x="462" y="161" type="curve" smooth="yes"/>
			<point x="445" y="148"/>
			<point x="429" y="133"/>
			<point x="410" y="125" type="curve" smooth="yes"/>
			<point x="348" y="96"/>
			<point x="283" y="71"/>
			<point x="217" y="53" type="curve" smooth="yes"/>
			<point x="207" y="51"/>
			<point x="190" y="53"/>
		</contour>
	</outline>
</glyph>
<glyph name="C" format="2">
	<advance width="711"/>
	<unicode hex="0043"/>
	<note>
		C.alt2
	</note>
	<outline>
		<contour>
			<point x="448" y="24" type="curve" smooth="yes"/>
			<point x="532" y="52"/>
			<point x="609" y="94"/>
			<point x="665" y="165" type="curve" smooth="yes"/>
			<point x="694" y="201"/>
			<point x="683" y="218"/>
			<point x="631" y="203" type="curve" smooth="yes"/>
			<point x="624" y="201"/>
			<point x="618" y="192"/>
			<point x="612" y="187" type="curve" smooth="yes"/>
			<point x="540" y="130"/>
			<point x="459" y="92"/>
			<point x="370" y="68" type="curve" smooth="yes"/>
			<point x="306" y="51"/>
			<point x="206" y="79"/>
			<point x="171" y="164" type="curve" smooth="yes"/>
			<point x="118" y="293"/>
			<point x="137" y="500"/>
			<point x="267" y="596" type="curve" smooth="yes"/>
			<point x="342" y="652"/>
			<point x="366" y="653"/>
			<point x="427" y="583" type="curve" smooth="yes"/>
			<point x="439" y="569"/>
			<point x="468" y="562"/>
			<point x="486" y="566" type="curve" smooth="yes"/>
			<point x="514" y="573"/>
			<point x="503" y="596"/>
			<point x="495" y="618" type="curve" smooth="yes"/>
			<point x="456" y="724"/>
			<point x="302" y="719"/>
			<point x="237" y="669" type="curve" smooth="yes"/>
			<point x="123" y="583"/>
			<point x="70" y="467"/>
			<point x="70" y="325" type="curve" smooth="yes"/>
			<point x="70" y="315"/>
			<point x="70" y="305"/>
			<point x="71" y="295" type="curve" smooth="yes"/>
			<point x="79" y="183"/>
			<point x="117" y="85"/>
			<point x="219" y="27" type="curve" smooth="yes"/>
			<point x="293" y="-15"/>
			<point x="372" y="-2"/>
		</contour>
	</outline>
</glyph>
<glyph name="D" format="2">
	<advance width="700"/>
	<unicode hex="0044"/>
	<note>
		D
	</note>
	<outline>
		<contour>
			<point x="288" y="-31" type="curve" smooth="yes"/>
			<point x="299" y="-29"/>
			<point x="309" y="-25"/>
			<point x="319" y="-20" type="curve" smooth="yes"/>
			<point x="418" y="31"/>
			<point x="504" y="98"/>
			<point x="571" y="187" type="curve" smooth="yes"/>
			<point x="627" y="259"/>
			<point x="643" y="311"/>
			<point x="619" y="396" type="curve" smooth="yes"/>
			<point x="602" y="458"/>
			<point x="554" y="509"/>
			<point x="503" y="553" type="curve" smooth="yes"/>
			<point x="422" y="624"/>
			<point x="327" y="671"/>
			<point x="234" y="722" type="curve" smooth="yes"/>
			<point x="212" y="734"/>
			<point x="186" y="741"/>
			<point x="162" y="745" type="curve" smooth="yes"/>
			<point x="141" y="748"/>
			<point x="118" y="746"/>
			<point x="97" y="741" type="curve" smooth="yes"/>
			<point x="89" y="740"/>
			<point x="75" y="727"/>
			<point x="71" y="713" type="curve"/>
			<point x="71" y="706"/>
			<point x="75" y="703"/>
			<point x="91" y="697" type="curve"/>
			<point x="149" y="693"/>
			<point x="203" y="649"/>
			<point x="216" y="640" type="curve"/>
			<point x="199" y="452"/>
			<point x="213" y="333"/>
			<point x="203" y="142" type="curve"/>
			<point x="190" y="109"/>
			<point x="168" y="78"/>
			<point x="164" y="36" type="curve"/>
			<point x="172" y="3"/>
			<point x="189" y="-15"/>
			<point x="213" y="-28" type="curve" smooth="yes"/>
			<point x="238" y="-39"/>
			<point x="264" y="-37"/>
		</contour>
		<contour>
			<point x="281" y="55" type="curve"/>
			<point x="279" y="61"/>
			<point x="273" y="67"/>
			<point x="273" y="73" type="curve"/>
			<point x="267" y="121"/>
			<point x="268" y="516"/>
			<point x="272" y="592" type="curve"/>
			<point x="273" y="606"/>
			<point x="274" y="604"/>
			<point x="279" y="610" type="curve"/>
			<point x="282" y="612"/>
			<point x="284" y="617"/>
			<point x="298" y="613" type="curve"/>
			<point x="372" y="584"/>
			<point x="435" y="535"/>
			<point x="493" y="480" type="curve" smooth="yes"/>
			<point x="511" y="462"/>
			<point x="523" y="439"/>
			<point x="535" y="417" type="curve" smooth="yes"/>
			<point x="553" y="384"/>
			<point x="565" y="359"/>
			<point x="565" y="311" type="curve"/>
			<point x="558" y="255"/>
			<point x="524" y="214"/>
			<point x="462" y="155" type="curve" smooth="yes"/>
			<point x="423" y="116"/>
			<point x="373" y="79"/>
			<point x="323" y="55" type="curve" smooth="yes"/>
			<point x="309" y="49"/>
			<point x="296" y="46"/>
		</contour>
	</outline>
</glyph>
<glyph name="E" format="2">
	<advance width="584"/>
	<unicode hex="0045"/>
	<note>
		E
	</note>
	<outline>
		<contour>
			<point x="300" y="6" type="curve" smooth="yes"/>
			<point x="327" y="13"/>
			<point x="355" y="18"/>
			<point x="380" y="30" type="curve" smooth="yes"/>
			<point x="424" y="51"/>
			<point x="467" y="74"/>
			<point x="507" y="99" type="curve" smooth="yes"/>
			<point x="517" y="104"/>
			<point x="526" y="129"/>
			<point x="523" y="132" type="curve" smooth="yes"/>
			<point x="512" y="145"/>
			<point x="495" y="145"/>
			<point x="480" y="144" type="curve" smooth="yes"/>
			<point x="464" y="144"/>
			<point x="448" y="131"/>
			<point x="431" y="122" type="curve" smooth="yes"/>
			<point x="395" y="107"/>
			<point x="359" y="86"/>
			<point x="321" y="74" type="curve" smooth="yes"/>
			<point x="232" y="45"/>
			<point x="186" y="129"/>
			<point x="186" y="210" type="curve" smooth="yes"/>
			<point x="185" y="231"/>
			<point x="188" y="252"/>
			<point x="190" y="274" type="curve"/>
			<point x="204" y="278"/>
			<point x="214" y="282"/>
			<point x="225" y="287" type="curve" smooth="yes"/>
			<point x="289" y="309"/>
			<point x="354" y="329"/>
			<point x="417" y="353" type="curve" smooth="yes"/>
			<point x="439" y="362"/>
			<point x="461" y="376"/>
			<point x="477" y="394" type="curve" smooth="yes"/>
			<point x="485" y="403"/>
			<point x="488" y="426"/>
			<point x="483" y="437" type="curve" smooth="yes"/>
			<point x="476" y="455"/>
			<point x="457" y="463"/>
			<point x="437" y="453" type="curve" smooth="yes"/>
			<point x="425" y="447"/>
			<point x="414" y="436"/>
			<point x="403" y="429" type="curve" smooth="yes"/>
			<point x="339" y="386"/>
			<point x="269" y="371"/>
			<point x="187" y="362" type="curve"/>
			<point x="215" y="597" type="line"/>
			<point x="249" y="600"/>
			<point x="281" y="603"/>
			<point x="312" y="605" type="curve" smooth="yes"/>
			<point x="377" y="613"/>
			<point x="442" y="616"/>
			<point x="508" y="623" type="curve" smooth="yes"/>
			<point x="547" y="628"/>
			<point x="551" y="643"/>
			<point x="536" y="692" type="curve"/>
			<point x="522" y="691"/>
			<point x="505" y="691"/>
			<point x="489" y="690" type="curve" smooth="yes"/>
			<point x="368" y="678"/>
			<point x="247" y="669"/>
			<point x="125" y="687" type="curve" smooth="yes"/>
			<point x="113" y="689"/>
			<point x="97" y="688"/>
			<point x="85" y="684" type="curve" smooth="yes"/>
			<point x="56" y="672"/>
			<point x="52" y="643"/>
			<point x="76" y="625" type="curve" smooth="yes"/>
			<point x="89" y="616"/>
			<point x="120" y="613"/>
			<point x="145" y="605" type="curve"/>
			<point x="138" y="551"/>
			<point x="134" y="500"/>
			<point x="127" y="448" type="curve" smooth="yes"/>
			<point x="111" y="353"/>
			<point x="105" y="258"/>
			<point x="120" y="161" type="curve" smooth="yes"/>
			<point x="137" y="55"/>
			<point x="224" y="-15"/>
		</contour>
	</outline>
</glyph>
<glyph name="G" format="2">
	<advance width="660"/>
	<unicode hex="0047"/>
	<note>
		G
	</note>
	<outline>
		<contour>
			<point x="264" y="-7" type="curve" smooth="yes"/>
			<point x="397" y="-6"/>
			<point x="489" y="70"/>
			<point x="546" y="119" type="curve" smooth="yes"/>
			<point x="566" y="137"/>
			<point x="585" y="169"/>
			<point x="600" y="189" type="curve" smooth="yes"/>
			<point x="628" y="227"/>
			<point x="627" y="265"/>
			<point x="590" y="296" type="curve" smooth="yes"/>
			<point x="546" y="333"/>
			<point x="496" y="329"/>
			<point x="444" y="324" type="curve" smooth="yes"/>
			<point x="373" y="318"/>
			<point x="355" y="318"/>
			<point x="285" y="312" type="curve" smooth="yes"/>
			<point x="267" y="310"/>
			<point x="251" y="296"/>
			<point x="234" y="288" type="curve"/>
			<point x="249" y="273"/>
			<point x="265" y="247"/>
			<point x="280" y="247" type="curve" smooth="yes"/>
			<point x="361" y="247"/>
			<point x="389" y="255"/>
			<point x="470" y="260" type="curve" smooth="yes"/>
			<point x="500" y="261"/>
			<point x="519" y="260"/>
			<point x="563" y="260" type="curve"/>
			<point x="555" y="226"/>
			<point x="531" y="195"/>
			<point x="519" y="184" type="curve" smooth="yes"/>
			<point x="435" y="105"/>
			<point x="407" y="74"/>
			<point x="293" y="55" type="curve" smooth="yes"/>
			<point x="272" y="52"/>
			<point x="246" y="57"/>
			<point x="225" y="66" type="curve" smooth="yes"/>
			<point x="150" y="99"/>
			<point x="118" y="193"/>
			<point x="164" y="280" type="curve" smooth="yes"/>
			<point x="230" y="405"/>
			<point x="338" y="511"/>
			<point x="481" y="553" type="curve" smooth="yes"/>
			<point x="496" y="558"/>
			<point x="519" y="582"/>
			<point x="519" y="597" type="curve"/>
			<point x="519" y="615"/>
			<point x="489" y="632"/>
			<point x="477" y="630" type="curve" smooth="yes"/>
			<point x="438" y="622"/>
			<point x="384" y="604"/>
			<point x="350" y="583" type="curve" smooth="yes"/>
			<point x="303" y="553"/>
			<point x="259" y="516"/>
			<point x="219" y="476" type="curve" smooth="yes"/>
			<point x="142" y="396"/>
			<point x="72" y="314"/>
			<point x="70" y="189" type="curve" smooth="yes"/>
			<point x="69" y="105"/>
			<point x="187" y="-7"/>
		</contour>
	</outline>
</glyph>
<glyph name="H" format="2">
	<advance width="653"/>
	<unicode hex="0048"/>
	<note>
		H.alt1
	</note>
	<outline>
		<contour>
			<point x="517" y="-40" type="curve"/>
			<point x="524" y="-22"/>
			<point x="534" y="-5"/>
			<point x="534" y="12" type="curve" smooth="yes"/>
			<point x="534" y="100"/>
			<point x="531" y="187"/>
			<point x="529" y="275" type="curve" smooth="yes"/>
			<point x="528" y="325"/>
			<point x="503" y="363"/>
			<point x="599" y="351" type="curve"/>
			<point x="615" y="417"/>
			<point x="573" y="426"/>
			<point x="539" y="424" type="curve"/>
			<point x="522" y="487"/>
			<point x="511" y="545"/>
			<point x="501" y="598" type="curve" smooth="yes"/>
			<point x="498" y="612"/>
			<point x="462" y="656"/>
			<point x="441" y="622" type="curve"/>
			<point x="439" y="606"/>
			<point x="435" y="588"/>
			<point x="437" y="572" type="curve" smooth="yes"/>
			<point x="440" y="551"/>
			<point x="449" y="531"/>
			<point x="454" y="510" type="curve"/>
			<point x="470" y="413"/>
			<point x="490" y="399"/>
			<point x="368" y="399" type="curve" smooth="yes"/>
			<point x="297" y="399"/>
			<point x="227" y="393"/>
			<point x="154" y="391" type="curve"/>
			<point x="156" y="442"/>
			<point x="158" y="478"/>
			<point x="160" y="515" type="curve" smooth="yes"/>
			<point x="162" y="559"/>
			<point x="171" y="604"/>
			<point x="164" y="648" type="curve" smooth="yes"/>
			<point x="161" y="668"/>
			<point x="148" y="698"/>
			<point x="121" y="702" type="curve"/>
			<point x="98" y="702"/>
			<point x="96" y="664"/>
			<point x="92" y="645" type="curve"/>
			<point x="89" y="609"/>
			<point x="96" y="572"/>
			<point x="92" y="536" type="curve" smooth="yes"/>
			<point x="90" y="498"/>
			<point x="98" y="445"/>
			<point x="76" y="427" type="curve" smooth="yes"/>
			<point x="38" y="396"/>
			<point x="48" y="378"/>
			<point x="65" y="348" type="curve"/>
			<point x="73" y="330"/>
			<point x="77" y="306"/>
			<point x="75" y="287" type="curve" smooth="yes"/>
			<point x="67" y="221"/>
			<point x="55" y="153"/>
			<point x="51" y="87" type="curve" smooth="yes"/>
			<point x="49" y="64"/>
			<point x="55" y="22"/>
			<point x="78" y="16" type="curve"/>
			<point x="99" y="24"/>
			<point x="111" y="53"/>
			<point x="114" y="75" type="curve"/>
			<point x="129" y="140"/>
			<point x="132" y="205"/>
			<point x="143" y="269" type="curve" smooth="yes"/>
			<point x="145" y="285"/>
			<point x="161" y="308"/>
			<point x="172" y="310" type="curve" smooth="yes"/>
			<point x="264" y="322"/>
			<point x="358" y="329"/>
			<point x="462" y="337" type="curve"/>
			<point x="459" y="304"/>
			<point x="456" y="280"/>
			<point x="458" y="255" type="curve" smooth="yes"/>
			<point x="463" y="168"/>
			<point x="469" y="81"/>
			<point x="480" y="-6" type="curve" smooth="yes"/>
			<point x="482" y="-18"/>
			<point x="499" y="-28"/>
		</contour>
	</outline>
</glyph>
<glyph name="J" format="2">
	<advance width="581"/>
	<unicode hex="004A"/>
	<note>
		J
	</note>
	<outline>
		<contour>
			<point x="293" y="600" type="curve"/>
			<point x="245" y="588"/>
			<point x="211" y="574"/>
			<point x="176" y="571" type="curve" smooth="yes"/>
			<point x="157" y="569"/>
			<point x="130" y="580"/>
			<point x="117" y="594" type="curve" smooth="yes"/>
			<point x="95" y="619"/>
			<point x="108" y="641"/>
			<point x="142" y="646" type="curve" smooth="yes"/>
			<point x="255" y="659"/>
			<point x="368" y="675"/>
			<point x="481" y="687" type="curve" smooth="yes"/>
			<point x="499" y="689"/>
			<point x="521" y="681"/>
			<point x="537" y="671" type="curve" smooth="yes"/>
			<point x="543" y="667"/>
			<point x="542" y="636"/>
			<point x="535" y="629" type="curve" smooth="yes"/>
			<point x="522" y="618"/>
			<point x="502" y="613"/>
			<point x="485" y="612" type="curve" smooth="yes"/>
			<point x="448" y="610"/>
			<point x="410" y="611"/>
			<point x="373" y="611" type="curve"/>
			<point x="374" y="576"/>
			<point x="376" y="541"/>
			<point x="377" y="506" type="curve" smooth="yes"/>
			<point x="378" y="379"/>
			<point x="378" y="253"/>
			<point x="381" y="126" type="curve" smooth="yes"/>
			<point x="383" y="38"/>
			<point x="327" y="2"/>
			<point x="251" y="1" type="curve" smooth="yes"/>
			<point x="197" y="1"/>
			<point x="145" y="8"/>
			<point x="91" y="15" type="curve" smooth="yes"/>
			<point x="82" y="16"/>
			<point x="68" y="21"/>
			<point x="63" y="28" type="curve" smooth="yes"/>
			<point x="54" y="44"/>
			<point x="47" y="62"/>
			<point x="40" y="79" type="curve"/>
			<point x="57" y="80"/>
			<point x="75" y="83"/>
			<point x="91" y="81" type="curve" smooth="yes"/>
			<point x="143" y="76"/>
			<point x="193" y="69"/>
			<point x="244" y="65" type="curve" smooth="yes"/>
			<point x="284" y="62"/>
			<point x="307" y="85"/>
			<point x="309" y="123" type="curve" smooth="yes"/>
			<point x="313" y="210"/>
			<point x="318" y="296"/>
			<point x="316" y="381" type="curve" smooth="yes"/>
			<point x="313" y="453"/>
			<point x="301" y="523"/>
		</contour>
	</outline>
</glyph>
<glyph name="K" format="2">
	<advance width="705"/>
	<unicode hex="004B"/>
	<note>
		K
	</note>
	<outline>
		<contour>
			<point x="224" y="302" type="curve"/>
			<point x="191" y="277"/>
			<point x="146" y="244"/>
			<point x="156" y="169" type="curve" smooth="yes"/>
			<point x="162" y="124"/>
			<point x="179" y="0"/>
			<point x="98" y="0" type="curve" smooth="yes"/>
			<point x="65" y="0"/>
			<point x="85" y="88"/>
			<point x="84" y="115" type="curve" smooth="yes"/>
			<point x="78" y="253"/>
			<point x="77" y="391"/>
			<point x="72" y="529" type="curve" smooth="yes"/>
			<point x="70" y="565"/>
			<point x="55" y="601"/>
			<point x="50" y="637" type="curve" smooth="yes"/>
			<point x="48" y="653"/>
			<point x="58" y="670"/>
			<point x="62" y="686" type="curve"/>
			<point x="107" y="686"/>
			<point x="113" y="669"/>
			<point x="117" y="655" type="curve" smooth="yes"/>
			<point x="134" y="590"/>
			<point x="145" y="522"/>
			<point x="156" y="456" type="curve" smooth="yes"/>
			<point x="161" y="428"/>
			<point x="162" y="399"/>
			<point x="165" y="373" type="curve"/>
			<point x="236" y="433"/>
			<point x="304" y="492"/>
			<point x="373" y="549" type="curve" smooth="yes"/>
			<point x="402" y="573"/>
			<point x="433" y="596"/>
			<point x="466" y="612" type="curve" smooth="yes"/>
			<point x="482" y="619"/>
			<point x="526" y="628"/>
			<point x="526" y="608" type="curve" smooth="yes"/>
			<point x="526" y="588"/>
			<point x="522" y="562"/>
			<point x="510" y="551" type="curve" smooth="yes"/>
			<point x="458" y="504"/>
			<point x="403" y="462"/>
			<point x="349" y="419" type="curve" smooth="yes"/>
			<point x="293" y="374"/>
			<point x="290" y="358"/>
			<point x="343" y="309" type="curve" smooth="yes"/>
			<point x="455" y="208"/>
			<point x="531" y="153"/>
			<point x="672" y="96" type="curve" smooth="yes"/>
			<point x="684" y="91"/>
			<point x="697" y="69"/>
			<point x="697" y="52" type="curve" smooth="yes"/>
			<point x="697" y="32"/>
			<point x="653" y="36"/>
			<point x="638" y="44" type="curve" smooth="yes"/>
			<point x="571" y="75"/>
			<point x="555" y="82"/>
			<point x="490" y="119" type="curve" smooth="yes"/>
			<point x="440" y="147"/>
			<point x="390" y="177"/>
			<point x="342" y="209" type="curve" smooth="yes"/>
			<point x="302" y="236"/>
			<point x="266" y="269"/>
		</contour>
	</outline>
</glyph>
<glyph name="L" format="2">
	<advance width="616"/>
	<unicode hex="004C"/>
	<note>
		L
	</note>
	<outline>
		<contour>
			<point x="227" y="-38" type="curve" smooth="yes"/>
			<point x="348" y="-21"/>
			<point x="467" y="6"/>
			<point x="587" y="31" type="curve" smooth="yes"/>
			<point x="595" y="33"/>
			<point x="608" y="51"/>
			<point x="606" y="58" type="curve" smooth="yes"/>
			<point x="603" y="69"/>
			<point x="590" y="84"/>
			<point x="579" y="86" type="curve" smooth="yes"/>
			<point x="556" y="88"/>
			<point x="531" y="86"/>
			<point x="507" y="81" type="curve" smooth="yes"/>
			<point x="424" y="65"/>
			<point x="340" y="46"/>
			<point x="257" y="29" type="curve" smooth="yes"/>
			<point x="214" y="21"/>
			<point x="187" y="41"/>
			<point x="178" y="82" type="curve" smooth="yes"/>
			<point x="169" y="126"/>
			<point x="160" y="170"/>
			<point x="158" y="215" type="curve" smooth="yes"/>
			<point x="155" y="300"/>
			<point x="157" y="386"/>
			<point x="157" y="471" type="curve"/>
			<point x="165" y="541"/>
			<point x="166" y="552"/>
			<point x="152" y="621" type="curve" smooth="yes"/>
			<point x="145" y="654"/>
			<point x="129" y="687"/>
			<point x="109" y="715" type="curve" smooth="yes"/>
			<point x="101" y="727"/>
			<point x="72" y="723"/>
			<point x="53" y="727" type="curve"/>
			<point x="53" y="707"/>
			<point x="48" y="686"/>
			<point x="52" y="666" type="curve" smooth="yes"/>
			<point x="56" y="647"/>
			<point x="73" y="630"/>
			<point x="75" y="611" type="curve" smooth="yes"/>
			<point x="82" y="551"/>
			<point x="85" y="492"/>
			<point x="87" y="432" type="curve" smooth="yes"/>
			<point x="92" y="322"/>
			<point x="90" y="210"/>
			<point x="101" y="100" type="curve" smooth="yes"/>
			<point x="108" y="22"/>
			<point x="170" y="-46"/>
		</contour>
	</outline>
</glyph>
<glyph name="M" format="2">
	<advance width="877"/>
	<unicode hex="004D"/>
	<note>
		M
	</note>
	<outline>
		<contour>
			<point x="815" y="-1" type="curve"/>
			<point x="830" y="14"/>
			<point x="828" y="37"/>
			<point x="825" y="55" type="curve" smooth="yes"/>
			<point x="808" y="149"/>
			<point x="786" y="243"/>
			<point x="770" y="338" type="curve" smooth="yes"/>
			<point x="753" y="439"/>
			<point x="722" y="535"/>
			<point x="659" y="617" type="curve" smooth="yes"/>
			<point x="612" y="679"/>
			<point x="545" y="677"/>
			<point x="502" y="614" type="curve" smooth="yes"/>
			<point x="474" y="573"/>
			<point x="451" y="528"/>
			<point x="432" y="483" type="curve" smooth="yes"/>
			<point x="414" y="441"/>
			<point x="403" y="395"/>
			<point x="389" y="351" type="curve"/>
			<point x="377" y="348" type="line"/>
			<point x="356" y="393"/>
			<point x="338" y="439"/>
			<point x="313" y="481" type="curve" smooth="yes"/>
			<point x="274" y="547"/>
			<point x="233" y="612"/>
			<point x="186" y="672" type="curve" smooth="yes"/>
			<point x="173" y="689"/>
			<point x="137" y="691"/>
			<point x="111" y="692" type="curve" smooth="yes"/>
			<point x="106" y="692"/>
			<point x="95" y="657"/>
			<point x="94" y="638" type="curve" smooth="yes"/>
			<point x="92" y="613"/>
			<point x="97" y="587"/>
			<point x="98" y="562" type="curve" smooth="yes"/>
			<point x="103" y="411"/>
			<point x="88" y="262"/>
			<point x="53" y="115" type="curve" smooth="yes"/>
			<point x="46" y="86"/>
			<point x="49" y="64"/>
			<point x="76" y="57" type="curve" smooth="yes"/>
			<point x="105" y="49"/>
			<point x="121" y="71"/>
			<point x="124" y="98" type="curve" smooth="yes"/>
			<point x="136" y="194"/>
			<point x="151" y="290"/>
			<point x="158" y="386" type="curve" smooth="yes"/>
			<point x="164" y="455"/>
			<point x="159" y="536"/>
			<point x="159" y="606" type="curve"/>
			<point x="191" y="574"/>
			<point x="203" y="551"/>
			<point x="212" y="535" type="curve" smooth="yes"/>
			<point x="255" y="459"/>
			<point x="293" y="381"/>
			<point x="331" y="302" type="curve" smooth="yes"/>
			<point x="348" y="268"/>
			<point x="371" y="233"/>
			<point x="408" y="245" type="curve" smooth="yes"/>
			<point x="429" y="251"/>
			<point x="444" y="292"/>
			<point x="452" y="320" type="curve" smooth="yes"/>
			<point x="477" y="401"/>
			<point x="492" y="486"/>
			<point x="546" y="555" type="curve" smooth="yes"/>
			<point x="582" y="602"/>
			<point x="607" y="602"/>
			<point x="630" y="547" type="curve" smooth="yes"/>
			<point x="658" y="477"/>
			<point x="681" y="405"/>
			<point x="701" y="332" type="curve" smooth="yes"/>
			<point x="728" y="233"/>
			<point x="749" y="132"/>
			<point x="776" y="33" type="curve" smooth="yes"/>
			<point x="780" y="19"/>
			<point x="790" y="0"/>
		</contour>
	</outline>
</glyph>
<glyph name="N" format="2">
	<advance width="666"/>
	<unicode hex="004E"/>
	<note>
		N
	</note>
	<outline>
		<contour>
			<point x="94" y="6" type="curve" smooth="yes"/>
			<point x="131" y="2"/>
			<point x="135" y="33"/>
			<point x="137" y="61" type="curve" smooth="yes"/>
			<point x="143" y="141"/>
			<point x="147" y="222"/>
			<point x="155" y="302" type="curve" smooth="yes"/>
			<point x="163" y="387"/>
			<point x="166" y="361"/>
			<point x="178" y="468" type="curve"/>
			<point x="195" y="450"/>
			<point x="223" y="434"/>
			<point x="246" y="408" type="curve" smooth="yes"/>
			<point x="349" y="291"/>
			<point x="421" y="170"/>
			<point x="511" y="41" type="curve" smooth="yes"/>
			<point x="522" y="26"/>
			<point x="549" y="13"/>
			<point x="567" y="14" type="curve" smooth="yes"/>
			<point x="579" y="14"/>
			<point x="598" y="43"/>
			<point x="598" y="60" type="curve" smooth="yes"/>
			<point x="601" y="212"/>
			<point x="601" y="364"/>
			<point x="601" y="516" type="curve" smooth="yes"/>
			<point x="601" y="543"/>
			<point x="602" y="572"/>
			<point x="593" y="596" type="curve" smooth="yes"/>
			<point x="584" y="616"/>
			<point x="561" y="645"/>
			<point x="544" y="645" type="curve"/>
			<point x="537" y="627"/>
			<point x="524" y="610"/>
			<point x="524" y="592" type="curve" smooth="yes"/>
			<point x="525" y="496"/>
			<point x="530" y="399"/>
			<point x="532" y="302" type="curve" smooth="yes"/>
			<point x="534" y="254"/>
			<point x="533" y="205"/>
			<point x="533" y="156" type="curve"/>
			<point x="526" y="139" type="line"/>
			<point x="512" y="160"/>
			<point x="487" y="196"/>
			<point x="471" y="218" type="curve" smooth="yes"/>
			<point x="394" y="322"/>
			<point x="319" y="428"/>
			<point x="238" y="529" type="curve" smooth="yes"/>
			<point x="220" y="552"/>
			<point x="177" y="573"/>
			<point x="152" y="567" type="curve" smooth="yes"/>
			<point x="131" y="563"/>
			<point x="110" y="518"/>
			<point x="106" y="489" type="curve" smooth="yes"/>
			<point x="84" y="349"/>
			<point x="70" y="208"/>
			<point x="51" y="68" type="curve" smooth="yes"/>
			<point x="46" y="31"/>
			<point x="63" y="10"/>
		</contour>
	</outline>
</glyph>
<glyph name="O" format="2">
	<advance width="675"/>
	<unicode hex="004F"/>
	<note>
		O
	</note>
	<outline>
		<contour>
			<point x="313" y="-1" type="curve"/>
			<point x="323" y="2"/>
			<point x="342" y="5"/>
			<point x="360" y="13" type="curve" smooth="yes"/>
			<point x="482" y="66"/>
			<point x="558" y="154"/>
			<point x="594" y="286" type="curve" smooth="yes"/>
			<point x="639" y="450"/>
			<point x="543" y="619"/>
			<point x="407" y="668" type="curve" smooth="yes"/>
			<point x="330" y="696"/>
			<point x="244" y="695"/>
			<point x="184" y="616" type="curve" smooth="yes"/>
			<point x="92" y="495"/>
			<point x="60" y="363"/>
			<point x="72" y="214" type="curve" smooth="yes"/>
			<point x="84" y="76"/>
			<point x="177" y="10"/>
		</contour>
		<contour>
			<point x="372" y="93" type="curve" smooth="yes"/>
			<point x="258" y="20"/>
			<point x="150" y="84"/>
			<point x="144" y="225" type="curve" smooth="yes"/>
			<point x="144" y="243"/>
			<point x="146" y="261"/>
			<point x="147" y="279" type="curve" smooth="yes"/>
			<point x="153" y="392"/>
			<point x="174" y="500"/>
			<point x="266" y="578" type="curve" smooth="yes"/>
			<point x="360" y="657"/>
			<point x="449" y="635"/>
			<point x="505" y="525" type="curve" smooth="yes"/>
			<point x="595" y="352"/>
			<point x="508" y="181"/>
		</contour>
	</outline>
</glyph>
<glyph name="Q" format="2">
	<advance width="740"/>
	<unicode hex="0051"/>
	<note>
		Q
	</note>
	<outline>
		<contour>
			<point x="488" y="138" type="curve" smooth="yes"/>
			<point x="561" y="196"/>
			<point x="610" y="277"/>
			<point x="639" y="368" type="curve" smooth="yes"/>
			<point x="668" y="463"/>
			<point x="654" y="548"/>
			<point x="580" y="619" type="curve" smooth="yes"/>
			<point x="504" y="695"/>
			<point x="369" y="738"/>
			<point x="290" y="696" type="curve" smooth="yes"/>
			<point x="246" y="672"/>
			<point x="211" y="629"/>
			<point x="171" y="594" type="curve"/>
			<point x="186" y="628"/>
			<point x="179" y="656"/>
			<point x="139" y="668" type="curve" smooth="yes"/>
			<point x="98" y="680"/>
			<point x="98" y="644"/>
			<point x="90" y="618" type="curve" smooth="yes"/>
			<point x="49" y="481"/>
			<point x="75" y="347"/>
			<point x="141" y="227" type="curve" smooth="yes"/>
			<point x="214" y="94"/>
			<point x="380" y="54"/>
		</contour>
		<contour>
			<point x="291" y="-8" type="curve" smooth="yes"/>
			<point x="371" y="6"/>
			<point x="450" y="19"/>
			<point x="530" y="31" type="curve" smooth="yes"/>
			<point x="576" y="40"/>
			<point x="622" y="46"/>
			<point x="668" y="53" type="curve"/>
			<point x="669" y="60"/>
			<point x="670" y="67"/>
			<point x="670" y="74" type="curve"/>
			<point x="657" y="82"/>
			<point x="644" y="97"/>
			<point x="632" y="96" type="curve" smooth="yes"/>
			<point x="486" y="87"/>
			<point x="340" y="76"/>
			<point x="195" y="62" type="curve" smooth="yes"/>
			<point x="189" y="61"/>
			<point x="177" y="27"/>
			<point x="182" y="18" type="curve" smooth="yes"/>
			<point x="209" y="-26"/>
			<point x="251" y="-15"/>
		</contour>
		<contour>
			<point x="444" y="183" type="curve" smooth="yes"/>
			<point x="353" y="117"/>
			<point x="222" y="165"/>
			<point x="183" y="277" type="curve" smooth="yes"/>
			<point x="161" y="341"/>
			<point x="147" y="401"/>
			<point x="139" y="477" type="curve"/>
			<point x="172" y="494" type="line"/>
			<point x="187" y="509"/>
			<point x="203" y="524"/>
			<point x="217" y="538" type="curve" smooth="yes"/>
			<point x="252" y="578"/>
			<point x="276" y="607"/>
			<point x="318" y="636" type="curve" smooth="yes"/>
			<point x="381" y="680"/>
			<point x="446" y="655"/>
			<point x="502" y="612" type="curve" smooth="yes"/>
			<point x="566" y="564"/>
			<point x="601" y="492"/>
			<point x="583" y="416" type="curve" smooth="yes"/>
			<point x="562" y="327"/>
			<point x="518" y="237"/>
		</contour>
	</outline>
</glyph>
<glyph name="U" format="2">
	<advance width="650"/>
	<unicode hex="0055"/>
	<note>
		U
	</note>
	<outline>
		<contour>
			<point x="448" y="77" type="curve" smooth="yes"/>
			<point x="556" y="185"/>
			<point x="593" y="320"/>
			<point x="576" y="468" type="curve" smooth="yes"/>
			<point x="567" y="543"/>
			<point x="551" y="620"/>
			<point x="485" y="673" type="curve" smooth="yes"/>
			<point x="472" y="682"/>
			<point x="456" y="685"/>
			<point x="443" y="691" type="curve"/>
			<point x="467" y="618"/>
			<point x="500" y="557"/>
			<point x="507" y="492" type="curve" smooth="yes"/>
			<point x="525" y="345"/>
			<point x="501" y="206"/>
			<point x="372" y="108" type="curve" smooth="yes"/>
			<point x="277" y="35"/>
			<point x="174" y="63"/>
			<point x="148" y="180" type="curve" smooth="yes"/>
			<point x="126" y="278"/>
			<point x="133" y="380"/>
			<point x="124" y="482" type="curve" smooth="yes"/>
			<point x="123" y="497"/>
			<point x="112" y="512"/>
			<point x="106" y="528" type="curve"/>
			<point x="90" y="520"/>
			<point x="72" y="513"/>
			<point x="58" y="503" type="curve" smooth="yes"/>
			<point x="52" y="497"/>
			<point x="51" y="484"/>
			<point x="51" y="473" type="curve" smooth="yes"/>
			<point x="51" y="411"/>
			<point x="47" y="346"/>
			<point x="54" y="285" type="curve" smooth="yes"/>
			<point x="61" y="232"/>
			<point x="73" y="176"/>
			<point x="98" y="130" type="curve" smooth="yes"/>
			<point x="174" y="-18"/>
			<point x="330" y="-40"/>
		</contour>
	</outline>
</glyph>
<glyph name="V" format="2">
	<advance width="648"/>
	<unicode hex="0056"/>
	<note>
		V
	</note>
	<outline>
		<contour>
			<point x="307" y="102" type="curve"/>
			<point x="357" y="231"/>
			<point x="404" y="350"/>
			<point x="450" y="469" type="curve" smooth="yes"/>
			<point x="490" y="575"/>
			<point x="529" y="682"/>
			<point x="570" y="788" type="curve" smooth="yes"/>
			<point x="574" y="800"/>
			<point x="591" y="808"/>
			<point x="602" y="818" type="curve"/>
			<point x="608" y="805"/>
			<point x="621" y="789"/>
			<point x="618" y="779" type="curve" smooth="yes"/>
			<point x="555" y="572"/>
			<point x="491" y="365"/>
			<point x="424" y="160" type="curve" smooth="yes"/>
			<point x="410" y="117"/>
			<point x="383" y="78"/>
			<point x="357" y="42" type="curve" smooth="yes"/>
			<point x="342" y="23"/>
			<point x="313" y="-1"/>
			<point x="295" y="2" type="curve" smooth="yes"/>
			<point x="272" y="6"/>
			<point x="245" y="31"/>
			<point x="233" y="54" type="curve" smooth="yes"/>
			<point x="170" y="171"/>
			<point x="110" y="289"/>
			<point x="53" y="409" type="curve" smooth="yes"/>
			<point x="40" y="436"/>
			<point x="37" y="499"/>
			<point x="43" y="501" type="curve" smooth="yes"/>
			<point x="90" y="516"/>
			<point x="101" y="471"/>
			<point x="118" y="441" type="curve" smooth="yes"/>
			<point x="178" y="335"/>
			<point x="237" y="228"/>
		</contour>
	</outline>
</glyph>
<glyph name="W" format="2">
	<advance width="907"/>
	<unicode hex="0057"/>
	<note>
		W
	</note>
	<outline>
		<contour>
			<point x="245" y="51" type="curve" smooth="yes"/>
			<point x="279" y="-4"/>
			<point x="321" y="2"/>
			<point x="353" y="59" type="curve" smooth="yes"/>
			<point x="370" y="89"/>
			<point x="385" y="120"/>
			<point x="396" y="152" type="curve" smooth="yes"/>
			<point x="421" y="232"/>
			<point x="443" y="309"/>
			<point x="469" y="397" type="curve"/>
			<point x="483" y="387"/>
			<point x="507" y="362"/>
			<point x="513" y="352" type="curve" smooth="yes"/>
			<point x="529" y="323"/>
			<point x="532" y="326"/>
			<point x="551" y="291" type="curve" smooth="yes"/>
			<point x="594" y="212"/>
			<point x="653" y="141"/>
			<point x="711" y="73" type="curve" smooth="yes"/>
			<point x="755" y="23"/>
			<point x="800" y="36"/>
			<point x="821" y="99" type="curve" smooth="yes"/>
			<point x="832" y="131"/>
			<point x="839" y="166"/>
			<point x="841" y="199" type="curve" smooth="yes"/>
			<point x="851" y="328"/>
			<point x="860" y="457"/>
			<point x="867" y="586" type="curve" smooth="yes"/>
			<point x="867" y="604"/>
			<point x="852" y="623"/>
			<point x="844" y="641" type="curve"/>
			<point x="833" y="625"/>
			<point x="815" y="610"/>
			<point x="812" y="592" type="curve" smooth="yes"/>
			<point x="800" y="505"/>
			<point x="792" y="416"/>
			<point x="781" y="328" type="curve" smooth="yes"/>
			<point x="774" y="265"/>
			<point x="765" y="202"/>
			<point x="757" y="139" type="curve"/>
			<point x="751" y="138"/>
			<point x="745" y="136"/>
			<point x="739" y="135" type="curve"/>
			<point x="703" y="182"/>
			<point x="664" y="226"/>
			<point x="632" y="276" type="curve" smooth="yes"/>
			<point x="595" y="335"/>
			<point x="567" y="400"/>
			<point x="529" y="458" type="curve" smooth="yes"/>
			<point x="514" y="480"/>
			<point x="483" y="498"/>
			<point x="456" y="504" type="curve" smooth="yes"/>
			<point x="446" y="507"/>
			<point x="422" y="475"/>
			<point x="412" y="455" type="curve" smooth="yes"/>
			<point x="399" y="428"/>
			<point x="393" y="397"/>
			<point x="384" y="368" type="curve" smooth="yes"/>
			<point x="301" y="114" type="line"/>
			<point x="295" y="114"/>
			<point x="290" y="114"/>
			<point x="285" y="114" type="curve"/>
			<point x="276" y="128"/>
			<point x="267" y="141"/>
			<point x="260" y="156" type="curve" smooth="yes"/>
			<point x="217" y="252"/>
			<point x="175" y="349"/>
			<point x="130" y="444" type="curve" smooth="yes"/>
			<point x="115" y="475"/>
			<point x="95" y="506"/>
			<point x="71" y="531" type="curve" smooth="yes"/>
			<point x="62" y="541"/>
			<point x="38" y="536"/>
			<point x="20" y="538" type="curve"/>
			<point x="22" y="521"/>
			<point x="20" y="503"/>
			<point x="27" y="488" type="curve" smooth="yes"/>
			<point x="63" y="411"/>
			<point x="101" y="336"/>
			<point x="138" y="260" type="curve" smooth="yes"/>
			<point x="173" y="190"/>
			<point x="204" y="118"/>
		</contour>
	</outline>
</glyph>
<glyph name="X" format="2">
	<advance width="631"/>
	<unicode hex="0058"/>
	<note>
		X
	</note>
	<outline>
		<contour>
			<point x="325" y="333" type="curve"/>
			<point x="414" y="246"/>
			<point x="503" y="150"/>
			<point x="591" y="63" type="curve"/>
			<point x="562" y="39"/>
			<point x="530" y="58"/>
			<point x="502" y="83" type="curve" smooth="yes"/>
			<point x="445" y="134"/>
			<point x="390" y="173"/>
			<point x="336" y="227" type="curve" smooth="yes"/>
			<point x="320" y="243"/>
			<point x="307" y="255"/>
			<point x="280" y="284" type="curve"/>
			<point x="219" y="197"/>
			<point x="173" y="149"/>
			<point x="127" y="75" type="curve" smooth="yes"/>
			<point x="107" y="42"/>
			<point x="85" y="48"/>
			<point x="62" y="57" type="curve" smooth="yes"/>
			<point x="32" y="69"/>
			<point x="40" y="92"/>
			<point x="54" y="112" type="curve" smooth="yes"/>
			<point x="108" y="190"/>
			<point x="163" y="266"/>
			<point x="212" y="335" type="curve"/>
			<point x="158" y="394"/>
			<point x="102" y="454"/>
			<point x="49" y="516" type="curve" smooth="yes"/>
			<point x="37" y="529"/>
			<point x="32" y="547"/>
			<point x="25" y="563" type="curve"/>
			<point x="21" y="585"/>
			<point x="79" y="573"/>
			<point x="93" y="562" type="curve" smooth="yes"/>
			<point x="147" y="517"/>
			<point x="197" y="466"/>
			<point x="248" y="417" type="curve" smooth="yes"/>
			<point x="258" y="408"/>
			<point x="258" y="404"/>
			<point x="271" y="394" type="curve"/>
			<point x="350" y="471"/>
			<point x="436" y="544"/>
			<point x="516" y="617" type="curve" smooth="yes"/>
			<point x="530" y="629"/>
			<point x="561" y="622"/>
			<point x="584" y="623" type="curve"/>
			<point x="598" y="605"/>
			<point x="582" y="579"/>
			<point x="571" y="568" type="curve" smooth="yes"/>
			<point x="495" y="494"/>
			<point x="467" y="464"/>
			<point x="390" y="393" type="curve"/>
			<point x="385" y="383"/>
			<point x="330" y="342"/>
		</contour>
	</outline>
</glyph>
<glyph name="Y" format="2">
	<advance width="646"/>
	<unicode hex="0059"/>
	<note>
		Y
	</note>
	<outline>
		<contour>
			<point x="202" y="-81" type="curve" smooth="yes"/>
			<point x="228" y="-88"/>
			<point x="235" y="-72"/>
			<point x="244" y="-48" type="curve" smooth="yes"/>
			<point x="273" y="28"/>
			<point x="304" y="104"/>
			<point x="340" y="177" type="curve" smooth="yes"/>
			<point x="417" y="331"/>
			<point x="497" y="482"/>
			<point x="576" y="635" type="curve" smooth="yes"/>
			<point x="589" y="660"/>
			<point x="605" y="683"/>
			<point x="611" y="709" type="curve" smooth="yes"/>
			<point x="615" y="725"/>
			<point x="625" y="763"/>
			<point x="598" y="763" type="curve"/>
			<point x="579" y="756"/>
			<point x="559" y="751"/>
			<point x="542" y="741" type="curve" smooth="yes"/>
			<point x="534" y="737"/>
			<point x="532" y="722"/>
			<point x="527" y="712" type="curve" smooth="yes"/>
			<point x="374" y="392" type="line"/>
			<point x="313" y="442"/>
			<point x="260" y="483"/>
			<point x="209" y="526" type="curve" smooth="yes"/>
			<point x="167" y="560"/>
			<point x="127" y="598"/>
			<point x="84" y="630" type="curve" smooth="yes"/>
			<point x="73" y="637"/>
			<point x="50" y="628"/>
			<point x="33" y="627" type="curve"/>
			<point x="12" y="602"/>
			<point x="40" y="591"/>
			<point x="51" y="582" type="curve" smooth="yes"/>
			<point x="137" y="513"/>
			<point x="223" y="443"/>
			<point x="313" y="378" type="curve" smooth="yes"/>
			<point x="343" y="357"/>
			<point x="346" y="344"/>
			<point x="329" y="314" type="curve" smooth="yes"/>
			<point x="291" y="247"/>
			<point x="255" y="178"/>
			<point x="222" y="109" type="curve" smooth="yes"/>
			<point x="201" y="66"/>
			<point x="186" y="20"/>
			<point x="169" y="-26" type="curve" smooth="yes"/>
			<point x="159" y="-55"/>
			<point x="177" y="-73"/>
		</contour>
	</outline>
</glyph>
<glyph name="Z" format="2">
	<advance width="754"/>
	<unicode hex="005A"/>
	<note>
		Z
	</note>
	<outline>
		<contour>
			<point x="220" y="6" type="curve" smooth="yes"/>
			<point x="285" y="18"/>
			<point x="349" y="33"/>
			<point x="415" y="42" type="curve" smooth="yes"/>
			<point x="506" y="54"/>
			<point x="597" y="61"/>
			<point x="688" y="74" type="curve" smooth="yes"/>
			<point x="706" y="77"/>
			<point x="733" y="96"/>
			<point x="734" y="109" type="curve" smooth="yes"/>
			<point x="737" y="138"/>
			<point x="713" y="147"/>
			<point x="684" y="144" type="curve" smooth="yes"/>
			<point x="614" y="136"/>
			<point x="544" y="130"/>
			<point x="474" y="122" type="curve" smooth="yes"/>
			<point x="410" y="115"/>
			<point x="347" y="107"/>
			<point x="271" y="97" type="curve"/>
			<point x="294" y="130"/>
			<point x="308" y="153"/>
			<point x="324" y="175" type="curve" smooth="yes"/>
			<point x="399" y="271"/>
			<point x="476" y="366"/>
			<point x="548" y="465" type="curve" smooth="yes"/>
			<point x="568" y="492"/>
			<point x="578" y="529"/>
			<point x="586" y="563" type="curve" smooth="yes"/>
			<point x="590" y="579"/>
			<point x="581" y="601"/>
			<point x="571" y="615" type="curve" smooth="yes"/>
			<point x="545" y="648"/>
			<point x="510" y="628"/>
			<point x="478" y="628" type="curve" smooth="yes"/>
			<point x="350" y="628"/>
			<point x="223" y="632"/>
			<point x="96" y="637" type="curve" smooth="yes"/>
			<point x="67" y="638"/>
			<point x="48" y="627"/>
			<point x="50" y="603" type="curve" smooth="yes"/>
			<point x="51" y="589"/>
			<point x="75" y="568"/>
			<point x="90" y="566" type="curve" smooth="yes"/>
			<point x="152" y="562"/>
			<point x="215" y="563"/>
			<point x="278" y="563" type="curve" smooth="yes"/>
			<point x="353" y="563"/>
			<point x="427" y="563"/>
			<point x="513" y="563" type="curve"/>
			<point x="500" y="534"/>
			<point x="495" y="518"/>
			<point x="487" y="506" type="curve" smooth="yes"/>
			<point x="391" y="364"/>
			<point x="293" y="223"/>
			<point x="172" y="99" type="curve" smooth="yes"/>
			<point x="158" y="85"/>
			<point x="160" y="47"/>
			<point x="165" y="21" type="curve" smooth="yes"/>
			<point x="171" y="-12"/>
			<point x="199" y="3"/>
		</contour>
	</outline>
</glyph>
<glyph name="bracketleft" format="2">
	<advance width="454"/>
	<unicode hex="005B"/>
	<note>
		bracketleft
	</note>
	<outline>
		<contour>
			<point x="133" y="-128" type="curve" smooth="yes"/>
			<point x="164" y="-124"/>
			<point x="196" y="-125"/>
			<point x="228" y="-123" type="curve" smooth="yes"/>
			<point x="284" y="-119"/>
			<point x="340" y="-113"/>
			<point x="396" y="-105" type="curve" smooth="yes"/>
			<point x="407" y="-103"/>
			<point x="415" y="-83"/>
			<point x="424" y="-71" type="curve"/>
			<point x="413" y="-66"/>
			<point x="401" y="-56"/>
			<point x="390" y="-56" type="curve" smooth="yes"/>
			<point x="332" y="-58"/>
			<point x="274" y="-64"/>
			<point x="218" y="-66" type="curve" smooth="yes"/>
			<point x="144" y="-69"/>
			<point x="129" y="-56"/>
			<point x="125" y="18" type="curve" smooth="yes"/>
			<point x="119" y="116"/>
			<point x="115" y="214"/>
			<point x="109" y="350" type="curve"/>
			<point x="109" y="586" type="line" smooth="yes"/>
			<point x="109" y="649"/>
			<point x="128" y="669"/>
			<point x="191" y="668" type="curve" smooth="yes"/>
			<point x="211" y="667"/>
			<point x="232" y="658"/>
			<point x="252" y="657" type="curve" smooth="yes"/>
			<point x="268" y="656"/>
			<point x="296" y="659"/>
			<point x="300" y="668" type="curve" smooth="yes"/>
			<point x="308" y="688"/>
			<point x="295" y="704"/>
			<point x="271" y="712" type="curve" smooth="yes"/>
			<point x="201" y="737"/>
			<point x="131" y="724"/>
			<point x="62" y="711" type="curve" smooth="yes"/>
			<point x="52" y="709"/>
			<point x="40" y="683"/>
			<point x="40" y="669" type="curve" smooth="yes"/>
			<point x="49" y="420"/>
			<point x="60" y="171"/>
			<point x="71" y="-78" type="curve" smooth="yes"/>
			<point x="72" y="-112"/>
			<point x="100" y="-132"/>
		</contour>
	</outline>
</glyph>
<glyph name="backslash" format="2">
	<advance width="434"/>
	<unicode hex="005C"/>
	<note>
		backslash
	</note>
	<outline>
		<contour>
			<point x="383" y="-41" type="curve" smooth="yes"/>
			<point x="399" y="-32"/>
			<point x="403" y="-18"/>
			<point x="396" y="-4" type="curve" smooth="yes"/>
			<point x="391" y="10"/>
			<point x="381" y="22"/>
			<point x="375" y="35" type="curve" smooth="yes"/>
			<point x="334" y="115"/>
			<point x="290" y="194"/>
			<point x="254" y="276" type="curve" smooth="yes"/>
			<point x="210" y="373"/>
			<point x="174" y="472"/>
			<point x="134" y="570" type="curve" smooth="yes"/>
			<point x="126" y="590"/>
			<point x="119" y="609"/>
			<point x="108" y="627" type="curve" smooth="yes"/>
			<point x="100" y="639"/>
			<point x="86" y="648"/>
			<point x="80" y="654" type="curve"/>
			<point x="46" y="658"/>
			<point x="30" y="643"/>
			<point x="37" y="618" type="curve" smooth="yes"/>
			<point x="39" y="606"/>
			<point x="47" y="594"/>
			<point x="52" y="582" type="curve" smooth="yes"/>
			<point x="65" y="557"/>
			<point x="80" y="533"/>
			<point x="91" y="508" type="curve" smooth="yes"/>
			<point x="140" y="397"/>
			<point x="186" y="283"/>
			<point x="237" y="172" type="curve" smooth="yes"/>
			<point x="271" y="103"/>
			<point x="312" y="38"/>
			<point x="350" y="-29" type="curve" smooth="yes"/>
			<point x="357" y="-42"/>
			<point x="369" y="-48"/>
		</contour>
	</outline>
</glyph>
<glyph name="asciicircum" format="2">
	<advance width="447"/>
	<unicode hex="005E"/>
	<note>
		asciicircum
	</note>
	<outline>
		<contour>
			<point x="362" y="417" type="qcurve"/>
			<point x="373" y="415"/>
			<point x="391" y="421"/>
			<point x="395" y="427" type="qcurve"/>
			<point x="399" y="435"/>
			<point x="388" y="461"/>
			<point x="299" y="591"/>
			<point x="222" y="666"/>
			<point x="212" y="669" type="qcurve"/>
			<point x="169" y="678"/>
			<point x="143" y="623"/>
			<point x="59" y="518"/>
			<point x="47" y="492" type="qcurve"/>
			<point x="44" y="480"/>
			<point x="43" y="477" type="qcurve"/>
			<point x="39" y="463"/>
			<point x="44" y="437"/>
			<point x="59" y="435" type="qcurve"/>
			<point x="65" y="434"/>
			<point x="140" y="517"/>
			<point x="160" y="551" type="qcurve"/>
			<point x="198" y="616" type="line" smooth="yes"/>
			<point x="201" y="620"/>
			<point x="342" y="421"/>
		</contour>
	</outline>
</glyph>
<glyph name="underscore" format="2">
	<advance width="660"/>
	<unicode hex="005F"/>
	<note>
		underscore
	</note>
	<outline>
		<contour>
			<point x="417" y="-117" type="curve"/>
			<point x="454" y="-112"/>
			<point x="493" y="-110"/>
			<point x="532" y="-101" type="curve" smooth="yes"/>
			<point x="546" y="-97"/>
			<point x="557" y="-78"/>
			<point x="569" y="-67" type="curve"/>
			<point x="552" y="-62"/>
			<point x="536" y="-54"/>
			<point x="519" y="-54" type="curve" smooth="yes"/>
			<point x="451" y="-52"/>
			<point x="383" y="-55"/>
			<point x="316" y="-52" type="curve" smooth="yes"/>
			<point x="253" y="-49"/>
			<point x="190" y="-39"/>
			<point x="127" y="-35" type="curve" smooth="yes"/>
			<point x="115" y="-34"/>
			<point x="102" y="-48"/>
			<point x="89" y="-55" type="curve"/>
			<point x="101" y="-67"/>
			<point x="112" y="-89"/>
			<point x="125" y="-91" type="curve" smooth="yes"/>
			<point x="221" y="-102"/>
			<point x="317" y="-108"/>
		</contour>
	</outline>
</glyph>
<glyph name="grave" format="2">
	<advance width="397"/>
	<unicode hex="0060"/>
	<note>
		grave
	</note>
	<outline>
		<contour>
			<point x="312" y="519" type="curve"/>
			<point x="330" y="571"/>
			<point x="312" y="576"/>
			<point x="273" y="624" type="curve" smooth="yes"/>
			<point x="244" y="660"/>
			<point x="215" y="695"/>
			<point x="180" y="728" type="curve" smooth="yes"/>
			<point x="170" y="738"/>
			<point x="145" y="739"/>
			<point x="128" y="738" type="curve" smooth="yes"/>
			<point x="119" y="738"/>
			<point x="113" y="722"/>
			<point x="106" y="714" type="curve"/>
			<point x="145" y="674"/>
			<point x="178" y="642"/>
			<point x="211" y="608" type="curve" smooth="yes"/>
			<point x="233" y="583"/>
			<point x="255" y="557"/>
			<point x="280" y="536" type="curve"/>
			<point x="287" y="528"/>
			<point x="300" y="524"/>
		</contour>
	</outline>
</glyph>
<glyph name="a" format="2">
	<advance width="514"/>
	<unicode hex="0061"/>
	<note>
		a
	</note>
	<outline>
		<contour>
			<point x="474" y="17" type="curve"/>
			<point x="469" y="-10"/>
			<point x="457" y="-17"/>
			<point x="432" y="-13" type="curve" smooth="yes"/>
			<point x="380" y="-2"/>
			<point x="369" y="26"/>
			<point x="331" y="87" type="curve"/>
			<point x="274" y="29"/>
			<point x="276" y="24"/>
			<point x="200" y="-23" type="curve" smooth="yes"/>
			<point x="149" y="-55"/>
			<point x="119" y="-42"/>
			<point x="80" y="-10" type="curve" smooth="yes"/>
			<point x="46" y="17"/>
			<point x="37" y="64"/>
			<point x="54" y="107" type="curve" smooth="yes"/>
			<point x="77" y="161"/>
			<point x="113" y="206"/>
			<point x="152" y="247" type="curve" smooth="yes"/>
			<point x="185" y="280"/>
			<point x="217" y="312"/>
			<point x="253" y="350" type="curve"/>
			<point x="183" y="370"/>
			<point x="186" y="359"/>
			<point x="98" y="354" type="curve" smooth="yes"/>
			<point x="72" y="351"/>
			<point x="48" y="352"/>
			<point x="41" y="386" type="curve" smooth="yes"/>
			<point x="30" y="418"/>
			<point x="96" y="432"/>
			<point x="142" y="430" type="curve" smooth="yes"/>
			<point x="194" y="429"/>
			<point x="248" y="427"/>
			<point x="300" y="419" type="curve" smooth="yes"/>
			<point x="354" y="409"/>
			<point x="366" y="378"/>
			<point x="331" y="334" type="curve" smooth="yes"/>
			<point x="296" y="292"/>
			<point x="252" y="254"/>
			<point x="216" y="213" type="curve" smooth="yes"/>
			<point x="184" y="177"/>
			<point x="154" y="137"/>
			<point x="125" y="100" type="curve" smooth="yes"/>
			<point x="118" y="91"/>
			<point x="116" y="77"/>
			<point x="116" y="66" type="curve" smooth="yes"/>
			<point x="116" y="33"/>
			<point x="140" y="15"/>
			<point x="167" y="33" type="curve" smooth="yes"/>
			<point x="242" y="82"/>
			<point x="307" y="143"/>
			<point x="310" y="241" type="curve" smooth="yes"/>
			<point x="310" y="275"/>
			<point x="320" y="295"/>
			<point x="343" y="296" type="curve" smooth="yes"/>
			<point x="397" y="298"/>
			<point x="380" y="256"/>
			<point x="385" y="181" type="curve" smooth="yes"/>
			<point x="389" y="138"/>
			<point x="396" y="96"/>
			<point x="426" y="62" type="curve" smooth="yes"/>
			<point x="438" y="46"/>
			<point x="456" y="34"/>
		</contour>
	</outline>
</glyph>
<glyph name="b" format="2">
	<advance width="492"/>
	<unicode hex="0062"/>
	<note>
		b
	</note>
	<outline>
		<contour>
			<point x="327" y="-32" type="curve" smooth="yes"/>
			<point x="363" y="4"/>
			<point x="400" y="42"/>
			<point x="419" y="87" type="curve" smooth="yes"/>
			<point x="459" y="183"/>
			<point x="463" y="285"/>
			<point x="427" y="386" type="curve" smooth="yes"/>
			<point x="400" y="460"/>
			<point x="333" y="494"/>
			<point x="256" y="423" type="curve" smooth="yes"/>
			<point x="245" y="413"/>
			<point x="235" y="400"/>
			<point x="226" y="387" type="curve" smooth="yes"/>
			<point x="210" y="362"/>
			<point x="194" y="337"/>
			<point x="175" y="306" type="curve"/>
			<point x="170" y="324"/>
			<point x="167" y="335"/>
			<point x="165" y="347" type="curve" smooth="yes"/>
			<point x="158" y="408"/>
			<point x="156" y="469"/>
			<point x="145" y="529" type="curve" smooth="yes"/>
			<point x="133" y="594"/>
			<point x="115" y="658"/>
			<point x="124" y="725" type="curve" smooth="yes"/>
			<point x="125" y="729"/>
			<point x="124" y="732"/>
			<point x="124" y="735" type="curve"/>
			<point x="120" y="755"/>
			<point x="99" y="772"/>
			<point x="80" y="771" type="curve" smooth="yes"/>
			<point x="59" y="769"/>
			<point x="48" y="753"/>
			<point x="50" y="727" type="curve" smooth="yes"/>
			<point x="52" y="695"/>
			<point x="54" y="664"/>
			<point x="58" y="633" type="curve" smooth="yes"/>
			<point x="71" y="535"/>
			<point x="86" y="437"/>
			<point x="97" y="338" type="curve" smooth="yes"/>
			<point x="105" y="266"/>
			<point x="107" y="194"/>
			<point x="114" y="122" type="curve" smooth="yes"/>
			<point x="115" y="105"/>
			<point x="120" y="87"/>
			<point x="129" y="74" type="curve" smooth="yes"/>
			<point x="136" y="64"/>
			<point x="154" y="55"/>
			<point x="165" y="58" type="curve" smooth="yes"/>
			<point x="175" y="60"/>
			<point x="186" y="76"/>
			<point x="190" y="88" type="curve" smooth="yes"/>
			<point x="199" y="119"/>
			<point x="203" y="152"/>
			<point x="211" y="184" type="curve" smooth="yes"/>
			<point x="226" y="246"/>
			<point x="250" y="304"/>
			<point x="287" y="356" type="curve" smooth="yes"/>
			<point x="299" y="373"/>
			<point x="314" y="399"/>
			<point x="338" y="390" type="curve" smooth="yes"/>
			<point x="352" y="385"/>
			<point x="365" y="361"/>
			<point x="369" y="343" type="curve" smooth="yes"/>
			<point x="398" y="228"/>
			<point x="377" y="72"/>
			<point x="259" y="-9" type="curve" smooth="yes"/>
			<point x="251" y="-14"/>
			<point x="247" y="-23"/>
			<point x="241" y="-30" type="curve"/>
			<point x="271" y="-58"/>
			<point x="297" y="-62"/>
		</contour>
	</outline>
</glyph>
<glyph name="c" format="2">
	<advance width="407"/>
	<unicode hex="0063"/>
	<note>
		c
	</note>
	<outline>
		<contour>
			<point x="245" y="-17" type="curve" smooth="yes"/>
			<point x="299" y="-17"/>
			<point x="377" y="29"/>
			<point x="377" y="73" type="curve" smooth="yes"/>
			<point x="377" y="133"/>
			<point x="334" y="97"/>
			<point x="296" y="73" type="curve" smooth="yes"/>
			<point x="267" y="53"/>
			<point x="248" y="46"/>
			<point x="215" y="51" type="curve" smooth="yes"/>
			<point x="173" y="61"/>
			<point x="101" y="143"/>
			<point x="107" y="197" type="curve" smooth="yes"/>
			<point x="115" y="274"/>
			<point x="151" y="327"/>
			<point x="219" y="360" type="curve" smooth="yes"/>
			<point x="261" y="380"/>
			<point x="270" y="377"/>
			<point x="299" y="340" type="curve" smooth="yes"/>
			<point x="321" y="314"/>
			<point x="343" y="328"/>
			<point x="346" y="357" type="curve" smooth="yes"/>
			<point x="349" y="401"/>
			<point x="301" y="439"/>
			<point x="244" y="439" type="curve" smooth="yes"/>
			<point x="194" y="439"/>
			<point x="153" y="413"/>
			<point x="115" y="381" type="curve" smooth="yes"/>
			<point x="63" y="338"/>
			<point x="40" y="278"/>
			<point x="40" y="208" type="curve" smooth="yes"/>
			<point x="40" y="94"/>
			<point x="138" y="-17"/>
		</contour>
	</outline>
</glyph>
<glyph name="d" format="2">
	<advance width="458"/>
	<unicode hex="0064"/>
	<note>
		d
	</note>
	<outline>
		<contour>
			<point x="177" y="70" type="curve"/>
			<point x="116" y="70"/>
			<point x="118" y="124"/>
			<point x="113" y="162" type="curve" smooth="yes"/>
			<point x="110" y="184"/>
			<point x="111" y="228"/>
			<point x="113" y="258" type="curve" smooth="yes"/>
			<point x="116" y="319"/>
			<point x="151" y="374"/>
			<point x="203" y="390" type="curve" smooth="yes"/>
			<point x="302" y="419"/>
			<point x="317" y="369"/>
			<point x="290" y="286" type="curve" smooth="yes"/>
			<point x="253" y="187"/>
			<point x="215" y="72"/>
		</contour>
		<contour>
			<point x="375" y="0" type="curve" smooth="yes"/>
			<point x="386" y="0"/>
			<point x="408" y="8"/>
			<point x="408" y="27" type="curve" smooth="yes"/>
			<point x="408" y="47"/>
			<point x="390" y="72"/>
			<point x="391" y="97" type="curve" smooth="yes"/>
			<point x="396" y="174"/>
			<point x="382" y="252"/>
			<point x="386" y="329" type="curve" smooth="yes"/>
			<point x="393" y="450"/>
			<point x="408" y="555"/>
			<point x="393" y="661" type="curve" smooth="yes"/>
			<point x="388" y="690"/>
			<point x="385" y="702"/>
			<point x="363" y="702" type="curve" smooth="yes"/>
			<point x="322" y="702"/>
			<point x="333" y="682"/>
			<point x="310" y="457" type="curve"/>
			<point x="302" y="457"/>
			<point x="246" y="460"/>
			<point x="255" y="460" type="curve" smooth="yes"/>
			<point x="168" y="460"/>
			<point x="89" y="407"/>
			<point x="60" y="324" type="curve" smooth="yes"/>
			<point x="50" y="293"/>
			<point x="47" y="259"/>
			<point x="42" y="226" type="curve" smooth="yes"/>
			<point x="33" y="159"/>
			<point x="56" y="95"/>
			<point x="103" y="45" type="curve" smooth="yes"/>
			<point x="133" y="10"/>
			<point x="174" y="6"/>
			<point x="215" y="27" type="curve" smooth="yes"/>
			<point x="251" y="46"/>
			<point x="273" y="76"/>
			<point x="290" y="110" type="curve" smooth="yes"/>
			<point x="306" y="142"/>
			<point x="325" y="196"/>
			<point x="332" y="174" type="curve"/>
			<point x="332" y="100"/>
			<point x="324" y="82"/>
			<point x="351" y="17" type="curve" smooth="yes"/>
			<point x="356" y="5"/>
			<point x="364" y="0"/>
		</contour>
	</outline>
</glyph>
<glyph name="e" format="2">
	<advance width="472"/>
	<unicode hex="0065"/>
	<note>
		e
	</note>
	<outline>
		<contour>
			<point x="275" y="-8" type="curve" smooth="yes"/>
			<point x="323" y="-8"/>
			<point x="442" y="10"/>
			<point x="442" y="45" type="curve" smooth="yes"/>
			<point x="442" y="103"/>
			<point x="383" y="70"/>
			<point x="309" y="64" type="curve" smooth="yes"/>
			<point x="199" y="55"/>
			<point x="127" y="96"/>
			<point x="118" y="175" type="curve"/>
			<point x="255" y="244"/>
			<point x="332" y="275"/>
			<point x="371" y="352" type="curve" smooth="yes"/>
			<point x="391" y="399"/>
			<point x="370" y="448"/>
			<point x="313" y="458" type="curve"/>
			<point x="304" y="463"/>
			<point x="292" y="466"/>
			<point x="280" y="466" type="curve" smooth="yes"/>
			<point x="199" y="466"/>
			<point x="118" y="405"/>
			<point x="72" y="323" type="curve"/>
			<point x="43" y="281"/>
			<point x="38" y="249"/>
			<point x="41" y="164" type="curve"/>
			<point x="50" y="106"/>
			<point x="98" y="52"/>
			<point x="147" y="20" type="curve"/>
			<point x="195" y="-9"/>
			<point x="226" y="-8"/>
		</contour>
		<contour>
			<point x="115" y="245" type="curve"/>
			<point x="156" y="344"/>
			<point x="205" y="392"/>
			<point x="269" y="392" type="curve" smooth="yes"/>
			<point x="279" y="392"/>
			<point x="291" y="391"/>
			<point x="304" y="390" type="curve"/>
			<point x="275" y="313"/>
			<point x="202" y="274"/>
		</contour>
	</outline>
</glyph>
<glyph name="f" format="2">
	<advance width="430"/>
	<unicode hex="0066"/>
	<note>
		f
	</note>
	<outline>
		<contour>
			<point x="221" y="-158" type="curve" smooth="yes"/>
			<point x="253" y="-133"/>
			<point x="258" y="-96"/>
			<point x="255" y="-43" type="curve" smooth="yes"/>
			<point x="253" y="-8"/>
			<point x="238" y="41"/>
			<point x="229" y="76" type="curve" smooth="yes"/>
			<point x="220" y="109"/>
			<point x="208" y="255"/>
			<point x="197" y="293" type="curve"/>
			<point x="259" y="303" type="line" smooth="yes"/>
			<point x="293" y="308"/>
			<point x="329" y="311"/>
			<point x="363" y="318" type="curve" smooth="yes"/>
			<point x="389" y="324"/>
			<point x="400" y="331"/>
			<point x="400" y="345" type="curve" smooth="yes"/>
			<point x="400" y="355"/>
			<point x="395" y="368"/>
			<point x="385" y="386" type="curve"/>
			<point x="193" y="374"/>
			<point x="188" y="350"/>
			<point x="186" y="366" type="curve" smooth="yes"/>
			<point x="177" y="435"/>
			<point x="176" y="520"/>
			<point x="181" y="589" type="curve" smooth="yes"/>
			<point x="184" y="633"/>
			<point x="233" y="684"/>
			<point x="263" y="684" type="curve" smooth="yes"/>
			<point x="276" y="684"/>
			<point x="290" y="674"/>
			<point x="308" y="653" type="curve" smooth="yes"/>
			<point x="316" y="644"/>
			<point x="322" y="633"/>
			<point x="334" y="633" type="curve" smooth="yes"/>
			<point x="346" y="633"/>
			<point x="347" y="640"/>
			<point x="347" y="661" type="curve" smooth="yes"/>
			<point x="347" y="693"/>
			<point x="330" y="721"/>
			<point x="295" y="743" type="curve" smooth="yes"/>
			<point x="263" y="765"/>
			<point x="231" y="762"/>
			<point x="201" y="738" type="curve" smooth="yes"/>
			<point x="159" y="703"/>
			<point x="128" y="659"/>
			<point x="123" y="600" type="curve" smooth="yes"/>
			<point x="118" y="555"/>
			<point x="115" y="535"/>
			<point x="115" y="490" type="curve" smooth="yes"/>
			<point x="115" y="465"/>
			<point x="116" y="415"/>
			<point x="119" y="389" type="curve" smooth="yes"/>
			<point x="122" y="360"/>
			<point x="116" y="352"/>
			<point x="93" y="344" type="curve" smooth="yes"/>
			<point x="39" y="326"/>
			<point x="7" y="324"/>
			<point x="17" y="292" type="curve" smooth="yes"/>
			<point x="24" y="267"/>
			<point x="40" y="254"/>
			<point x="63" y="262" type="curve" smooth="yes"/>
			<point x="86" y="269"/>
			<point x="108" y="277"/>
			<point x="134" y="286" type="curve"/>
			<point x="152" y="230"/>
			<point x="169" y="67"/>
			<point x="186" y="19" type="curve" smooth="yes"/>
			<point x="192" y="1"/>
			<point x="196" y="-33"/>
			<point x="196" y="-51" type="curve" smooth="yes"/>
			<point x="196" y="-76"/>
			<point x="188" y="-94"/>
			<point x="188" y="-108" type="curve" smooth="yes"/>
			<point x="188" y="-134"/>
			<point x="194" y="-178"/>
		</contour>
	</outline>
</glyph>
<glyph name="g" format="2">
	<advance width="434"/>
	<unicode hex="0067"/>
	<note>
		g
	</note>
	<outline>
		<contour>
			<point x="269" y="-367" type="curve" smooth="yes"/>
			<point x="313" y="-367"/>
			<point x="362" y="-305"/>
			<point x="368" y="-261" type="curve" smooth="yes"/>
			<point x="375" y="-217"/>
			<point x="383" y="-173"/>
			<point x="384" y="-128" type="curve" smooth="yes"/>
			<point x="387" y="3"/>
			<point x="341" y="195"/>
			<point x="331" y="265" type="curve"/>
			<point x="330" y="281"/>
			<point x="325" y="293"/>
			<point x="343" y="299" type="curve" smooth="yes"/>
			<point x="360" y="304"/>
			<point x="366" y="316"/>
			<point x="360" y="342" type="curve" smooth="yes"/>
			<point x="350" y="392"/>
			<point x="308" y="421"/>
			<point x="256" y="434" type="curve" smooth="yes"/>
			<point x="219" y="443"/>
			<point x="182" y="431"/>
			<point x="154" y="405" type="curve" smooth="yes"/>
			<point x="113" y="369"/>
			<point x="79" y="328"/>
			<point x="61" y="276" type="curve" smooth="yes"/>
			<point x="49" y="244"/>
			<point x="40" y="211"/>
			<point x="40" y="178" type="curve" smooth="yes"/>
			<point x="40" y="124"/>
			<point x="63" y="71"/>
			<point x="116" y="59" type="curve" smooth="yes"/>
			<point x="152" y="53"/>
			<point x="181" y="64"/>
			<point x="208" y="100" type="curve" smooth="yes"/>
			<point x="228" y="126"/>
			<point x="249" y="149"/>
			<point x="274" y="181" type="curve"/>
			<point x="280" y="164"/>
			<point x="284" y="156"/>
			<point x="285" y="147" type="curve" smooth="yes"/>
			<point x="293" y="84"/>
			<point x="297" y="20"/>
			<point x="309" y="-43" type="curve" smooth="yes"/>
			<point x="321" y="-108"/>
			<point x="317" y="-158"/>
			<point x="299" y="-247" type="curve" smooth="yes"/>
			<point x="293" y="-277"/>
			<point x="278" y="-305"/>
			<point x="253" y="-305" type="curve"/>
			<point x="179" y="-255"/>
			<point x="162" y="-204"/>
			<point x="138" y="-204" type="curve" smooth="yes"/>
			<point x="121" y="-205"/>
			<point x="119" y="-226"/>
			<point x="127" y="-240" type="curve" smooth="yes"/>
			<point x="156" y="-298"/>
			<point x="201" y="-367"/>
		</contour>
		<contour>
			<point x="132" y="113" type="curve"/>
			<point x="113" y="131"/>
			<point x="109" y="150"/>
			<point x="109" y="169" type="curve" smooth="yes"/>
			<point x="109" y="251"/>
			<point x="150" y="313"/>
			<point x="206" y="365" type="curve" smooth="yes"/>
			<point x="223" y="379"/>
			<point x="243" y="390"/>
			<point x="262" y="371" type="curve"/>
			<point x="258" y="336"/>
			<point x="257" y="300"/>
			<point x="249" y="266" type="curve" smooth="yes"/>
			<point x="234" y="198"/>
			<point x="193" y="147"/>
		</contour>
	</outline>
</glyph>
<glyph name="h" format="2">
	<advance width="497"/>
	<unicode hex="0068"/>
	<note>
		h
	</note>
	<outline>
		<contour>
			<point x="300" y="289" type="curve"/>
			<point x="327" y="184"/>
			<point x="377" y="-32"/>
			<point x="447" y="16" type="curve"/>
			<point x="422" y="110"/>
			<point x="399" y="198"/>
			<point x="375" y="283" type="curve" smooth="yes"/>
			<point x="368" y="305"/>
			<point x="359" y="327"/>
			<point x="348" y="348" type="curve" smooth="yes"/>
			<point x="335" y="367"/>
			<point x="318" y="377"/>
			<point x="300" y="377" type="curve" smooth="yes"/>
			<point x="265" y="377"/>
			<point x="253" y="335"/>
			<point x="215" y="269" type="curve" smooth="yes"/>
			<point x="196" y="232"/>
			<point x="183" y="198"/>
			<point x="138" y="159" type="curve"/>
			<point x="136" y="223"/>
			<point x="131" y="280"/>
			<point x="131" y="337" type="curve" smooth="yes"/>
			<point x="131" y="372"/>
			<point x="131" y="459"/>
			<point x="131" y="459" type="curve" smooth="yes"/>
			<point x="131" y="522"/>
			<point x="135" y="553"/>
			<point x="109" y="597" type="curve" smooth="yes"/>
			<point x="100" y="611"/>
			<point x="87" y="625"/>
			<point x="67" y="614" type="curve" smooth="yes"/>
			<point x="34" y="598"/>
			<point x="60" y="533"/>
			<point x="60" y="483" type="curve" smooth="yes"/>
			<point x="63" y="377"/>
			<point x="63" y="272"/>
			<point x="69" y="168" type="curve" smooth="yes"/>
			<point x="70" y="128"/>
			<point x="90" y="53"/>
			<point x="129" y="53" type="curve" smooth="yes"/>
			<point x="140" y="53"/>
			<point x="153" y="60"/>
			<point x="167" y="73" type="curve" smooth="yes"/>
			<point x="210" y="114"/>
			<point x="240" y="188"/>
		</contour>
	</outline>
</glyph>
<glyph name="i" format="2">
	<advance width="226"/>
	<unicode hex="0069"/>
	<note>
		i
	</note>
	<outline>
		<contour>
			<point x="127" y="-13" type="curve" smooth="yes"/>
			<point x="134" y="-9"/>
			<point x="143" y="6"/>
			<point x="143" y="30" type="curve" smooth="yes"/>
			<point x="142" y="111"/>
			<point x="142" y="193"/>
			<point x="142" y="274" type="curve" smooth="yes"/>
			<point x="142" y="286"/>
			<point x="146" y="297"/>
			<point x="146" y="307" type="curve" smooth="yes"/>
			<point x="145" y="331"/>
			<point x="129" y="348"/>
			<point x="112" y="350" type="curve" smooth="yes"/>
			<point x="92" y="352"/>
			<point x="74" y="338"/>
			<point x="72" y="313" type="curve"/>
			<point x="65" y="239" type="line"/>
			<point x="70" y="180"/>
			<point x="74" y="122"/>
			<point x="81" y="64" type="curve" smooth="yes"/>
			<point x="84" y="35"/>
			<point x="102" y="-28"/>
		</contour>
		<contour>
			<point x="172" y="392" type="curve" smooth="yes"/>
			<point x="182" y="392"/>
			<point x="191" y="402"/>
			<point x="191" y="417" type="curve" smooth="yes"/>
			<point x="191" y="445"/>
			<point x="166" y="457"/>
			<point x="137" y="487" type="curve" smooth="yes"/>
			<point x="129" y="497"/>
			<point x="121" y="501"/>
			<point x="114" y="501" type="curve" smooth="yes"/>
			<point x="104" y="501"/>
			<point x="93" y="494"/>
			<point x="82" y="480" type="curve"/>
			<point x="100" y="443"/>
			<point x="130" y="421"/>
			<point x="157" y="398" type="curve" smooth="yes"/>
			<point x="162" y="394"/>
			<point x="167" y="392"/>
		</contour>
	</outline>
</glyph>
<glyph name="j" format="2">
	<advance width="338"/>
	<unicode hex="006A"/>
	<note>
		j
	</note>
	<outline>
		<contour>
			<point x="154" y="-287" type="curve" smooth="yes"/>
			<point x="200" y="-287"/>
			<point x="238" y="-231"/>
			<point x="254" y="-183" type="curve" smooth="yes"/>
			<point x="275" y="-119"/>
			<point x="288" y="-54"/>
			<point x="288" y="12" type="curve" smooth="yes"/>
			<point x="288" y="38"/>
			<point x="286" y="63"/>
			<point x="282" y="89" type="curve" smooth="yes"/>
			<point x="267" y="183"/>
			<point x="254" y="331"/>
			<point x="237" y="369" type="curve" smooth="yes"/>
			<point x="222" y="402"/>
			<point x="195" y="392"/>
			<point x="179" y="353" type="curve"/>
			<point x="180" y="308"/>
			<point x="187" y="259"/>
			<point x="198" y="210" type="curve" smooth="yes"/>
			<point x="214" y="139"/>
			<point x="218" y="66"/>
			<point x="218" y="-7" type="curve" smooth="yes"/>
			<point x="218" y="-71"/>
			<point x="203" y="-189"/>
			<point x="155" y="-220" type="curve" smooth="yes"/>
			<point x="152" y="-222"/>
			<point x="148" y="-222"/>
			<point x="144" y="-223" type="curve"/>
			<point x="84" y="-218"/>
			<point x="69" y="-165"/>
			<point x="45" y="-127" type="curve"/>
			<point x="34" y="-123"/>
			<point x="20" y="-119"/>
			<point x="11" y="-131" type="curve" smooth="yes"/>
			<point x="-24" y="-178"/>
			<point x="33" y="-233"/>
			<point x="83" y="-265" type="curve" smooth="yes"/>
			<point x="103" y="-278"/>
			<point x="125" y="-287"/>
		</contour>
		<contour>
			<point x="198" y="463" type="curve" smooth="yes"/>
			<point x="218" y="463"/>
			<point x="237" y="468"/>
			<point x="243" y="478" type="curve" smooth="yes"/>
			<point x="249" y="488"/>
			<point x="254" y="510"/>
			<point x="248" y="517" type="curve" smooth="yes"/>
			<point x="236" y="531"/>
			<point x="216" y="548"/>
			<point x="199" y="548" type="curve" smooth="yes"/>
			<point x="170" y="546"/>
			<point x="154" y="531"/>
			<point x="144" y="511" type="curve" smooth="yes"/>
			<point x="140" y="504"/>
			<point x="142" y="488"/>
			<point x="146" y="481" type="curve" smooth="yes"/>
			<point x="153" y="469"/>
			<point x="176" y="463"/>
		</contour>
	</outline>
</glyph>
<glyph name="k" format="2">
	<advance width="505"/>
	<unicode hex="006B"/>
	<note>
		k
	</note>
	<outline>
		<contour>
			<point x="439" y="-5" type="curve" smooth="yes"/>
			<point x="480" y="-8"/>
			<point x="487" y="40"/>
			<point x="453" y="55" type="curve" smooth="yes"/>
			<point x="443" y="60"/>
			<point x="333" y="76"/>
			<point x="269" y="87" type="curve" smooth="yes"/>
			<point x="253" y="91"/>
			<point x="231" y="96"/>
			<point x="213" y="111" type="curve"/>
			<point x="220" y="117"/>
			<point x="237" y="123"/>
			<point x="244" y="127" type="curve" smooth="yes"/>
			<point x="307" y="164"/>
			<point x="357" y="213"/>
			<point x="401" y="270" type="curve" smooth="yes"/>
			<point x="426" y="302"/>
			<point x="440" y="338"/>
			<point x="445" y="379" type="curve" smooth="yes"/>
			<point x="450" y="422"/>
			<point x="422" y="453"/>
			<point x="384" y="453" type="curve" smooth="yes"/>
			<point x="361" y="453"/>
			<point x="319" y="435"/>
			<point x="302" y="420" type="curve" smooth="yes"/>
			<point x="266" y="387"/>
			<point x="235" y="361"/>
			<point x="202" y="326" type="curve" smooth="yes"/>
			<point x="180" y="302"/>
			<point x="139" y="230"/>
			<point x="143" y="267" type="curve" smooth="yes"/>
			<point x="171" y="554"/>
			<point x="183" y="603"/>
			<point x="183" y="630" type="curve" smooth="yes"/>
			<point x="183" y="655"/>
			<point x="164" y="669"/>
			<point x="145" y="666" type="curve" smooth="yes"/>
			<point x="113" y="661"/>
			<point x="114" y="616"/>
			<point x="103" y="518" type="curve" smooth="yes"/>
			<point x="52" y="82" type="line" smooth="yes"/>
			<point x="51" y="73"/>
			<point x="50" y="66"/>
			<point x="50" y="60" type="curve" smooth="yes"/>
			<point x="50" y="38"/>
			<point x="55" y="-4"/>
			<point x="94" y="22" type="curve"/>
			<point x="129" y="82" type="line"/>
			<point x="203" y="28"/>
			<point x="271" y="14"/>
			<point x="345" y="1" type="curve" smooth="yes"/>
			<point x="376" y="-5"/>
			<point x="409" y="-4"/>
		</contour>
		<contour>
			<point x="152" y="155" type="curve"/>
			<point x="170" y="230"/>
			<point x="277" y="327"/>
			<point x="362" y="374" type="curve"/>
			<point x="363" y="370"/>
			<point x="363" y="367"/>
			<point x="363" y="363" type="curve" smooth="yes"/>
			<point x="363" y="302"/>
			<point x="257" y="178"/>
		</contour>
	</outline>
</glyph>
<glyph name="m" format="2">
	<advance width="796"/>
	<unicode hex="006D"/>
	<note>
		m
	</note>
	<outline>
		<contour>
			<point x="115" y="-13" type="curve" smooth="yes"/>
			<point x="143" y="-19"/>
			<point x="160" y="0"/>
			<point x="172" y="20" type="curve" smooth="yes"/>
			<point x="196" y="59"/>
			<point x="220" y="97"/>
			<point x="241" y="137" type="curve" smooth="yes"/>
			<point x="267" y="187"/>
			<point x="291" y="238"/>
			<point x="317" y="289" type="curve"/>
			<point x="350" y="221"/>
			<point x="339" y="245"/>
			<point x="354" y="154" type="curve" smooth="yes"/>
			<point x="362" y="125"/>
			<point x="366" y="95"/>
			<point x="378" y="68" type="curve" smooth="yes"/>
			<point x="403" y="14"/>
			<point x="436" y="12"/>
			<point x="472" y="59" type="curve" smooth="yes"/>
			<point x="511" y="109"/>
			<point x="537" y="163"/>
			<point x="556" y="223" type="curve" smooth="yes"/>
			<point x="564" y="248"/>
			<point x="569" y="273"/>
			<point x="592" y="294" type="curve"/>
			<point x="604" y="264"/>
			<point x="615" y="240"/>
			<point x="623" y="215" type="curve" smooth="yes"/>
			<point x="645" y="157"/>
			<point x="665" y="96"/>
			<point x="687" y="36" type="curve" smooth="yes"/>
			<point x="691" y="26"/>
			<point x="706" y="12"/>
			<point x="715" y="13" type="curve"/>
			<point x="750" y="30"/>
			<point x="750" y="30"/>
			<point x="740" y="77" type="curve" smooth="yes"/>
			<point x="735" y="98"/>
			<point x="729" y="116"/>
			<point x="725" y="136" type="curve" smooth="yes"/>
			<point x="704" y="202"/>
			<point x="686" y="267"/>
			<point x="664" y="333" type="curve" smooth="yes"/>
			<point x="654" y="362"/>
			<point x="640" y="394"/>
			<point x="600" y="394" type="curve" smooth="yes"/>
			<point x="564" y="394"/>
			<point x="542" y="371"/>
			<point x="526" y="341" type="curve" smooth="yes"/>
			<point x="540" y="365"/>
			<point x="466" y="196"/>
			<point x="439" y="141" type="curve"/>
			<point x="429" y="169"/>
			<point x="424" y="186"/>
			<point x="420" y="203" type="curve" smooth="yes"/>
			<point x="416" y="220"/>
			<point x="403" y="312"/>
			<point x="390" y="346" type="curve" smooth="yes"/>
			<point x="371" y="397"/>
			<point x="321" y="406"/>
			<point x="285" y="365" type="curve" smooth="yes"/>
			<point x="271" y="350"/>
			<point x="259" y="330"/>
			<point x="249" y="312" type="curve" smooth="yes"/>
			<point x="222" y="259"/>
			<point x="198" y="203"/>
			<point x="171" y="149" type="curve" smooth="yes"/>
			<point x="164" y="133"/>
			<point x="141" y="102"/>
			<point x="132" y="87" type="curve"/>
			<point x="132" y="87"/>
			<point x="131" y="75"/>
			<point x="124" y="148" type="curve" smooth="yes"/>
			<point x="122" y="281"/>
			<point x="131" y="289"/>
			<point x="113" y="403" type="curve" smooth="yes"/>
			<point x="110" y="426"/>
			<point x="95" y="440"/>
			<point x="71" y="436" type="curve" smooth="yes"/>
			<point x="47" y="431"/>
			<point x="50" y="411"/>
			<point x="50" y="391" type="curve" smooth="yes"/>
			<point x="52" y="321"/>
			<point x="52" y="251"/>
			<point x="56" y="180" type="curve" smooth="yes"/>
			<point x="59" y="134"/>
			<point x="63" y="87"/>
			<point x="70" y="41" type="curve" smooth="yes"/>
			<point x="74" y="15"/>
			<point x="89" y="-7"/>
		</contour>
	</outline>
</glyph>
<glyph name="n" format="2">
	<advance width="504"/>
	<unicode hex="006E"/>
	<note>
		n
	</note>
	<outline>
		<contour>
			<point x="428" y="-51" type="curve" smooth="yes"/>
			<point x="447" y="-49"/>
			<point x="456" y="-30"/>
			<point x="453" y="-2" type="curve" smooth="yes"/>
			<point x="445" y="82"/>
			<point x="431" y="162"/>
			<point x="403" y="242" type="curve" smooth="yes"/>
			<point x="395" y="261"/>
			<point x="386" y="281"/>
			<point x="372" y="297" type="curve" smooth="yes"/>
			<point x="355" y="320"/>
			<point x="333" y="332"/>
			<point x="310" y="332" type="curve" smooth="yes"/>
			<point x="293" y="332"/>
			<point x="277" y="326"/>
			<point x="260" y="313" type="curve" smooth="yes"/>
			<point x="240" y="297"/>
			<point x="224" y="276"/>
			<point x="210" y="254" type="curve" smooth="yes"/>
			<point x="193" y="226"/>
			<point x="182" y="196"/>
			<point x="167" y="167" type="curve" smooth="yes"/>
			<point x="163" y="159"/>
			<point x="156" y="145"/>
			<point x="143" y="128" type="curve"/>
			<point x="138" y="152"/>
			<point x="134" y="173"/>
			<point x="132" y="186" type="curve" smooth="yes"/>
			<point x="128" y="222"/>
			<point x="126" y="260"/>
			<point x="120" y="296" type="curve" smooth="yes"/>
			<point x="117" y="316"/>
			<point x="99" y="329"/>
			<point x="81" y="329" type="curve" smooth="yes"/>
			<point x="79" y="329"/>
			<point x="75" y="329"/>
			<point x="72" y="328" type="curve" smooth="yes"/>
			<point x="54" y="322"/>
			<point x="48" y="307"/>
			<point x="50" y="289" type="curve" smooth="yes"/>
			<point x="58" y="228"/>
			<point x="64" y="168"/>
			<point x="73" y="107" type="curve" smooth="yes"/>
			<point x="76" y="87"/>
			<point x="80" y="65"/>
			<point x="85" y="44" type="curve" smooth="yes"/>
			<point x="92" y="23"/>
			<point x="103" y="5"/>
			<point x="128" y="2" type="curve" smooth="yes"/>
			<point x="149" y="-1"/>
			<point x="165" y="10"/>
			<point x="175" y="27" type="curve" smooth="yes"/>
			<point x="191" y="51"/>
			<point x="204" y="77"/>
			<point x="216" y="104" type="curve" smooth="yes"/>
			<point x="233" y="140"/>
			<point x="244" y="179"/>
			<point x="263" y="214" type="curve" smooth="yes"/>
			<point x="288" y="260"/>
			<point x="321" y="294"/>
			<point x="343" y="201" type="curve" smooth="yes"/>
			<point x="359" y="140"/>
			<point x="374" y="78"/>
			<point x="389" y="16" type="curve" smooth="yes"/>
			<point x="395" y="-13"/>
			<point x="401" y="-58"/>
		</contour>
	</outline>
</glyph>
<glyph name="p" format="2">
	<advance width="363"/>
	<unicode hex="0070"/>
	<note>
		p
	</note>
	<outline>
		<contour>
			<point x="116" y="-277" type="curve"/>
			<point x="137" y="-273"/>
			<point x="150" y="-260"/>
			<point x="150" y="-239" type="curve" smooth="yes"/>
			<point x="151" y="-204"/>
			<point x="151" y="-167"/>
			<point x="151" y="-131" type="curve" smooth="yes"/>
			<point x="151" y="-24" type="line" smooth="yes"/>
			<point x="151" y="-4"/>
			<point x="152" y="18"/>
			<point x="151" y="39" type="curve" smooth="yes"/>
			<point x="150" y="62"/>
			<point x="161" y="76"/>
			<point x="178" y="89" type="curve" smooth="yes"/>
			<point x="196" y="101"/>
			<point x="214" y="111"/>
			<point x="231" y="124" type="curve" smooth="yes"/>
			<point x="283" y="166"/>
			<point x="319" y="217"/>
			<point x="323" y="288" type="curve" smooth="yes"/>
			<point x="326" y="342"/>
			<point x="296" y="396"/>
			<point x="246" y="413" type="curve" smooth="yes"/>
			<point x="237" y="416"/>
			<point x="146" y="427"/>
			<point x="148" y="426" type="curve" smooth="yes"/>
			<point x="132" y="432"/>
			<point x="137" y="451"/>
			<point x="134" y="464" type="curve" smooth="yes"/>
			<point x="129" y="487"/>
			<point x="113" y="495"/>
			<point x="88" y="491" type="curve" smooth="yes"/>
			<point x="72" y="489"/>
			<point x="65" y="477"/>
			<point x="66" y="455" type="curve" smooth="yes"/>
			<point x="66" y="460"/>
			<point x="70" y="415"/>
			<point x="70" y="398" type="curve" smooth="yes"/>
			<point x="70" y="358"/>
			<point x="50" y="336"/>
			<point x="50" y="311" type="curve" smooth="yes"/>
			<point x="50" y="297"/>
			<point x="55" y="283"/>
			<point x="66" y="272" type="curve" smooth="yes"/>
			<point x="78" y="258"/>
			<point x="81" y="241"/>
			<point x="80" y="224" type="curve" smooth="yes"/>
			<point x="78" y="165"/>
			<point x="77" y="109"/>
			<point x="80" y="53" type="curve" smooth="yes"/>
			<point x="79" y="61"/>
			<point x="88" y="-223"/>
			<point x="89" y="-232" type="curve" smooth="yes"/>
			<point x="90" y="-250"/>
			<point x="96" y="-266"/>
		</contour>
		<contour>
			<point x="150" y="137" type="curve"/>
			<point x="149" y="165"/>
			<point x="147" y="184"/>
			<point x="147" y="204" type="curve" smooth="yes"/>
			<point x="146" y="241"/>
			<point x="146" y="277"/>
			<point x="145" y="316" type="curve" smooth="yes"/>
			<point x="145" y="348"/>
			<point x="154" y="356"/>
			<point x="188" y="356" type="curve" smooth="yes"/>
			<point x="229" y="356"/>
			<point x="257" y="328"/>
			<point x="257" y="289" type="curve" smooth="yes"/>
			<point x="257" y="284"/>
			<point x="257" y="277"/>
			<point x="256" y="272" type="curve" smooth="yes"/>
			<point x="245" y="213"/>
			<point x="208" y="172"/>
		</contour>
	</outline>
</glyph>
<glyph name="r" format="2">
	<advance width="412"/>
	<unicode hex="0072"/>
	<note>
		r
	</note>
	<outline>
		<contour>
			<point x="119" y="1" type="curve" smooth="yes"/>
			<point x="138" y="0"/>
			<point x="152" y="32"/>
			<point x="152" y="60" type="curve" smooth="yes"/>
			<point x="158" y="136"/>
			<point x="184" y="206"/>
			<point x="212" y="275" type="curve" smooth="yes"/>
			<point x="224" y="303"/>
			<point x="240" y="335"/>
			<point x="263" y="354" type="curve" smooth="yes"/>
			<point x="301" y="383"/>
			<point x="345" y="407"/>
			<point x="390" y="426" type="curve" smooth="yes"/>
			<point x="407" y="433"/>
			<point x="414" y="441"/>
			<point x="414" y="452" type="curve" smooth="yes"/>
			<point x="414" y="478"/>
			<point x="400" y="492"/>
			<point x="368" y="483" type="curve" smooth="yes"/>
			<point x="273" y="455"/>
			<point x="199" y="402"/>
			<point x="155" y="309" type="curve" smooth="yes"/>
			<point x="153" y="305"/>
			<point x="134" y="257"/>
			<point x="139" y="248" type="curve"/>
			<point x="134" y="255"/>
			<point x="135" y="318"/>
			<point x="135" y="326" type="curve" smooth="yes"/>
			<point x="135" y="363"/>
			<point x="117" y="388"/>
			<point x="89" y="388" type="curve" smooth="yes"/>
			<point x="55" y="388"/>
			<point x="65" y="361"/>
			<point x="65" y="341" type="curve" smooth="yes"/>
			<point x="64" y="322"/>
			<point x="64" y="302"/>
			<point x="64" y="282" type="curve" smooth="yes"/>
			<point x="67" y="166"/>
			<point x="62" y="176"/>
			<point x="62" y="141" type="curve" smooth="yes"/>
			<point x="62" y="103" type="line" smooth="yes"/>
			<point x="62" y="85"/>
			<point x="62" y="68"/>
			<point x="64" y="50" type="curve" smooth="yes"/>
			<point x="68" y="20"/>
			<point x="86" y="1"/>
		</contour>
	</outline>
</glyph>
<glyph name="u" format="2">
	<advance width="451"/>
	<unicode hex="0075"/>
	<note>
		u
	</note>
	<outline>
		<contour>
			<point x="399" y="0" type="curve" smooth="yes"/>
			<point x="416" y="0"/>
			<point x="421" y="15"/>
			<point x="421" y="28" type="curve" smooth="yes"/>
			<point x="417" y="104"/>
			<point x="412" y="179"/>
			<point x="406" y="253" type="curve"/>
			<point x="403" y="270"/>
			<point x="402" y="263"/>
			<point x="406" y="289" type="curve" smooth="yes"/>
			<point x="409" y="311"/>
			<point x="398" y="325"/>
			<point x="382" y="335" type="curve" smooth="yes"/>
			<point x="372" y="340"/>
			<point x="356" y="339"/>
			<point x="341" y="337" type="curve"/>
			<point x="330" y="334"/>
			<point x="333" y="322"/>
			<point x="332" y="311" type="curve" smooth="yes"/>
			<point x="330" y="214"/>
			<point x="269" y="151"/>
			<point x="199" y="95" type="curve" smooth="yes"/>
			<point x="191" y="89"/>
			<point x="184" y="86"/>
			<point x="177" y="86" type="curve" smooth="yes"/>
			<point x="169" y="86"/>
			<point x="160" y="92"/>
			<point x="152" y="104" type="curve" smooth="yes"/>
			<point x="142" y="118"/>
			<point x="132" y="135"/>
			<point x="127" y="152" type="curve" smooth="yes"/>
			<point x="116" y="189"/>
			<point x="109" y="226"/>
			<point x="109" y="264" type="curve" smooth="yes"/>
			<point x="109" y="288"/>
			<point x="112" y="313"/>
			<point x="120" y="338" type="curve"/>
			<point x="127" y="353"/>
			<point x="111" y="382"/>
			<point x="86" y="382" type="curve" smooth="yes"/>
			<point x="69" y="382"/>
			<point x="54" y="368"/>
			<point x="48" y="346" type="curve" smooth="yes"/>
			<point x="42" y="323"/>
			<point x="40" y="299"/>
			<point x="40" y="276" type="curve" smooth="yes"/>
			<point x="40" y="219"/>
			<point x="51" y="137"/>
			<point x="81" y="90" type="curve" smooth="yes"/>
			<point x="102" y="53"/>
			<point x="137" y="32"/>
			<point x="175" y="32" type="curve" smooth="yes"/>
			<point x="217" y="32"/>
			<point x="256" y="63"/>
			<point x="299" y="94" type="curve" smooth="yes"/>
			<point x="315" y="107"/>
			<point x="331" y="134"/>
			<point x="347" y="149" type="curve"/>
			<point x="350" y="128"/>
			<point x="351" y="94"/>
			<point x="356" y="73" type="curve" smooth="yes"/>
			<point x="362" y="52"/>
			<point x="371" y="32"/>
			<point x="380" y="13" type="curve" smooth="yes"/>
			<point x="384" y="4"/>
			<point x="392" y="0"/>
		</contour>
	</outline>
</glyph>
<glyph name="w" format="2">
	<advance width="655"/>
	<unicode hex="0077"/>
	<note>
		w
	</note>
	<outline>
		<contour>
			<point x="223" y="-8" type="curve" smooth="yes"/>
			<point x="238" y="14"/>
			<point x="250" y="39"/>
			<point x="260" y="64" type="curve" smooth="yes"/>
			<point x="274" y="99"/>
			<point x="286" y="135"/>
			<point x="296" y="172" type="curve" smooth="yes"/>
			<point x="300" y="185"/>
			<point x="303" y="189"/>
			<point x="312" y="178" type="curve" smooth="yes"/>
			<point x="330" y="155"/>
			<point x="390" y="48"/>
			<point x="414" y="25" type="curve" smooth="yes"/>
			<point x="465" y="-22"/>
			<point x="503" y="24"/>
			<point x="534" y="85" type="curve" smooth="yes"/>
			<point x="569" y="154"/>
			<point x="600" y="224"/>
			<point x="621" y="299" type="curve" smooth="yes"/>
			<point x="629" y="328"/>
			<point x="624" y="359"/>
			<point x="604" y="363" type="curve" smooth="yes"/>
			<point x="574" y="369"/>
			<point x="568" y="345"/>
			<point x="559" y="324" type="curve" smooth="yes"/>
			<point x="530" y="256"/>
			<point x="500" y="187"/>
			<point x="467" y="121" type="curve" smooth="yes"/>
			<point x="448" y="80"/>
			<point x="429" y="80"/>
			<point x="404" y="131" type="curve" smooth="yes"/>
			<point x="380" y="186"/>
			<point x="356" y="241"/>
			<point x="333" y="296" type="curve" smooth="yes"/>
			<point x="321" y="325"/>
			<point x="296" y="341"/>
			<point x="270" y="331" type="curve" smooth="yes"/>
			<point x="240" y="321"/>
			<point x="246" y="294"/>
			<point x="244" y="278" type="curve"/>
			<point x="245" y="221"/>
			<point x="219" y="130"/>
			<point x="194" y="95" type="curve" smooth="yes"/>
			<point x="190" y="90"/>
			<point x="186" y="86"/>
			<point x="182" y="82" type="curve"/>
			<point x="178" y="88"/>
			<point x="172" y="94"/>
			<point x="171" y="101" type="curve"/>
			<point x="155" y="164"/>
			<point x="142" y="227"/>
			<point x="124" y="290" type="curve" smooth="yes"/>
			<point x="116" y="320"/>
			<point x="102" y="349"/>
			<point x="88" y="377" type="curve" smooth="yes"/>
			<point x="80" y="393"/>
			<point x="38" y="401"/>
			<point x="24" y="391" type="curve" smooth="yes"/>
			<point x="1" y="375"/>
			<point x="21" y="361"/>
			<point x="27" y="346" type="curve" smooth="yes"/>
			<point x="43" y="303"/>
			<point x="61" y="261"/>
			<point x="74" y="218" type="curve" smooth="yes"/>
			<point x="92" y="160"/>
			<point x="105" y="101"/>
			<point x="120" y="43" type="curve" smooth="yes"/>
			<point x="124" y="28"/>
			<point x="129" y="12"/>
			<point x="137" y="-1" type="curve" smooth="yes"/>
			<point x="159" y="-44"/>
			<point x="196" y="-47"/>
		</contour>
	</outline>
</glyph>
<glyph name="x" format="2">
	<advance width="535"/>
	<unicode hex="0078"/>
	<note>
		x
	</note>
	<outline>
		<contour>
			<point x="489" y="-15" type="curve"/>
			<point x="515" y="5" type="line"/>
			<point x="470" y="46"/>
			<point x="437" y="77"/>
			<point x="395" y="114" type="curve" smooth="yes"/>
			<point x="384" y="123"/>
			<point x="277" y="210"/>
			<point x="265" y="220" type="curve"/>
			<point x="291" y="247"/>
			<point x="317" y="273"/>
			<point x="340" y="298" type="curve" smooth="yes"/>
			<point x="367" y="327"/>
			<point x="383" y="344"/>
			<point x="406" y="362" type="curve" smooth="yes"/>
			<point x="440" y="386"/>
			<point x="454" y="422"/>
			<point x="447" y="431" type="curve"/>
			<point x="445" y="435"/>
			<point x="432" y="481"/>
			<point x="379" y="431" type="curve" smooth="yes"/>
			<point x="326" y="381"/>
			<point x="272" y="330"/>
			<point x="216" y="278" type="curve"/>
			<point x="187" y="312"/>
			<point x="156" y="349"/>
			<point x="119" y="394" type="curve"/>
			<point x="108" y="406"/>
			<point x="70" y="431"/>
			<point x="53" y="404" type="curve"/>
			<point x="49" y="399"/>
			<point x="41" y="388"/>
			<point x="61" y="364" type="curve" smooth="yes"/>
			<point x="96" y="321"/>
			<point x="137" y="273"/>
			<point x="175" y="228" type="curve"/>
			<point x="127" y="159"/>
			<point x="78" y="94"/>
			<point x="16" y="43" type="curve"/>
			<point x="-2" y="11"/>
			<point x="71" y="-9"/>
			<point x="103" y="19" type="curve" smooth="yes"/>
			<point x="113" y="27"/>
			<point x="123" y="38"/>
			<point x="130" y="48" type="curve" smooth="yes"/>
			<point x="160" y="89"/>
			<point x="191" y="129"/>
			<point x="227" y="162" type="curve"/>
			<point x="246" y="154"/>
			<point x="288" y="118"/>
			<point x="299" y="106" type="curve" smooth="yes"/>
			<point x="314" y="87"/>
			<point x="335" y="73"/>
			<point x="355" y="59" type="curve" smooth="yes"/>
			<point x="400" y="27"/>
			<point x="470" y="-36"/>
		</contour>
	</outline>
</glyph>
<glyph name="y" format="2">
	<advance width="473"/>
	<unicode hex="0079"/>
	<note>
		y
	</note>
	<outline>
		<contour>
			<point x="235" y="-323" type="curve"/>
			<point x="253" y="-327"/>
			<point x="275" y="-312"/>
			<point x="278" y="-296" type="curve" smooth="yes"/>
			<point x="284" y="-271"/>
			<point x="288" y="-247"/>
			<point x="292" y="-222" type="curve" smooth="yes"/>
			<point x="302" y="-160"/>
			<point x="298" y="-160"/>
			<point x="312" y="-99" type="curve" smooth="yes"/>
			<point x="345" y="38"/>
			<point x="372" y="177"/>
			<point x="413" y="312" type="curve" smooth="yes"/>
			<point x="427" y="358"/>
			<point x="425" y="405"/>
			<point x="416" y="448" type="curve"/>
			<point x="393" y="470"/>
			<point x="370" y="471"/>
			<point x="363" y="445" type="curve" smooth="yes"/>
			<point x="356" y="418"/>
			<point x="350" y="390"/>
			<point x="346" y="362" type="curve" smooth="yes"/>
			<point x="342" y="340"/>
			<point x="335" y="319"/>
			<point x="323" y="301" type="curve" smooth="yes"/>
			<point x="313" y="285"/>
			<point x="300" y="271"/>
			<point x="277" y="273" type="curve"/>
			<point x="253" y="281"/>
			<point x="232" y="295"/>
			<point x="214" y="313" type="curve" smooth="yes"/>
			<point x="183" y="344"/>
			<point x="155" y="378"/>
			<point x="135" y="418" type="curve" smooth="yes"/>
			<point x="124" y="440"/>
			<point x="109" y="461"/>
			<point x="94" y="480" type="curve" smooth="yes"/>
			<point x="84" y="493"/>
			<point x="68" y="498"/>
			<point x="49" y="495" type="curve"/>
			<point x="25" y="479"/>
			<point x="16" y="460"/>
			<point x="36" y="429" type="curve"/>
			<point x="46" y="420"/>
			<point x="62" y="409"/>
			<point x="74" y="395" type="curve" smooth="yes"/>
			<point x="87" y="381"/>
			<point x="96" y="364"/>
			<point x="107" y="350" type="curve" smooth="yes"/>
			<point x="158" y="284"/>
			<point x="209" y="217"/>
			<point x="312" y="209" type="curve"/>
			<point x="310" y="169"/>
			<point x="300" y="136"/>
			<point x="294" y="108" type="curve" smooth="yes"/>
			<point x="274" y="0"/>
			<point x="261" y="-45"/>
			<point x="243" y="-153" type="curve" smooth="yes"/>
			<point x="236" y="-193"/>
			<point x="230" y="-234"/>
			<point x="219" y="-273" type="curve" smooth="yes"/>
			<point x="215" y="-285"/>
			<point x="219" y="-314"/>
		</contour>
	</outline>
</glyph>
<glyph name="z" format="2">
	<advance width="494"/>
	<unicode hex="007A"/>
	<note>
		z
	</note>
	<outline>
		<contour>
			<point x="127" y="-28" type="curve" smooth="yes"/>
			<point x="145" y="-28"/>
			<point x="288" y="3"/>
			<point x="323" y="10" type="curve" smooth="yes"/>
			<point x="364" y="17"/>
			<point x="405" y="26"/>
			<point x="445" y="37" type="curve" smooth="yes"/>
			<point x="453" y="40"/>
			<point x="464" y="65"/>
			<point x="464" y="73" type="curve" smooth="yes"/>
			<point x="464" y="87"/>
			<point x="452" y="88"/>
			<point x="439" y="87" type="curve" smooth="yes"/>
			<point x="359" y="76"/>
			<point x="277" y="65"/>
			<point x="254" y="63" type="curve" smooth="yes"/>
			<point x="201" y="58"/>
			<point x="195" y="58"/>
			<point x="142" y="52" type="curve" smooth="yes"/>
			<point x="125" y="49"/>
			<point x="128" y="49"/>
			<point x="103" y="49" type="curve"/>
			<point x="113" y="63"/>
			<point x="127" y="79"/>
			<point x="138" y="93" type="curve" smooth="yes"/>
			<point x="181" y="141"/>
			<point x="234" y="177"/>
			<point x="289" y="212" type="curve" smooth="yes"/>
			<point x="329" y="237"/>
			<point x="368" y="264"/>
			<point x="393" y="306" type="curve" smooth="yes"/>
			<point x="409" y="331"/>
			<point x="406" y="367"/>
			<point x="390" y="384" type="curve" smooth="yes"/>
			<point x="376" y="398"/>
			<point x="341" y="411"/>
			<point x="323" y="420" type="curve" smooth="yes"/>
			<point x="283" y="440"/>
			<point x="241" y="445"/>
			<point x="198" y="445" type="curve" smooth="yes"/>
			<point x="151" y="445"/>
			<point x="110" y="444"/>
			<point x="88" y="430" type="curve" smooth="yes"/>
			<point x="68" y="418"/>
			<point x="66" y="391"/>
			<point x="86" y="379" type="curve" smooth="yes"/>
			<point x="109" y="369"/>
			<point x="133" y="374"/>
			<point x="181" y="376" type="curve" smooth="yes"/>
			<point x="224" y="375"/>
			<point x="266" y="378"/>
			<point x="309" y="353" type="curve" smooth="yes"/>
			<point x="321" y="346"/>
			<point x="328" y="341"/>
			<point x="328" y="335" type="curve" smooth="yes"/>
			<point x="328" y="323"/>
			<point x="300" y="298"/>
			<point x="284" y="286" type="curve" smooth="yes"/>
			<point x="244" y="258"/>
			<point x="208" y="232"/>
			<point x="169" y="202" type="curve" smooth="yes"/>
			<point x="118" y="165"/>
			<point x="69" y="125"/>
			<point x="37" y="69" type="curve" smooth="yes"/>
			<point x="32" y="60"/>
			<point x="30" y="52"/>
			<point x="30" y="42" type="curve" smooth="yes"/>
			<point x="30" y="21"/>
			<point x="41" y="-12"/>
			<point x="62" y="-18" type="curve" smooth="yes"/>
			<point x="83" y="-23"/>
			<point x="105" y="-28"/>
		</contour>
	</outline>
</glyph>
<glyph name="bar" format="2">
	<advance width="135"/>
	<unicode hex="007C"/>
	<outline>
		<contour>
			<point x="75" y="-134" type="curve" smooth="yes"/>
			<point x="88" y="-135"/>
			<point x="104" y="-132"/>
			<point x="114" y="-124" type="curve" smooth="yes"/>
			<point x="135" y="-109"/>
			<point x="136" y="-83"/>
			<point x="135" y="-59" type="curve" smooth="yes"/>
			<point x="132" y="0"/>
			<point x="130" y="58"/>
			<point x="126" y="117" type="curve" smooth="yes"/>
			<point x="120" y="236"/>
			<point x="113" y="355"/>
			<point x="105" y="474" type="curve" smooth="yes"/>
			<point x="100" y="552"/>
			<point x="94" y="629"/>
			<point x="87" y="707" type="curve" smooth="yes"/>
			<point x="85" y="726"/>
			<point x="82" y="744"/>
			<point x="77" y="763" type="curve" smooth="yes"/>
			<point x="73" y="780"/>
			<point x="62" y="790"/>
			<point x="50" y="790" type="curve" smooth="yes"/>
			<point x="41" y="790"/>
			<point x="32" y="786"/>
			<point x="24" y="777" type="curve" smooth="yes"/>
			<point x="8" y="761"/>
			<point x="0" y="740"/>
			<point x="0" y="717" type="curve" smooth="yes"/>
			<point x="0" y="712"/>
			<point x="0" y="707"/>
			<point x="1" y="702" type="curve" smooth="yes"/>
			<point x="9" y="633"/>
			<point x="20" y="564"/>
			<point x="26" y="495" type="curve" smooth="yes"/>
			<point x="39" y="338"/>
			<point x="50" y="181"/>
			<point x="62" y="24" type="curve"/>
			<point x="57" y="24" type="line"/>
			<point x="57" y="-18"/>
			<point x="57" y="-59"/>
			<point x="57" y="-101" type="curve" smooth="yes"/>
			<point x="56" y="-116"/>
			<point x="58" y="-132"/>
		</contour>
	</outline>
</glyph>
<glyph name="braceright" format="2">
	<advance width="398"/>
	<unicode hex="007D"/>
	<note>
		braceright
	</note>
	<outline>
		<contour>
			<point x="175" y="-171" type="curve" smooth="yes"/>
			<point x="200" y="-178"/>
			<point x="225" y="-172"/>
			<point x="242" y="-155" type="curve" smooth="yes"/>
			<point x="274" y="-120"/>
			<point x="293" y="-79"/>
			<point x="284" y="-29" type="curve" smooth="yes"/>
			<point x="280" y="-2"/>
			<point x="276" y="26"/>
			<point x="275" y="53" type="curve" smooth="yes"/>
			<point x="275" y="78" type="line" smooth="yes"/>
			<point x="275" y="107"/>
			<point x="274" y="138"/>
			<point x="276" y="168" type="curve" smooth="yes"/>
			<point x="280" y="204"/>
			<point x="279" y="243"/>
			<point x="316" y="268" type="curve" smooth="yes"/>
			<point x="330" y="276"/>
			<point x="326" y="298"/>
			<point x="311" y="308" type="curve" smooth="yes"/>
			<point x="304" y="314"/>
			<point x="295" y="317"/>
			<point x="288" y="319" type="curve" smooth="yes"/>
			<point x="265" y="324"/>
			<point x="251" y="339"/>
			<point x="248" y="360" type="curve" smooth="yes"/>
			<point x="244" y="386"/>
			<point x="241" y="414"/>
			<point x="244" y="441" type="curve" smooth="yes"/>
			<point x="251" y="520"/>
			<point x="269" y="540"/>
			<point x="291" y="616" type="curve" smooth="yes"/>
			<point x="304" y="667"/>
			<point x="314" y="718"/>
			<point x="268" y="758" type="curve" smooth="yes"/>
			<point x="245" y="776"/>
			<point x="216" y="790"/>
			<point x="187" y="798" type="curve" smooth="yes"/>
			<point x="170" y="803"/>
			<point x="147" y="796"/>
			<point x="129" y="790" type="curve" smooth="yes"/>
			<point x="119" y="786"/>
			<point x="105" y="771"/>
			<point x="106" y="762" type="curve" smooth="yes"/>
			<point x="108" y="745"/>
			<point x="125" y="746"/>
			<point x="140" y="746" type="curve" smooth="yes"/>
			<point x="146" y="746" type="line" smooth="yes"/>
			<point x="219" y="748"/>
			<point x="247" y="716"/>
			<point x="232" y="654" type="curve" smooth="yes"/>
			<point x="220" y="608"/>
			<point x="205" y="562"/>
			<point x="190" y="516" type="curve" smooth="yes"/>
			<point x="168" y="452"/>
			<point x="169" y="438"/>
			<point x="179" y="369" type="curve" smooth="yes"/>
			<point x="183" y="340"/>
			<point x="192" y="310"/>
			<point x="218" y="292" type="curve" smooth="yes"/>
			<point x="230" y="282"/>
			<point x="233" y="275"/>
			<point x="228" y="260" type="curve" smooth="yes"/>
			<point x="221" y="239"/>
			<point x="212" y="218"/>
			<point x="211" y="196" type="curve" smooth="yes"/>
			<point x="206" y="88"/>
			<point x="209" y="106"/>
			<point x="221" y="0" type="curve" smooth="yes"/>
			<point x="225" y="-33"/>
			<point x="228" y="-67"/>
			<point x="212" y="-99" type="curve" smooth="yes"/>
			<point x="204" y="-113"/>
			<point x="199" y="-121"/>
			<point x="181" y="-112" type="curve" smooth="yes"/>
			<point x="156" y="-98"/>
			<point x="145" y="-108"/>
			<point x="146" y="-137" type="curve" smooth="yes"/>
			<point x="148" y="-155"/>
			<point x="158" y="-166"/>
		</contour>
	</outline>
</glyph>
<glyph name="exclamdown" format="2">
	<advance width="301"/>
	<unicode hex="00A1"/>
	<note>
		exclamdown
	</note>
	<outline>
		<contour>
			<point x="84" y="7" type="curve"/>
			<point x="95" y="251"/>
			<point x="93" y="234"/>
			<point x="107" y="395" type="curve" smooth="yes"/>
			<point x="108" y="419"/>
			<point x="131" y="436"/>
			<point x="150" y="435" type="curve" smooth="yes"/>
			<point x="168" y="430"/>
			<point x="189" y="409"/>
			<point x="188" y="386" type="curve" smooth="yes"/>
			<point x="181" y="323"/>
			<point x="173" y="260"/>
			<point x="168" y="198" type="curve" smooth="yes"/>
			<point x="162" y="135"/>
			<point x="159" y="71"/>
			<point x="153" y="7" type="curve" smooth="yes"/>
			<point x="150" y="-45"/>
			<point x="142" y="-96"/>
			<point x="135" y="-148" type="curve" smooth="yes"/>
			<point x="134" y="-167"/>
			<point x="121" y="-176"/>
			<point x="107" y="-175" type="curve" smooth="yes"/>
			<point x="91" y="-170"/>
			<point x="75" y="-158"/>
			<point x="75" y="-140" type="curve" smooth="yes"/>
			<point x="77" y="-91"/>
			<point x="82" y="-40"/>
		</contour>
		<contour>
			<point x="112" y="599" type="curve"/>
			<point x="156" y="600"/>
			<point x="178" y="578"/>
			<point x="180" y="547" type="curve" smooth="yes"/>
			<point x="180" y="523"/>
			<point x="169" y="510"/>
			<point x="150" y="502" type="curve" smooth="yes"/>
			<point x="132" y="497"/>
			<point x="86" y="550"/>
			<point x="90" y="573" type="curve" smooth="yes"/>
			<point x="93" y="583"/>
			<point x="109" y="592"/>
		</contour>
	</outline>
</glyph>
<glyph name="cent" format="2">
	<advance width="470"/>
	<unicode hex="00A2"/>
	<note>
		cent
	</note>
	<outline>
		<contour>
			<point x="226" y="-4" type="line"/>
			<point x="246" y="2"/>
			<point x="260" y="79"/>
			<point x="261" y="125" type="qcurve"/>
			<point x="286" y="129" type="line" smooth="yes"/>
			<point x="358" y="141"/>
			<point x="409" y="199" type="qcurve"/>
			<point x="416" y="207"/>
			<point x="416" y="221" type="qcurve"/>
			<point x="416" y="227"/>
			<point x="414" y="233" type="qcurve"/>
			<point x="411" y="241"/>
			<point x="391" y="252"/>
			<point x="383" y="252" type="qcurve"/>
			<point x="376" y="252"/>
			<point x="347" y="224"/>
			<point x="342" y="221" type="qcurve"/>
			<point x="293" y="181"/>
			<point x="264" y="183" type="qcurve"/>
			<point x="260" y="387" type="line"/>
			<point x="260" y="440" type="line"/>
			<point x="261" y="439" type="line" smooth="yes"/>
			<point x="281" y="419"/>
			<point x="331" y="419" type="qcurve"/>
			<point x="347" y="419"/>
			<point x="347" y="422"/>
			<point x="347" y="441" type="qcurve"/>
			<point x="347" y="463"/>
			<point x="325" y="478" type="qcurve"/>
			<point x="305" y="490"/>
			<point x="266" y="503" type="qcurve"/>
			<point x="260" y="505" type="line"/>
			<point x="250" y="597" type="line" smooth="yes"/>
			<point x="236" y="599"/>
			<point x="216" y="587" type="qcurve"/>
			<point x="198" y="568"/>
			<point x="194" y="515" type="qcurve"/>
			<point x="193" y="503" type="line"/>
			<point x="176" y="495"/>
			<point x="152" y="475" type="qcurve"/>
			<point x="113" y="438"/>
			<point x="74" y="344"/>
			<point x="62" y="284" type="qcurve"/>
			<point x="60" y="269"/>
			<point x="60" y="262" type="qcurve"/>
			<point x="60" y="228"/>
			<point x="98" y="169"/>
			<point x="134" y="146" type="qcurve"/>
			<point x="169" y="131"/>
			<point x="201" y="125" type="qcurve"/>
			<point x="200" y="72"/>
			<point x="210" y="10" type="qcurve"/>
		</contour>
		<contour>
			<point x="200" y="186" type="qcurve"/>
			<point x="184" y="193"/>
			<point x="163" y="210" type="qcurve"/>
			<point x="140" y="236"/>
			<point x="119" y="283"/>
			<point x="123" y="298" type="qcurve"/>
			<point x="133" y="341"/>
			<point x="175" y="407"/>
			<point x="192" y="431" type="qcurve"/>
			<point x="200" y="283"/>
		</contour>
	</outline>
</glyph>
<glyph name="sterling" format="2">
	<advance width="703"/>
	<unicode hex="00A3"/>
	<note>
		sterling
	</note>
	<outline>
		<contour>
			<point x="204" y="-38" type="curve" smooth="yes"/>
			<point x="239" y="-38"/>
			<point x="246" y="12"/>
			<point x="281" y="12" type="curve"/>
			<point x="365" y="19"/>
			<point x="448" y="23"/>
			<point x="532" y="23" type="curve" smooth="yes"/>
			<point x="575" y="23"/>
			<point x="618" y="17"/>
			<point x="660" y="13" type="curve"/>
			<point x="670" y="37"/>
			<point x="652" y="63"/>
			<point x="636" y="67" type="curve" smooth="yes"/>
			<point x="606" y="76"/>
			<point x="574" y="81"/>
			<point x="543" y="81" type="curve" smooth="yes"/>
			<point x="483" y="81" type="line" smooth="yes"/>
			<point x="424" y="81"/>
			<point x="366" y="81"/>
			<point x="307" y="83" type="curve" smooth="yes"/>
			<point x="287" y="83"/>
			<point x="252" y="100"/>
			<point x="251" y="113" type="curve" smooth="yes"/>
			<point x="248" y="136"/>
			<point x="247" y="159"/>
			<point x="247" y="181" type="curve" smooth="yes"/>
			<point x="247" y="214"/>
			<point x="249" y="246"/>
			<point x="249" y="278" type="curve"/>
			<point x="316" y="278" type="line" smooth="yes"/>
			<point x="348" y="278"/>
			<point x="376" y="278"/>
			<point x="404" y="280" type="curve" smooth="yes"/>
			<point x="461" y="283"/>
			<point x="471" y="327"/>
			<point x="424" y="342" type="curve" smooth="yes"/>
			<point x="394" y="353"/>
			<point x="361" y="352"/>
			<point x="330" y="354" type="curve"/>
			<point x="305" y="358"/>
			<point x="280" y="356"/>
			<point x="250" y="359" type="curve"/>
			<point x="256" y="433"/>
			<point x="258" y="507"/>
			<point x="264" y="572" type="curve" smooth="yes"/>
			<point x="268" y="623"/>
			<point x="331" y="615"/>
			<point x="361" y="588" type="curve" smooth="yes"/>
			<point x="426" y="529" type="line"/>
			<point x="472" y="568"/>
			<point x="390" y="654"/>
			<point x="338" y="687" type="curve" smooth="yes"/>
			<point x="320" y="699"/>
			<point x="268" y="704"/>
			<point x="253" y="704" type="curve" smooth="yes"/>
			<point x="224" y="704"/>
			<point x="204" y="682"/>
			<point x="200" y="637" type="curve" smooth="yes"/>
			<point x="193" y="558"/>
			<point x="190" y="480"/>
			<point x="189" y="400" type="curve" smooth="yes"/>
			<point x="189" y="369"/>
			<point x="197" y="351"/>
			<point x="156" y="352" type="curve" smooth="yes"/>
			<point x="140" y="352"/>
			<point x="76" y="363"/>
			<point x="60" y="364" type="curve"/>
			<point x="71" y="285"/>
			<point x="135" y="293"/>
			<point x="181" y="275" type="curve"/>
			<point x="177" y="266"/>
			<point x="188" y="188"/>
			<point x="188" y="176" type="curve" smooth="yes"/>
			<point x="188" y="143"/>
			<point x="176" y="112"/>
			<point x="126" y="90" type="curve"/>
			<point x="140" y="56"/>
			<point x="149" y="21"/>
			<point x="167" y="-10" type="curve" smooth="yes"/>
			<point x="178" y="-29"/>
			<point x="191" y="-38"/>
		</contour>
	</outline>
</glyph>
<glyph name="currency" format="2">
	<advance width="561"/>
	<unicode hex="00A4"/>
	<note>
		currency
	</note>
	<outline>
		<contour>
			<point x="120" y="80" type="curve"/>
			<point x="135" y="82"/>
			<point x="151" y="80"/>
			<point x="163" y="87" type="curve" smooth="yes"/>
			<point x="174" y="93"/>
			<point x="180" y="109"/>
			<point x="188" y="121" type="curve" smooth="yes"/>
			<point x="203" y="144" type="line"/>
			<point x="237" y="127"/>
			<point x="284" y="123"/>
			<point x="311" y="138" type="curve" smooth="yes"/>
			<point x="338" y="152"/>
			<point x="359" y="170"/>
			<point x="378" y="190" type="curve"/>
			<point x="401" y="167"/>
			<point x="423" y="145"/>
			<point x="445" y="122" type="curve" smooth="yes"/>
			<point x="464" y="103"/>
			<point x="481" y="76"/>
			<point x="508" y="96" type="curve" smooth="yes"/>
			<point x="539" y="119"/>
			<point x="504" y="140"/>
			<point x="495" y="161" type="curve" smooth="yes"/>
			<point x="493" y="166"/>
			<point x="486" y="170"/>
			<point x="482" y="175" type="curve" smooth="yes"/>
			<point x="417" y="249" type="line"/>
			<point x="430" y="277"/>
			<point x="439" y="307"/>
			<point x="444" y="341" type="curve"/>
			<point x="439" y="355"/>
			<point x="436" y="373"/>
			<point x="429" y="388" type="curve" smooth="yes"/>
			<point x="422" y="402"/>
			<point x="414" y="414"/>
			<point x="405" y="425" type="curve"/>
			<point x="417" y="441"/>
			<point x="428" y="457"/>
			<point x="438" y="473" type="curve" smooth="yes"/>
			<point x="447" y="489"/>
			<point x="447" y="511"/>
			<point x="451" y="530" type="curve"/>
			<point x="445" y="533"/>
			<point x="438" y="536"/>
			<point x="432" y="540" type="curve"/>
			<point x="366" y="462" type="line"/>
			<point x="348" y="474"/>
			<point x="329" y="485"/>
			<point x="308" y="493" type="curve" smooth="yes"/>
			<point x="279" y="505"/>
			<point x="249" y="504"/>
			<point x="227" y="484" type="curve" smooth="yes"/>
			<point x="208" y="466" type="line"/>
			<point x="178" y="494"/>
			<point x="147" y="522"/>
			<point x="114" y="545" type="curve" smooth="yes"/>
			<point x="97" y="556"/>
			<point x="65" y="544"/>
			<point x="40" y="542" type="curve"/>
			<point x="50" y="526"/>
			<point x="57" y="505"/>
			<point x="71" y="493" type="curve" smooth="yes"/>
			<point x="102" y="465"/>
			<point x="132" y="438"/>
			<point x="163" y="412" type="curve"/>
			<point x="139" y="378"/>
			<point x="122" y="339"/>
			<point x="118" y="295" type="curve" smooth="yes"/>
			<point x="113" y="253"/>
			<point x="134" y="218"/>
			<point x="158" y="186" type="curve"/>
			<point x="118" y="120" type="line" smooth="yes"/>
			<point x="112" y="111"/>
			<point x="119" y="93"/>
		</contour>
		<contour>
			<point x="248" y="204" type="curve" smooth="yes"/>
			<point x="245" y="206" type="line" smooth="yes"/>
			<point x="224" y="217"/>
			<point x="210" y="233"/>
			<point x="200" y="252" type="curve" smooth="yes"/>
			<point x="189" y="271"/>
			<point x="183" y="294"/>
			<point x="177" y="318" type="curve"/>
			<point x="185" y="337"/>
			<point x="194" y="357"/>
			<point x="205" y="375" type="curve" smooth="yes"/>
			<point x="217" y="395"/>
			<point x="231" y="413"/>
			<point x="249" y="428" type="curve" smooth="yes"/>
			<point x="253" y="432" type="line" smooth="yes"/>
			<point x="270" y="445"/>
			<point x="294" y="443"/>
			<point x="310" y="428" type="curve" smooth="yes"/>
			<point x="315" y="423"/>
			<point x="319" y="418"/>
			<point x="324" y="413" type="curve" smooth="yes"/>
			<point x="337" y="399"/>
			<point x="350" y="384"/>
			<point x="362" y="368" type="curve" smooth="yes"/>
			<point x="371" y="357" type="line" smooth="yes"/>
			<point x="376" y="350"/>
			<point x="378" y="336"/>
			<point x="376" y="326" type="curve" smooth="yes"/>
			<point x="374" y="318"/>
			<point x="371" y="310"/>
			<point x="369" y="303" type="curve" smooth="yes"/>
			<point x="361" y="278"/>
			<point x="349" y="255"/>
			<point x="332" y="235" type="curve" smooth="yes"/>
			<point x="322" y="224"/>
			<point x="310" y="213"/>
			<point x="296" y="204" type="curve" smooth="yes"/>
			<point x="284" y="197"/>
			<point x="261" y="197"/>
		</contour>
	</outline>
</glyph>
<glyph name="yen" format="2">
	<advance width="577"/>
	<unicode hex="00A5"/>
	<note>
		yen
	</note>
	<outline>
		<contour>
			<point x="44" y="652" type="curve" smooth="yes"/>
			<point x="37" y="641"/>
			<point x="49" y="609"/>
			<point x="62" y="598" type="curve" smooth="yes"/>
			<point x="125" y="544"/>
			<point x="189" y="483"/>
			<point x="258" y="429" type="curve"/>
			<point x="262" y="292" type="line" smooth="yes"/>
			<point x="262" y="289"/>
			<point x="254" y="220"/>
			<point x="264" y="80" type="curve" smooth="yes"/>
			<point x="266" y="48"/>
			<point x="274" y="26"/>
			<point x="303" y="26" type="curve" smooth="yes"/>
			<point x="330" y="26"/>
			<point x="340" y="42"/>
			<point x="339" y="78" type="curve" smooth="yes"/>
			<point x="334" y="227" type="line"/>
			<point x="337" y="416" type="line"/>
			<point x="352" y="439"/>
			<point x="372" y="461"/>
			<point x="389" y="477" type="curve" smooth="yes"/>
			<point x="424" y="509"/>
			<point x="463" y="537"/>
			<point x="500" y="568" type="curve" smooth="yes"/>
			<point x="515" y="581"/>
			<point x="528" y="597"/>
			<point x="542" y="611" type="curve"/>
			<point x="526" y="623"/>
			<point x="511" y="641"/>
			<point x="493" y="645" type="curve" smooth="yes"/>
			<point x="478" y="649"/>
			<point x="455" y="642"/>
			<point x="442" y="631" type="curve" smooth="yes"/>
			<point x="406" y="600"/>
			<point x="372" y="567"/>
			<point x="340" y="532" type="curve" smooth="yes"/>
			<point x="298" y="488"/>
			<point x="295" y="487"/>
			<point x="250" y="528" type="curve" smooth="yes"/>
			<point x="204" y="572"/>
			<point x="157" y="614"/>
			<point x="110" y="657" type="curve" smooth="yes"/>
			<point x="86" y="678"/>
			<point x="59" y="674"/>
		</contour>
		<component base="guion"/>
		<component base="endash" xScale="0.7674" yScale="-1" xOffset="3" yOffset="574"/>
	</outline>
</glyph>
<glyph name="brokenbar" format="2">
	<advance width="187"/>
	<unicode hex="00A6"/>
	<note>
		brokenbar
	</note>
	<outline>
		<contour>
			<point x="82" y="-187" type="curve" smooth="yes"/>
			<point x="109" y="-192"/>
			<point x="138" y="-152"/>
			<point x="137" y="-129" type="curve" smooth="yes"/>
			<point x="132" y="-80"/>
			<point x="134" y="-2"/>
			<point x="130" y="47" type="curve"/>
			<point x="134" y="129"/>
			<point x="132" y="254"/>
			<point x="105" y="271" type="curve" smooth="yes"/>
			<point x="97" y="276"/>
			<point x="90" y="278"/>
			<point x="86" y="278" type="curve" smooth="yes"/>
			<point x="78" y="278"/>
			<point x="74" y="273"/>
			<point x="71" y="264" type="curve" smooth="yes"/>
			<point x="65" y="242"/>
			<point x="62" y="220"/>
			<point x="62" y="198" type="curve" smooth="yes"/>
			<point x="63" y="107"/>
			<point x="62" y="187"/>
			<point x="62" y="96" type="curve" smooth="yes"/>
			<point x="62" y="15"/>
			<point x="59" y="-66"/>
			<point x="50" y="-147" type="curve" smooth="yes"/>
			<point x="47" y="-166"/>
			<point x="58" y="-183"/>
		</contour>
		<contour>
			<point x="95" y="351" type="curve" smooth="yes"/>
			<point x="109" y="351"/>
			<point x="120" y="357"/>
			<point x="130" y="369" type="curve" smooth="yes"/>
			<point x="142" y="383"/>
			<point x="136" y="407"/>
			<point x="132" y="445" type="curve" smooth="yes"/>
			<point x="131" y="465"/>
			<point x="131" y="541"/>
			<point x="127" y="562" type="curve" smooth="yes"/>
			<point x="123" y="596"/>
			<point x="115" y="645"/>
			<point x="118" y="685" type="curve" smooth="yes"/>
			<point x="119" y="699"/>
			<point x="108" y="710"/>
			<point x="90" y="710" type="curve" smooth="yes"/>
			<point x="62" y="710"/>
			<point x="58" y="695"/>
			<point x="58" y="680" type="curve" smooth="yes"/>
			<point x="57" y="530"/>
			<point x="45" y="491"/>
			<point x="58" y="382" type="curve" smooth="yes"/>
			<point x="59" y="369"/>
			<point x="82" y="351"/>
		</contour>
	</outline>
</glyph>
<glyph name="dieresis" format="2">
	<advance width="404"/>
	<unicode hex="00A8"/>
	<note>
		dieresis
	</note>
	<outline>
		<contour>
			<point x="78" y="596" type="qcurve"/>
			<point x="91" y="595"/>
			<point x="114" y="606"/>
			<point x="136" y="620" type="qcurve"/>
			<point x="134" y="618"/>
			<point x="144" y="643"/>
			<point x="132" y="652" type="qcurve"/>
			<point x="106" y="668"/>
			<point x="96" y="668" type="qcurve"/>
			<point x="78" y="669"/>
			<point x="52" y="648"/>
			<point x="50" y="628" type="qcurve"/>
			<point x="49" y="614"/>
			<point x="66" y="597"/>
		</contour>
		<contour>
			<point x="294" y="605" type="qcurve"/>
			<point x="309" y="600"/>
			<point x="331" y="616" type="qcurve"/>
			<point x="354" y="631" type="line"/>
			<point x="356" y="659"/>
			<point x="334" y="672" type="qcurve"/>
			<point x="315" y="674"/>
			<point x="280" y="662"/>
			<point x="265" y="630" type="qcurve"/>
			<point x="267" y="621"/>
			<point x="288" y="604"/>
		</contour>
	</outline>
</glyph>
<glyph name="copyright" format="2">
	<advance width="504"/>
	<unicode hex="00A9"/>
	<note>
		copyright
	</note>
	<outline>
		<contour>
			<point x="241" y="360" type="qcurve"/>
			<point x="252" y="360"/>
			<point x="258" y="361" type="qcurve"/>
			<point x="263" y="361"/>
			<point x="278" y="360"/>
			<point x="289" y="361" type="qcurve"/>
			<point x="307" y="363"/>
			<point x="320" y="368" type="qcurve"/>
			<point x="370" y="391"/>
			<point x="407" y="428" type="qcurve"/>
			<point x="454" y="475"/>
			<point x="454" y="546" type="qcurve"/>
			<point x="454" y="576"/>
			<point x="439" y="627" type="qcurve"/>
			<point x="376" y="715"/>
			<point x="303" y="751"/>
			<point x="266" y="751" type="qcurve"/>
			<point x="212" y="751"/>
			<point x="141" y="732" type="qcurve"/>
			<point x="125" y="726"/>
			<point x="100" y="711" type="qcurve"/>
			<point x="78" y="699"/>
			<point x="72" y="672" type="qcurve"/>
			<point x="60" y="634"/>
			<point x="60" y="604" type="qcurve"/>
			<point x="60" y="597"/>
			<point x="62" y="581" type="qcurve"/>
			<point x="72" y="513"/>
			<point x="82" y="480" type="qcurve"/>
			<point x="104" y="405"/>
			<point x="164" y="378" type="qcurve"/>
			<point x="200" y="360"/>
		</contour>
		<contour>
			<point x="260" y="470" type="qcurve"/>
			<point x="277" y="470"/>
			<point x="299" y="475" type="qcurve"/>
			<point x="312" y="479"/>
			<point x="328" y="498"/>
			<point x="325" y="506" type="qcurve"/>
			<point x="310" y="520"/>
			<point x="293" y="521"/>
			<point x="291" y="521" type="qcurve"/>
			<point x="284" y="522"/>
			<point x="269" y="522" type="qcurve"/>
			<point x="264" y="522"/>
			<point x="250" y="523"/>
			<point x="240" y="525" type="qcurve"/>
			<point x="227" y="526"/>
			<point x="211" y="537" type="qcurve"/>
			<point x="202" y="542"/>
			<point x="202" y="552" type="qcurve"/>
			<point x="202" y="557"/>
			<point x="207" y="564" type="qcurve"/>
			<point x="240" y="602"/>
			<point x="281" y="606" type="qcurve"/>
			<point x="307" y="609" type="line"/>
			<point x="316" y="618"/>
			<point x="316" y="628" type="qcurve"/>
			<point x="316" y="633"/>
			<point x="313" y="639" type="qcurve"/>
			<point x="304" y="657"/>
			<point x="284" y="659" type="qcurve"/>
			<point x="265" y="659"/>
			<point x="257" y="656" type="qcurve"/>
			<point x="220" y="640"/>
			<point x="196" y="627" type="qcurve"/>
			<point x="187" y="622"/>
			<point x="171" y="602"/>
			<point x="168" y="599" type="qcurve"/>
			<point x="153" y="581"/>
			<point x="153" y="554" type="qcurve"/>
			<point x="153" y="516"/>
			<point x="185" y="494" type="qcurve"/>
			<point x="217" y="470"/>
		</contour>
		<contour>
			<point x="254" y="399" type="qcurve"/>
			<point x="206" y="399"/>
			<point x="178" y="412" type="qcurve"/>
			<point x="149" y="427"/>
			<point x="137" y="450" type="qcurve"/>
			<point x="105" y="517"/>
			<point x="105" y="585" type="qcurve"/>
			<point x="105" y="616"/>
			<point x="110" y="640" type="qcurve"/>
			<point x="118" y="681"/>
			<point x="157" y="692" type="qcurve"/>
			<point x="219" y="709"/>
			<point x="256" y="709" type="qcurve"/>
			<point x="269" y="709"/>
			<point x="304" y="702"/>
			<point x="311" y="701" type="qcurve"/>
			<point x="315" y="700"/>
			<point x="324" y="695"/>
			<point x="327" y="694" type="qcurve"/>
			<point x="342" y="693"/>
			<point x="364" y="676"/>
			<point x="376" y="662" type="qcurve"/>
			<point x="399" y="631" type="line"/>
			<point x="419" y="601"/>
			<point x="419" y="566" type="qcurve"/>
			<point x="419" y="543"/>
			<point x="412" y="522" type="qcurve"/>
			<point x="399" y="483"/>
			<point x="375" y="454" type="qcurve"/>
			<point x="351" y="425"/>
			<point x="294" y="399"/>
		</contour>
	</outline>
</glyph>
<glyph name="ordfeminine" format="2">
	<advance width="409"/>
	<unicode hex="00AA"/>
	<note>
		ordfeminine
	</note>
	<outline>
		<contour>
			<point x="133" y="430" type="qcurve"/>
			<point x="150" y="430"/>
			<point x="181" y="448"/>
			<point x="192" y="465" type="qcurve"/>
			<point x="203" y="482"/>
			<point x="208" y="482" type="qcurve"/>
			<point x="214" y="482"/>
			<point x="226" y="466" type="qcurve"/>
			<point x="239" y="449"/>
			<point x="276" y="431"/>
			<point x="294" y="431" type="qcurve"/>
			<point x="324" y="430"/>
			<point x="346" y="452" type="qcurve"/>
			<point x="359" y="465"/>
			<point x="359" y="477" type="qcurve"/>
			<point x="359" y="486"/>
			<point x="353" y="495" type="qcurve"/>
			<point x="346" y="506"/>
			<point x="335" y="506" type="qcurve"/>
			<point x="325" y="506"/>
			<point x="314" y="499" type="qcurve"/>
			<point x="299" y="489" type="line" smooth="yes"/>
			<point x="291" y="484"/>
			<point x="285" y="484" type="qcurve"/>
			<point x="277" y="484"/>
			<point x="273" y="495" type="qcurve"/>
			<point x="266" y="513"/>
			<point x="265" y="528" type="qcurve"/>
			<point x="265" y="544"/>
			<point x="266" y="574" type="qcurve"/>
			<point x="267" y="604" type="line" smooth="yes"/>
			<point x="268" y="628"/>
			<point x="244" y="636" type="qcurve"/>
			<point x="235" y="638" type="line"/>
			<point x="219" y="628"/>
			<point x="214" y="609"/>
			<point x="212" y="603" type="qcurve"/>
			<point x="192" y="554"/>
			<point x="165" y="513" type="qcurve"/>
			<point x="152" y="496"/>
			<point x="140" y="496" type="qcurve"/>
			<point x="130" y="496"/>
			<point x="122" y="507" type="qcurve"/>
			<point x="120" y="515"/>
			<point x="120" y="531" type="qcurve"/>
			<point x="120" y="580"/>
			<point x="189" y="663"/>
			<point x="236" y="681" type="qcurve"/>
			<point x="232" y="683"/>
			<point x="218" y="694"/>
			<point x="213" y="695" type="qcurve"/>
			<point x="200" y="698"/>
			<point x="187" y="698" type="qcurve"/>
			<point x="156" y="698"/>
			<point x="106" y="664"/>
			<point x="93" y="633" type="qcurve"/>
			<point x="76" y="593"/>
			<point x="69" y="566" type="qcurve"/>
			<point x="57" y="520"/>
			<point x="61" y="495" type="qcurve"/>
			<point x="63" y="483"/>
			<point x="72" y="458"/>
			<point x="81" y="451" type="qcurve"/>
			<point x="107" y="430"/>
		</contour>
	</outline>
</glyph>
<glyph name="guillemotleft" format="2">
	<advance width="503"/>
	<unicode hex="00AB"/>
	<outline>
		<contour>
			<point x="197" y="101" type="curve" smooth="yes"/>
			<point x="202" y="99"/>
			<point x="206" y="98"/>
			<point x="211" y="98" type="curve" smooth="yes"/>
			<point x="242" y="98"/>
			<point x="256" y="144"/>
			<point x="225" y="168" type="curve" smooth="yes"/>
			<point x="209" y="184"/>
			<point x="125" y="208"/>
			<point x="125" y="238" type="curve" smooth="yes"/>
			<point x="125" y="247"/>
			<point x="132" y="257"/>
			<point x="142" y="276" type="curve" smooth="yes"/>
			<point x="150" y="291"/>
			<point x="161" y="303"/>
			<point x="171" y="315" type="curve" smooth="yes"/>
			<point x="199" y="349"/>
			<point x="227" y="382"/>
			<point x="258" y="413" type="curve" smooth="yes"/>
			<point x="267" y="424"/>
			<point x="272" y="434"/>
			<point x="272" y="444" type="curve" smooth="yes"/>
			<point x="272" y="464"/>
			<point x="257" y="492"/>
			<point x="231" y="492" type="curve" smooth="yes"/>
			<point x="216" y="492"/>
			<point x="202" y="483"/>
			<point x="189" y="466" type="curve" smooth="yes"/>
			<point x="118" y="374"/>
			<point x="113" y="375"/>
			<point x="48" y="268" type="curve"/>
			<point x="27" y="223"/>
			<point x="54" y="207"/>
			<point x="74" y="181" type="curve" smooth="yes"/>
			<point x="107" y="138"/>
			<point x="151" y="119"/>
		</contour>
		<contour>
			<point x="327" y="181" type="curve" smooth="yes"/>
			<point x="384" y="161"/>
			<point x="456" y="114"/>
			<point x="472" y="159" type="curve"/>
			<point x="473" y="174" type="line"/>
			<point x="476" y="197"/>
			<point x="393" y="243"/>
			<point x="326" y="262" type="curve"/>
			<point x="428" y="393" type="line"/>
			<point x="438" y="405"/>
			<point x="443" y="416"/>
			<point x="443" y="425" type="curve" smooth="yes"/>
			<point x="443" y="446"/>
			<point x="425" y="466"/>
			<point x="406" y="466" type="curve" smooth="yes"/>
			<point x="395" y="466"/>
			<point x="383" y="460"/>
			<point x="372" y="447" type="curve" smooth="yes"/>
			<point x="284" y="337"/>
			<point x="242" y="289"/>
			<point x="242" y="250" type="curve" smooth="yes"/>
			<point x="242" y="223"/>
			<point x="282" y="197"/>
		</contour>
	</outline>
</glyph>
<glyph name="logicalnot" format="2">
	<advance width="722"/>
	<unicode hex="00AC"/>
	<note>
		logicalnot
	</note>
	<outline>
		<contour>
			<point x="304" y="242" type="curve" smooth="yes"/>
			<point x="234" y="242"/>
			<point x="111" y="201"/>
			<point x="83" y="261" type="curve" smooth="yes"/>
			<point x="73" y="284"/>
			<point x="87" y="312"/>
			<point x="112" y="309" type="curve" smooth="yes"/>
			<point x="127" y="307"/>
			<point x="140" y="303"/>
			<point x="155" y="302" type="curve" smooth="yes"/>
			<point x="262" y="302"/>
			<point x="273" y="295"/>
			<point x="381" y="300" type="curve" smooth="yes"/>
			<point x="446" y="303"/>
			<point x="515" y="298"/>
			<point x="578" y="326" type="curve" smooth="yes"/>
			<point x="599" y="336"/>
			<point x="614" y="325"/>
			<point x="620" y="303" type="curve" smooth="yes"/>
			<point x="625" y="282"/>
			<point x="634" y="246"/>
			<point x="637" y="225" type="curve" smooth="yes"/>
			<point x="641" y="184"/>
			<point x="643" y="143"/>
			<point x="642" y="101" type="curve" smooth="yes"/>
			<point x="644" y="74"/>
			<point x="601" y="74"/>
			<point x="585" y="104" type="curve" smooth="yes"/>
			<point x="582" y="109"/>
			<point x="585" y="119"/>
			<point x="585" y="127" type="curve" smooth="yes"/>
			<point x="586" y="152"/>
			<point x="590" y="177"/>
			<point x="586" y="202" type="curve" smooth="yes"/>
			<point x="580" y="255"/>
			<point x="588" y="262"/>
			<point x="521" y="248" type="curve"/>
			<point x="415" y="245"/>
			<point x="409" y="243"/>
		</contour>
	</outline>
</glyph>
<glyph name="uni00AD" format="2">
	<advance width="554"/>
	<unicode hex="00AD"/>
	<note>
		uni00AD
	</note>
	<outline>
		<contour>
			<point x="450" y="261" type="curve" smooth="yes"/>
			<point x="462" y="262"/>
			<point x="473" y="279"/>
			<point x="484" y="288" type="curve"/>
			<point x="475" y="297"/>
			<point x="466" y="312"/>
			<point x="456" y="313" type="curve" smooth="yes"/>
			<point x="373" y="322"/>
			<point x="289" y="328"/>
			<point x="205" y="334" type="curve"/>
			<point x="205" y="336" type="line"/>
			<point x="189" y="336"/>
			<point x="173" y="339"/>
			<point x="157" y="336" type="curve" smooth="yes"/>
			<point x="144" y="333"/>
			<point x="131" y="324"/>
			<point x="117" y="318" type="curve"/>
			<point x="128" y="305"/>
			<point x="137" y="287"/>
			<point x="151" y="278" type="curve" smooth="yes"/>
			<point x="162" y="271"/>
			<point x="179" y="273"/>
			<point x="193" y="272" type="curve" smooth="yes"/>
			<point x="233" y="270"/>
			<point x="272" y="268"/>
			<point x="312" y="266" type="curve" smooth="yes"/>
			<point x="358" y="264"/>
			<point x="404" y="260"/>
		</contour>
	</outline>
</glyph>
<glyph name="macron" format="2">
	<advance width="466"/>
	<unicode hex="00AF"/>
	<outline>
		<contour>
			<point x="168" y="613" type="qcurve"/>
			<point x="198" y="618"/>
			<point x="262" y="615" type="qcurve"/>
			<point x="268" y="616"/>
			<point x="357" y="615"/>
			<point x="384" y="620" type="qcurve"/>
			<point x="394" y="624"/>
			<point x="411" y="632"/>
			<point x="418" y="651"/>
			<point x="408" y="674"/>
			<point x="403" y="680" type="qcurve"/>
			<point x="393" y="687"/>
			<point x="303" y="673"/>
			<point x="271" y="671"/>
			<point x="230" y="677" type="qcurve"/>
			<point x="204" y="681"/>
			<point x="147" y="679"/>
			<point x="147" y="679" type="qcurve"/>
			<point x="30" y="673"/>
			<point x="54" y="641" type="qcurve"/>
			<point x="73" y="609"/>
		</contour>
	</outline>
</glyph>
<glyph name="plusminus" format="2">
	<advance width="558"/>
	<unicode hex="00B1"/>
	<note>
		plusminus
	</note>
	<outline>
		<contour>
			<point x="256" y="166" type="curve" smooth="yes"/>
			<point x="268" y="166"/>
			<point x="279" y="176"/>
			<point x="288" y="184" type="curve" smooth="yes"/>
			<point x="295" y="193"/>
			<point x="298" y="204"/>
			<point x="301" y="216" type="curve" smooth="yes"/>
			<point x="312" y="266"/>
			<point x="307" y="285"/>
			<point x="314" y="337" type="curve" smooth="yes"/>
			<point x="318" y="369"/>
			<point x="319" y="377"/>
			<point x="367" y="382" type="curve"/>
			<point x="432" y="393"/>
			<point x="457" y="399"/>
			<point x="521" y="416" type="curve" smooth="yes"/>
			<point x="530" y="418"/>
			<point x="537" y="426"/>
			<point x="548" y="437" type="curve"/>
			<point x="539" y="455"/>
			<point x="492" y="445"/>
			<point x="483" y="444" type="curve" smooth="yes"/>
			<point x="418" y="435"/>
			<point x="391" y="433"/>
			<point x="323" y="423" type="curve"/>
			<point x="319" y="441"/>
			<point x="318" y="451"/>
			<point x="318" y="461" type="curve"/>
			<point x="310" y="524"/>
			<point x="307" y="517"/>
			<point x="295" y="579" type="curve" smooth="yes"/>
			<point x="291" y="597"/>
			<point x="268" y="626"/>
			<point x="252" y="626" type="curve"/>
			<point x="238" y="613"/>
			<point x="233" y="590"/>
			<point x="234" y="573" type="curve" smooth="yes"/>
			<point x="241" y="500"/>
			<point x="246" y="496"/>
			<point x="257" y="413" type="curve"/>
			<point x="184" y="417"/>
			<point x="121" y="421"/>
			<point x="57" y="421" type="curve" smooth="yes"/>
			<point x="41" y="421"/>
			<point x="18" y="431"/>
			<point x="10" y="406" type="curve"/>
			<point x="10" y="384"/>
			<point x="34" y="376"/>
			<point x="50" y="375" type="curve" smooth="yes"/>
			<point x="102" y="369"/>
			<point x="158" y="365"/>
			<point x="212" y="365" type="curve" smooth="yes"/>
			<point x="264" y="369"/>
			<point x="256" y="360"/>
			<point x="251" y="329" type="curve" smooth="yes"/>
			<point x="240" y="276"/>
			<point x="233" y="166"/>
		</contour>
		<contour>
			<point x="149" y="42" type="curve" smooth="yes"/>
			<point x="189" y="42"/>
			<point x="232" y="44"/>
			<point x="274" y="44" type="curve" smooth="yes"/>
			<point x="323" y="44"/>
			<point x="393" y="42"/>
			<point x="440" y="47" type="curve"/>
			<point x="454" y="47"/>
			<point x="477" y="62"/>
			<point x="476" y="78" type="curve"/>
			<point x="479" y="96"/>
			<point x="455" y="103"/>
			<point x="444" y="102" type="curve" smooth="yes"/>
			<point x="357" y="94"/>
			<point x="245" y="94"/>
			<point x="158" y="96" type="curve"/>
			<point x="158" y="96"/>
			<point x="123" y="100"/>
			<point x="108" y="95" type="curve" smooth="yes"/>
			<point x="92" y="91"/>
			<point x="90" y="56"/>
			<point x="103" y="47" type="curve" smooth="yes"/>
			<point x="115" y="40"/>
			<point x="133" y="42"/>
		</contour>
	</outline>
</glyph>
<glyph name="uni00B2" format="2">
	<advance width="416"/>
	<unicode hex="00B2"/>
	<note>
		uni00B2
	</note>
	<outline>
		<contour>
			<point x="245" y="325" type="curve"/>
			<point x="296" y="326"/>
			<point x="341" y="340"/>
			<point x="383" y="364" type="curve"/>
			<point x="394" y="369"/>
			<point x="398" y="385"/>
			<point x="406" y="396" type="curve"/>
			<point x="392" y="396"/>
			<point x="378" y="400"/>
			<point x="365" y="397" type="curve" smooth="yes"/>
			<point x="320" y="390"/>
			<point x="275" y="378"/>
			<point x="229" y="373" type="curve" smooth="yes"/>
			<point x="202" y="371"/>
			<point x="188" y="387"/>
			<point x="202" y="417" type="curve" smooth="yes"/>
			<point x="216" y="446"/>
			<point x="229" y="463"/>
			<point x="243" y="493" type="curve" smooth="yes"/>
			<point x="283" y="580" type="line" smooth="yes"/>
			<point x="299" y="620"/>
			<point x="309" y="663"/>
			<point x="272" y="701" type="curve" smooth="yes"/>
			<point x="215" y="758"/>
			<point x="85" y="741"/>
			<point x="45" y="669" type="curve" smooth="yes"/>
			<point x="40" y="661"/>
			<point x="45" y="639"/>
			<point x="52" y="635" type="curve" smooth="yes"/>
			<point x="61" y="629"/>
			<point x="83" y="629"/>
			<point x="90" y="636" type="curve" smooth="yes"/>
			<point x="120" y="669"/>
			<point x="157" y="687"/>
			<point x="201" y="688" type="curve" smooth="yes"/>
			<point x="228" y="689"/>
			<point x="248" y="676"/>
			<point x="243" y="646" type="curve" smooth="yes"/>
			<point x="238" y="614"/>
			<point x="232" y="581"/>
			<point x="219" y="551" type="curve" smooth="yes"/>
			<point x="182" y="468"/>
			<point x="181" y="487"/>
			<point x="141" y="405" type="curve" smooth="yes"/>
			<point x="126" y="377"/>
			<point x="133" y="357"/>
			<point x="161" y="347" type="curve" smooth="yes"/>
			<point x="188" y="337"/>
			<point x="217" y="332"/>
		</contour>
	</outline>
</glyph>
<glyph name="uni00B3" format="2">
	<advance width="351"/>
	<unicode hex="00B3"/>
	<note>
		uni00B3
	</note>
	<outline>
		<contour>
			<point x="96" y="384" type="curve" smooth="yes"/>
			<point x="179" y="366"/>
			<point x="276" y="428"/>
			<point x="298" y="511" type="curve" smooth="yes"/>
			<point x="308" y="550"/>
			<point x="287" y="587"/>
			<point x="247" y="597" type="curve" smooth="yes"/>
			<point x="219" y="604"/>
			<point x="190" y="608"/>
			<point x="160" y="613" type="curve"/>
			<point x="163" y="617"/>
			<point x="165" y="620"/>
			<point x="168" y="621" type="curve"/>
			<point x="207" y="653"/>
			<point x="246" y="684"/>
			<point x="285" y="715" type="curve" smooth="yes"/>
			<point x="305" y="731"/>
			<point x="308" y="745"/>
			<point x="290" y="759" type="curve" smooth="yes"/>
			<point x="281" y="765"/>
			<point x="267" y="768"/>
			<point x="255" y="768" type="curve" smooth="yes"/>
			<point x="195" y="767"/>
			<point x="133" y="767"/>
			<point x="72" y="764" type="curve" smooth="yes"/>
			<point x="63" y="764"/>
			<point x="54" y="754"/>
			<point x="46" y="750" type="curve"/>
			<point x="56" y="740"/>
			<point x="65" y="723"/>
			<point x="75" y="723" type="curve" smooth="yes"/>
			<point x="121" y="719"/>
			<point x="168" y="721"/>
			<point x="215" y="721" type="curve"/>
			<point x="220" y="716" type="line"/>
			<point x="211" y="709"/>
			<point x="201" y="701"/>
			<point x="192" y="694" type="curve" smooth="yes"/>
			<point x="150" y="661"/>
			<point x="108" y="629"/>
			<point x="65" y="597" type="curve" smooth="yes"/>
			<point x="52" y="587"/>
			<point x="46" y="578"/>
			<point x="55" y="562" type="curve" smooth="yes"/>
			<point x="64" y="545"/>
			<point x="76" y="539"/>
			<point x="92" y="548" type="curve" smooth="yes"/>
			<point x="131" y="571"/>
			<point x="172" y="571"/>
			<point x="215" y="566" type="curve" smooth="yes"/>
			<point x="261" y="562"/>
			<point x="272" y="538"/>
			<point x="247" y="498" type="curve" smooth="yes"/>
			<point x="214" y="442"/>
			<point x="162" y="418"/>
			<point x="99" y="411" type="curve" smooth="yes"/>
			<point x="93" y="410"/>
			<point x="86" y="404"/>
			<point x="79" y="400" type="curve"/>
			<point x="84" y="395"/>
			<point x="90" y="385"/>
		</contour>
	</outline>
</glyph>
<glyph name="acute" format="2">
	<advance width="307"/>
	<unicode hex="00B4"/>
	<outline>
		<contour>
			<point x="61" y="506" type="curve" smooth="yes"/>
			<point x="75" y="490"/>
			<point x="104" y="506"/>
			<point x="114" y="524" type="curve"/>
			<point x="157" y="575"/>
			<point x="192" y="631"/>
			<point x="244" y="676" type="curve"/>
			<point x="267" y="699"/>
			<point x="258" y="732"/>
			<point x="228" y="745" type="curve" smooth="yes"/>
			<point x="214" y="752"/>
			<point x="203" y="749"/>
			<point x="191" y="735" type="curve" smooth="yes"/>
			<point x="169" y="705"/>
			<point x="146" y="676"/>
			<point x="124" y="646" type="curve" smooth="yes"/>
			<point x="102" y="616"/>
			<point x="81" y="586"/>
			<point x="58" y="555" type="curve" smooth="yes"/>
			<point x="46" y="540"/>
			<point x="48" y="519"/>
		</contour>
	</outline>
</glyph>
<glyph name="uni00B5" format="2">
	<advance width="663"/>
	<unicode hex="00B5"/>
	<note>
		uni00B5
	</note>
	<outline>
		<contour>
			<point x="66" y="-273" type="curve" smooth="yes"/>
			<point x="82" y="-285"/>
			<point x="102" y="-278"/>
			<point x="110" y="-260" type="curve" smooth="yes"/>
			<point x="124" y="-230"/>
			<point x="120" y="-215"/>
			<point x="118" y="-176" type="curve" smooth="yes"/>
			<point x="116" y="-143"/>
			<point x="126" y="32"/>
			<point x="127" y="65" type="curve" smooth="yes"/>
			<point x="128" y="123" type="line"/>
			<point x="136" y="108"/>
			<point x="162" y="54"/>
			<point x="174" y="41" type="curve" smooth="yes"/>
			<point x="203" y="10"/>
			<point x="246" y="-1"/>
			<point x="283" y="20" type="curve" smooth="yes"/>
			<point x="309" y="35"/>
			<point x="333" y="53"/>
			<point x="356" y="72" type="curve" smooth="yes"/>
			<point x="378" y="90"/>
			<point x="387" y="113"/>
			<point x="410" y="134" type="curve"/>
			<point x="425" y="89"/>
			<point x="437" y="56"/>
			<point x="474" y="32" type="curve" smooth="yes"/>
			<point x="508" y="7"/>
			<point x="580" y="-17"/>
			<point x="629" y="-6" type="curve" smooth="yes"/>
			<point x="648" y="-2"/>
			<point x="655" y="12"/>
			<point x="652" y="29" type="curve" smooth="yes"/>
			<point x="648" y="49"/>
			<point x="633" y="51"/>
			<point x="615" y="49" type="curve" smooth="yes"/>
			<point x="599" y="47"/>
			<point x="551" y="59"/>
			<point x="536" y="65" type="curve" smooth="yes"/>
			<point x="474" y="87"/>
			<point x="460" y="172"/>
			<point x="467" y="237" type="curve" smooth="yes"/>
			<point x="475" y="316"/>
			<point x="482" y="349"/>
			<point x="490" y="381" type="curve"/>
			<point x="445" y="407"/>
			<point x="432" y="405"/>
			<point x="416" y="368" type="curve" smooth="yes"/>
			<point x="404" y="340"/>
			<point x="400" y="264"/>
			<point x="392" y="236" type="curve" smooth="yes"/>
			<point x="388" y="219"/>
			<point x="388" y="198"/>
			<point x="377" y="187" type="curve" smooth="yes"/>
			<point x="341" y="152"/>
			<point x="321" y="119"/>
			<point x="281" y="89" type="curve" smooth="yes"/>
			<point x="258" y="71"/>
			<point x="223" y="76"/>
			<point x="208" y="102" type="curve" smooth="yes"/>
			<point x="194" y="125"/>
			<point x="183" y="153"/>
			<point x="178" y="180" type="curve" smooth="yes"/>
			<point x="170" y="224"/>
			<point x="167" y="315"/>
			<point x="162" y="360" type="curve"/>
			<point x="161" y="406"/>
			<point x="136" y="426"/>
			<point x="108" y="410" type="curve" smooth="yes"/>
			<point x="84" y="398"/>
			<point x="67" y="374"/>
			<point x="72" y="342" type="curve" smooth="yes"/>
			<point x="74" y="325"/>
			<point x="73" y="243"/>
			<point x="72" y="243" type="curve"/>
			<point x="64" y="132"/>
			<point x="56" y="-124"/>
			<point x="50" y="-236" type="curve" smooth="yes"/>
			<point x="49" y="-249"/>
			<point x="56" y="-267"/>
		</contour>
	</outline>
</glyph>
<glyph name="paragraph" format="2">
	<advance width="509"/>
	<unicode hex="00B6"/>
	<note>
		paragraph
	</note>
	<outline>
		<contour>
			<point x="415" y="-133" type="curve" smooth="yes"/>
			<point x="437" y="-133"/>
			<point x="456" y="-119"/>
			<point x="461" y="-99" type="curve"/>
			<point x="464" y="-78" type="line"/>
			<point x="464" y="-64"/>
			<point x="444" y="-24"/>
			<point x="444" y="38" type="curve" smooth="yes"/>
			<point x="444" y="92"/>
			<point x="449" y="111"/>
			<point x="449" y="183" type="curve" smooth="yes"/>
			<point x="449" y="291"/>
			<point x="405" y="661"/>
			<point x="406" y="707" type="curve" smooth="yes"/>
			<point x="406" y="719"/>
			<point x="384" y="742"/>
			<point x="370" y="742" type="curve" smooth="yes"/>
			<point x="348" y="742"/>
			<point x="341" y="699"/>
			<point x="332" y="671" type="curve"/>
			<point x="308" y="674"/>
			<point x="282" y="676"/>
			<point x="256" y="681" type="curve" smooth="yes"/>
			<point x="243" y="683"/>
			<point x="230" y="684"/>
			<point x="217" y="684" type="curve" smooth="yes"/>
			<point x="181" y="684"/>
			<point x="146" y="676"/>
			<point x="112" y="664" type="curve" smooth="yes"/>
			<point x="69" y="649"/>
			<point x="44" y="607"/>
			<point x="44" y="562" type="curve" smooth="yes"/>
			<point x="44" y="487"/>
			<point x="97" y="436"/>
			<point x="147" y="390" type="curve" smooth="yes"/>
			<point x="194" y="347"/>
			<point x="247" y="312"/>
			<point x="303" y="285" type="curve" smooth="yes"/>
			<point x="325" y="275"/>
			<point x="350" y="273"/>
			<point x="381" y="265" type="curve"/>
			<point x="383" y="250"/>
			<point x="387" y="228"/>
			<point x="387" y="207" type="curve" smooth="yes"/>
			<point x="386" y="147"/>
			<point x="383" y="88"/>
			<point x="383" y="28" type="curve" smooth="yes"/>
			<point x="383" y="-15"/>
			<point x="387" y="-57"/>
			<point x="390" y="-99" type="curve" smooth="yes"/>
			<point x="392" y="-115"/>
			<point x="394" y="-133"/>
		</contour>
		<contour>
			<point x="376" y="360" type="curve"/>
			<point x="360" y="361"/>
			<point x="343" y="360"/>
			<point x="329" y="360" type="curve" smooth="yes"/>
			<point x="315" y="360"/>
			<point x="303" y="361"/>
			<point x="294" y="366" type="curve" smooth="yes"/>
			<point x="246" y="395"/>
			<point x="201" y="430"/>
			<point x="159" y="468" type="curve" smooth="yes"/>
			<point x="133" y="491"/>
			<point x="104" y="540"/>
			<point x="104" y="570" type="curve" smooth="yes"/>
			<point x="104" y="595"/>
			<point x="122" y="611"/>
			<point x="155" y="615" type="curve" smooth="yes"/>
			<point x="211" y="623"/>
			<point x="264" y="621"/>
			<point x="312" y="603" type="curve" smooth="yes"/>
			<point x="342" y="592"/>
			<point x="356" y="574"/>
			<point x="358" y="545" type="curve" smooth="yes"/>
			<point x="364" y="486"/>
			<point x="370" y="427"/>
		</contour>
	</outline>
</glyph>
<glyph name="periodcentered" format="2">
	<advance width="229"/>
	<unicode hex="00B7"/>
	<outline>
		<contour>
			<point x="112" y="178" type="qcurve"/>
			<point x="113" y="178"/>
			<point x="118" y="178" type="qcurve"/>
			<point x="162" y="195"/>
			<point x="179" y="225"/>
			<point x="179" y="243" type="qcurve"/>
			<point x="179" y="267"/>
			<point x="154" y="294"/>
			<point x="137" y="294" type="qcurve"/>
			<point x="113" y="294"/>
			<point x="71" y="262"/>
			<point x="60" y="237" type="qcurve"/>
			<point x="60" y="232"/>
			<point x="62" y="216"/>
			<point x="63" y="212" type="qcurve"/>
			<point x="76" y="184"/>
		</contour>
	</outline>
</glyph>
<glyph name="ordmasculine" format="2">
	<advance width="379"/>
	<unicode hex="00BA"/>
	<note>
		ordmasculine
	</note>
	<outline>
		<contour>
			<point x="181" y="397" type="curve" smooth="yes"/>
			<point x="194" y="397"/>
			<point x="206" y="400"/>
			<point x="218" y="405" type="curve" smooth="yes"/>
			<point x="270" y="428"/>
			<point x="323" y="514"/>
			<point x="323" y="568" type="curve" smooth="yes"/>
			<point x="323" y="616"/>
			<point x="288" y="655"/>
			<point x="229" y="667" type="curve" smooth="yes"/>
			<point x="214" y="669"/>
			<point x="199" y="675"/>
			<point x="186" y="684" type="curve" smooth="yes"/>
			<point x="172" y="695"/>
			<point x="157" y="700"/>
			<point x="145" y="700" type="curve" smooth="yes"/>
			<point x="127" y="700"/>
			<point x="112" y="690"/>
			<point x="102" y="667" type="curve" smooth="yes"/>
			<point x="84" y="632"/>
			<point x="75" y="593"/>
			<point x="63" y="555" type="curve"/>
			<point x="65" y="554"/>
			<point x="67" y="553"/>
			<point x="70" y="553" type="curve"/>
			<point x="71" y="527"/>
			<point x="71" y="503"/>
			<point x="75" y="479" type="curve" smooth="yes"/>
			<point x="82" y="431"/>
			<point x="133" y="397"/>
		</contour>
		<contour>
			<point x="176" y="449" type="curve" smooth="yes"/>
			<point x="162" y="449"/>
			<point x="148" y="459"/>
			<point x="139" y="479" type="curve" smooth="yes"/>
			<point x="110" y="541"/>
			<point x="151" y="621"/>
			<point x="213" y="621" type="curve" smooth="yes"/>
			<point x="241" y="621"/>
			<point x="269" y="593"/>
			<point x="269" y="566" type="curve" smooth="yes"/>
			<point x="269" y="542"/>
			<point x="231" y="487"/>
			<point x="202" y="460" type="curve" smooth="yes"/>
			<point x="194" y="452"/>
			<point x="185" y="449"/>
		</contour>
	</outline>
</glyph>
<glyph name="guillemotright" format="2">
	<advance width="479"/>
	<unicode hex="00BB"/>
	<outline>
		<contour>
			<point x="252" y="82" type="curve" smooth="yes"/>
			<point x="271" y="74"/>
			<point x="288" y="90"/>
			<point x="304" y="120" type="curve" smooth="yes"/>
			<point x="314" y="138"/>
			<point x="327" y="157"/>
			<point x="340" y="177" type="curve"/>
			<point x="369" y="212"/>
			<point x="403" y="245"/>
			<point x="430" y="281" type="curve" smooth="yes"/>
			<point x="460" y="323"/>
			<point x="453" y="353"/>
			<point x="415" y="381" type="curve" smooth="yes"/>
			<point x="370" y="412"/>
			<point x="326" y="444"/>
			<point x="283" y="479" type="curve"/>
			<point x="268" y="489"/>
			<point x="223" y="491"/>
			<point x="212" y="479" type="curve" smooth="yes"/>
			<point x="195" y="459"/>
			<point x="199" y="446"/>
			<point x="217" y="428" type="curve" smooth="yes"/>
			<point x="224" y="421"/>
			<point x="233" y="409"/>
			<point x="240" y="406" type="curve"/>
			<point x="280" y="379"/>
			<point x="319" y="353"/>
			<point x="366" y="323" type="curve"/>
			<point x="315" y="257" type="line" smooth="yes"/>
			<point x="291" y="225"/>
			<point x="253" y="194"/>
			<point x="231" y="160" type="curve" smooth="yes"/>
			<point x="213" y="135"/>
			<point x="228" y="93"/>
		</contour>
		<contour>
			<point x="88" y="85" type="curve"/>
			<point x="95" y="91"/>
			<point x="105" y="95"/>
			<point x="108" y="101" type="curve"/>
			<point x="147" y="160"/>
			<point x="187" y="219"/>
			<point x="222" y="281" type="curve" smooth="yes"/>
			<point x="230" y="294"/>
			<point x="233" y="318"/>
			<point x="227" y="331" type="curve" smooth="yes"/>
			<point x="195" y="396"/>
			<point x="138" y="437"/>
			<point x="78" y="476" type="curve" smooth="yes"/>
			<point x="68" y="483"/>
			<point x="42" y="473"/>
			<point x="31" y="462" type="curve"/>
			<point x="15" y="451"/>
			<point x="32" y="430"/>
			<point x="46" y="417" type="curve" smooth="yes"/>
			<point x="93" y="375" type="line" smooth="yes"/>
			<point x="105" y="365"/>
			<point x="116" y="353"/>
			<point x="124" y="340" type="curve"/>
			<point x="149" y="308"/>
			<point x="148" y="302"/>
			<point x="126" y="270" type="curve" smooth="yes"/>
			<point x="106" y="241"/>
			<point x="87" y="212"/>
			<point x="67" y="180" type="curve" smooth="yes"/>
			<point x="39" y="131"/>
			<point x="32" y="118"/>
		</contour>
	</outline>
</glyph>
<glyph name="onequarter" format="2">
	<advance width="751"/>
	<unicode hex="00BC"/>
	<note>
		onequarter
	</note>
	<outline>
		<contour>
			<point x="230" y="47" type="curve" smooth="yes"/>
			<point x="246" y="37"/>
			<point x="256" y="44"/>
			<point x="263" y="72" type="curve" smooth="yes"/>
			<point x="288" y="170"/>
			<point x="320" y="215"/>
			<point x="359" y="303" type="curve" smooth="yes"/>
			<point x="399" y="394"/>
			<point x="464" y="539"/>
			<point x="515" y="623" type="curve" smooth="yes"/>
			<point x="529" y="647"/>
			<point x="523" y="672"/>
			<point x="502" y="688" type="curve" smooth="yes"/>
			<point x="483" y="700" type="line"/>
			<point x="476" y="687"/>
			<point x="470" y="676"/>
			<point x="465" y="664" type="curve" smooth="yes"/>
			<point x="460" y="650"/>
			<point x="458" y="634"/>
			<point x="451" y="620" type="curve" smooth="yes"/>
			<point x="433" y="577"/>
			<point x="384" y="483"/>
			<point x="364" y="440" type="curve" smooth="yes"/>
			<point x="303" y="318"/>
			<point x="269" y="226"/>
			<point x="215" y="98" type="curve" smooth="yes"/>
			<point x="205" y="76"/>
			<point x="213" y="57"/>
		</contour>
		<contour>
			<point x="210" y="299" type="curve"/>
			<point x="214" y="299"/>
			<point x="217" y="300"/>
			<point x="221" y="300" type="curve"/>
			<point x="223" y="308"/>
			<point x="227" y="316"/>
			<point x="227" y="325" type="curve" smooth="yes"/>
			<point x="227" y="411"/>
			<point x="233" y="417"/>
			<point x="231" y="503" type="curve" smooth="yes"/>
			<point x="231" y="554"/>
			<point x="225" y="606"/>
			<point x="220" y="658" type="curve" smooth="yes"/>
			<point x="219" y="673"/>
			<point x="215" y="691"/>
			<point x="196" y="694" type="curve" smooth="yes"/>
			<point x="176" y="698"/>
			<point x="165" y="685"/>
			<point x="156" y="669" type="curve"/>
			<point x="155" y="669"/>
			<point x="155" y="667"/>
			<point x="154" y="666" type="curve" smooth="yes"/>
			<point x="127" y="631"/>
			<point x="115" y="618"/>
			<point x="86" y="579" type="curve"/>
			<point x="76" y="573"/>
			<point x="71" y="557"/>
			<point x="70" y="546" type="curve" smooth="yes"/>
			<point x="70" y="538"/>
			<point x="79" y="524"/>
			<point x="87" y="521" type="curve" smooth="yes"/>
			<point x="101" y="515"/>
			<point x="116" y="521"/>
			<point x="126" y="534" type="curve" smooth="yes"/>
			<point x="137" y="550"/>
			<point x="140" y="558"/>
			<point x="151" y="574" type="curve" smooth="yes"/>
			<point x="162" y="588"/>
			<point x="166" y="595"/>
			<point x="177" y="609" type="curve"/>
			<point x="185" y="601"/>
			<point x="184" y="591"/>
			<point x="185" y="586" type="curve" smooth="yes"/>
			<point x="197" y="505"/>
			<point x="196" y="474"/>
			<point x="195" y="392" type="curve" smooth="yes"/>
			<point x="195" y="360"/>
			<point x="194" y="356"/>
			<point x="198" y="323" type="curve" smooth="yes"/>
			<point x="200" y="314"/>
			<point x="205" y="307"/>
		</contour>
		<contour>
			<point x="559" y="0" type="curve"/>
			<point x="563" y="8"/>
			<point x="571" y="14"/>
			<point x="571" y="22" type="curve" smooth="yes"/>
			<point x="573" y="58"/>
			<point x="575" y="95"/>
			<point x="572" y="131" type="curve" smooth="yes"/>
			<point x="569" y="169"/>
			<point x="585" y="190"/>
			<point x="620" y="201" type="curve" smooth="yes"/>
			<point x="638" y="206"/>
			<point x="652" y="220"/>
			<point x="671" y="231" type="curve"/>
			<point x="658" y="242"/>
			<point x="651" y="247"/>
			<point x="647" y="251" type="curve"/>
			<point x="624" y="240"/>
			<point x="604" y="231"/>
			<point x="580" y="221" type="curve"/>
			<point x="580" y="236"/>
			<point x="581" y="247"/>
			<point x="580" y="257" type="curve"/>
			<point x="580" y="305"/>
			<point x="579" y="354"/>
			<point x="579" y="403" type="curve" smooth="yes"/>
			<point x="579" y="414"/>
			<point x="584" y="426"/>
			<point x="584" y="437" type="curve" smooth="yes"/>
			<point x="585" y="447"/>
			<point x="582" y="456"/>
			<point x="580" y="465" type="curve"/>
			<point x="562" y="459"/>
			<point x="536" y="459"/>
			<point x="527" y="446" type="curve" smooth="yes"/>
			<point x="504" y="414"/>
			<point x="487" y="377"/>
			<point x="470" y="342" type="curve" smooth="yes"/>
			<point x="451" y="304"/>
			<point x="431" y="267"/>
			<point x="415" y="228" type="curve" smooth="yes"/>
			<point x="407" y="209"/>
			<point x="413" y="188"/>
			<point x="434" y="182" type="curve" smooth="yes"/>
			<point x="467" y="172"/>
			<point x="500" y="168"/>
			<point x="536" y="160" type="curve"/>
			<point x="536" y="160"/>
			<point x="536" y="152"/>
			<point x="537" y="144" type="curve" smooth="yes"/>
			<point x="540" y="102"/>
			<point x="543" y="61"/>
			<point x="547" y="20" type="curve" smooth="yes"/>
			<point x="548" y="13"/>
			<point x="555" y="7"/>
		</contour>
		<contour>
			<point x="478" y="199" type="curve" smooth="yes"/>
			<point x="456" y="199"/>
			<point x="453" y="218"/>
			<point x="459" y="231" type="curve" smooth="yes"/>
			<point x="480" y="277"/>
			<point x="504" y="322"/>
			<point x="527" y="367" type="curve"/>
			<point x="530" y="365"/>
			<point x="533" y="364"/>
			<point x="536" y="363" type="curve"/>
			<point x="536" y="315"/>
			<point x="540" y="266"/>
			<point x="534" y="219" type="curve" smooth="yes"/>
			<point x="531" y="190"/>
			<point x="499" y="198"/>
		</contour>
	</outline>
</glyph>
<glyph name="onehalf" format="2">
	<advance width="780"/>
	<unicode hex="00BD"/>
	<note>
		onehalf
	</note>
	<outline>
		<contour>
			<point x="174" y="8" type="curve" smooth="yes"/>
			<point x="188" y="-5"/>
			<point x="192" y="2"/>
			<point x="203" y="28" type="curve" smooth="yes"/>
			<point x="245" y="120"/>
			<point x="333" y="250"/>
			<point x="387" y="330" type="curve" smooth="yes"/>
			<point x="442" y="412"/>
			<point x="532" y="544"/>
			<point x="597" y="618" type="curve" smooth="yes"/>
			<point x="615" y="639"/>
			<point x="616" y="670"/>
			<point x="602" y="683" type="curve" smooth="yes"/>
			<point x="586" y="698" type="line"/>
			<point x="576" y="686"/>
			<point x="569" y="676"/>
			<point x="562" y="665" type="curve" smooth="yes"/>
			<point x="554" y="653"/>
			<point x="549" y="637"/>
			<point x="540" y="625" type="curve" smooth="yes"/>
			<point x="515" y="585"/>
			<point x="450" y="501"/>
			<point x="423" y="462" type="curve" smooth="yes"/>
			<point x="342" y="353"/>
			<point x="244" y="177"/>
			<point x="169" y="60" type="curve" smooth="yes"/>
			<point x="155" y="41"/>
			<point x="159" y="20"/>
		</contour>
		<contour>
			<point x="232" y="294" type="curve"/>
			<point x="236" y="294"/>
			<point x="239" y="295"/>
			<point x="243" y="295" type="curve"/>
			<point x="245" y="303"/>
			<point x="249" y="311"/>
			<point x="249" y="320" type="curve" smooth="yes"/>
			<point x="249" y="406"/>
			<point x="250" y="440"/>
			<point x="248" y="526" type="curve" smooth="yes"/>
			<point x="248" y="577"/>
			<point x="242" y="629"/>
			<point x="237" y="681" type="curve" smooth="yes"/>
			<point x="236" y="696"/>
			<point x="232" y="714"/>
			<point x="213" y="717" type="curve" smooth="yes"/>
			<point x="193" y="721"/>
			<point x="182" y="708"/>
			<point x="173" y="692" type="curve"/>
			<point x="172" y="692"/>
			<point x="172" y="690"/>
			<point x="171" y="689" type="curve" smooth="yes"/>
			<point x="144" y="654"/>
			<point x="128" y="609"/>
			<point x="86" y="583" type="curve" smooth="yes"/>
			<point x="76" y="577"/>
			<point x="71" y="561"/>
			<point x="70" y="550" type="curve" smooth="yes"/>
			<point x="70" y="542"/>
			<point x="79" y="528"/>
			<point x="87" y="525" type="curve" smooth="yes"/>
			<point x="101" y="519"/>
			<point x="117" y="524"/>
			<point x="126" y="538" type="curve" smooth="yes"/>
			<point x="158" y="586" type="line"/>
			<point x="169" y="600"/>
			<point x="181" y="614"/>
			<point x="192" y="628" type="curve"/>
			<point x="200" y="620"/>
			<point x="201" y="614"/>
			<point x="202" y="609" type="curve" smooth="yes"/>
			<point x="214" y="528"/>
			<point x="212" y="497"/>
			<point x="211" y="415" type="curve" smooth="yes"/>
			<point x="211" y="383"/>
			<point x="216" y="351"/>
			<point x="220" y="318" type="curve" smooth="yes"/>
			<point x="222" y="309"/>
			<point x="227" y="302"/>
		</contour>
		<contour>
			<point x="539" y="-41" type="curve" smooth="yes"/>
			<point x="590" y="-40"/>
			<point x="641" y="-32"/>
			<point x="685" y="-2" type="curve" smooth="yes"/>
			<point x="693" y="4"/>
			<point x="702" y="19"/>
			<point x="699" y="25" type="curve" smooth="yes"/>
			<point x="692" y="43"/>
			<point x="680" y="32"/>
			<point x="667" y="27" type="curve"/>
			<point x="624" y="5"/>
			<point x="579" y="-10"/>
			<point x="520" y="4" type="curve"/>
			<point x="529" y="30"/>
			<point x="535" y="52"/>
			<point x="545" y="73" type="curve" smooth="yes"/>
			<point x="576" y="132"/>
			<point x="612" y="188"/>
			<point x="636" y="248" type="curve" smooth="yes"/>
			<point x="676" y="346"/>
			<point x="594" y="431"/>
			<point x="488" y="422" type="curve" smooth="yes"/>
			<point x="481" y="421"/>
			<point x="470" y="411"/>
			<point x="469" y="404" type="curve" smooth="yes"/>
			<point x="468" y="398"/>
			<point x="478" y="387"/>
			<point x="484" y="384" type="curve"/>
			<point x="505" y="377"/>
			<point x="526" y="375"/>
			<point x="545" y="367" type="curve" smooth="yes"/>
			<point x="601" y="342"/>
			<point x="615" y="318"/>
			<point x="593" y="262" type="curve" smooth="yes"/>
			<point x="581" y="233"/>
			<point x="567" y="203"/>
			<point x="552" y="175" type="curve" smooth="yes"/>
			<point x="529" y="129"/>
			<point x="499" y="85"/>
			<point x="481" y="36" type="curve" smooth="yes"/>
			<point x="463" y="-12"/>
			<point x="487" y="-42"/>
		</contour>
	</outline>
</glyph>
